<?xml version="1.0" encoding="utf-8"?>
<!-- Generator: Adobe Illustrator 17.0.0, SVG Export Plug-In . SVG Version: 6.00 Build 0)  -->
<!DOCTYPE svg PUBLIC "-//W3C//DTD SVG 1.1//EN" "http://www.w3.org/Graphics/SVG/1.1/DTD/svg11.dtd">
<svg version="1.1" id="Livello_1" xmlns="http://www.w3.org/2000/svg" xmlns:xlink="http://www.w3.org/1999/xlink" x="0px" y="0px"
	 width="595.28px" height="369.504px" viewBox="0 0 595.28 369.504" enable-background="new 0 0 595.28 369.504"
	 xml:space="preserve">
<g>
	<polyline fill="none" stroke="#DADADA" stroke-width="4.2439" stroke-miterlimit="10" points="20.19,17.65 81.895,59.503 
		143.601,59.503 205.306,44.428 267.016,44.428 390.432,84.584 452.138,84.584 513.848,62.653 575.553,82.727 	"/>
	<g>
		<path fill="#263272" d="M20.19,17.65c-1.528,0-2.774-1.241-2.774-2.77v-2.304c0-1.528,1.246-2.77,2.774-2.77
			c1.528,0,2.77,1.241,2.77,2.77v2.304C22.959,16.408,21.718,17.65,20.19,17.65"/>
		<path fill="#FFFFFF" d="M20.19,31.039c-1.528,0-2.774-1.237-2.774-2.77v-4.462c0-1.528,1.246-2.77,2.774-2.77
			c1.528,0,2.77,1.241,2.77,2.77v4.462C22.959,29.803,21.718,31.039,20.19,31.039 M20.19,44.426c-1.528,0-2.774-1.241-2.774-2.77
			v-4.462c0-1.528,1.246-2.765,2.774-2.765c1.528,0,2.77,1.237,2.77,2.765v4.462C22.959,43.185,21.718,44.426,20.19,44.426"/>
		<path fill="#FFFFFF" d="M20.19,57.815c-1.528,0-2.774-1.241-2.774-2.77v-4.462c0-1.528,1.246-2.774,2.774-2.774
			c1.528,0,2.77,1.246,2.77,2.774v4.462C22.959,56.574,21.718,57.815,20.19,57.815 M20.19,71.202c-1.528,0-2.774-1.237-2.774-2.77
			V63.97c0-1.528,1.246-2.765,2.774-2.765c1.528,0,2.77,1.237,2.77,2.765v4.462C22.959,69.966,21.718,71.202,20.19,71.202
			 M20.19,84.584c-1.528,0-2.774-1.232-2.774-2.76v-4.467c0-1.528,1.246-2.774,2.774-2.774c1.528,0,2.77,1.246,2.77,2.774v4.467
			C22.959,83.352,21.718,84.584,20.19,84.584 M20.19,97.976c-1.528,0-2.774-1.237-2.774-2.77v-4.462c0-1.523,1.246-2.77,2.774-2.77
			c1.528,0,2.77,1.246,2.77,2.77v4.462C22.959,96.739,21.718,97.976,20.19,97.976 M20.19,111.367c-1.528,0-2.774-1.246-2.774-2.77
			v-4.462c0-1.533,1.246-2.765,2.774-2.765c1.528,0,2.77,1.232,2.77,2.765v4.462C22.959,110.121,21.718,111.367,20.19,111.367
			 M20.19,124.75c-1.528,0-2.774-1.241-2.774-2.77v-4.458c0-1.533,1.246-2.774,2.774-2.774c1.528,0,2.77,1.241,2.77,2.774v4.458
			C22.959,123.508,21.718,124.75,20.19,124.75 M20.19,138.132c-1.528,0-2.774-1.232-2.774-2.755v-4.467
			c0-1.533,1.246-2.765,2.774-2.765c1.528,0,2.77,1.232,2.77,2.765v4.467C22.959,136.9,21.718,138.132,20.19,138.132 M20.19,151.523
			c-1.528,0-2.774-1.237-2.774-2.77v-4.458c0-1.523,1.246-2.77,2.774-2.77c1.528,0,2.77,1.246,2.77,2.77v4.458
			C22.959,150.287,21.718,151.523,20.19,151.523 M20.19,164.91c-1.528,0-2.774-1.241-2.774-2.77v-4.462
			c0-1.528,1.246-2.76,2.774-2.76c1.528,0,2.77,1.232,2.77,2.76v4.462C22.959,163.669,21.718,164.91,20.19,164.91"/>
		<path fill="#FFFFFF" d="M20.19,176.148c-1.528,0-2.774-1.241-2.774-2.77v-2.309c0-1.528,1.246-2.77,2.774-2.77
			c1.528,0,2.77,1.241,2.77,2.77v2.309C22.959,174.906,21.718,176.148,20.19,176.148"/>
		<path fill="#263272" d="M205.304,44.426c-1.528,0-2.77-1.241-2.77-2.77v-4.462c0-1.528,1.241-2.765,2.77-2.765
			c1.528,0,2.774,1.237,2.774,2.765v4.462C208.078,43.185,206.832,44.426,205.304,44.426"/>
		<path fill="#FFFFFF" d="M205.304,57.815c-1.528,0-2.77-1.246-2.77-2.779v-4.453c0-1.533,1.241-2.774,2.77-2.774
			c1.528,0,2.774,1.241,2.774,2.774v4.453C208.078,56.569,206.832,57.815,205.304,57.815 M205.304,71.202
			c-1.528,0-2.77-1.237-2.77-2.77V63.97c0-1.528,1.241-2.765,2.77-2.765c1.528,0,2.774,1.237,2.774,2.765v4.462
			C208.078,69.966,206.832,71.202,205.304,71.202 M205.304,84.584c-1.528,0-2.77-1.237-2.77-2.77v-4.458
			c0-1.533,1.241-2.774,2.77-2.774c1.528,0,2.774,1.241,2.774,2.774v4.458C208.078,83.348,206.832,84.584,205.304,84.584
			 M205.304,97.976c-1.528,0-2.77-1.237-2.77-2.77v-4.462c0-1.523,1.241-2.77,2.77-2.77c1.528,0,2.774,1.246,2.774,2.77v4.462
			C208.078,96.739,206.832,97.976,205.304,97.976 M205.304,111.367c-1.528,0-2.77-1.246-2.77-2.77v-4.462
			c0-1.533,1.241-2.77,2.77-2.77c1.528,0,2.774,1.237,2.774,2.77v4.462C208.078,110.121,206.832,111.367,205.304,111.367
			 M205.304,124.75c-1.528,0-2.77-1.241-2.77-2.77v-4.458c0-1.533,1.241-2.774,2.77-2.774c1.528,0,2.774,1.241,2.774,2.774v4.458
			C208.078,123.508,206.832,124.75,205.304,124.75 M205.304,138.132c-1.528,0-2.77-1.232-2.77-2.755v-4.467
			c0-1.533,1.241-2.77,2.77-2.77c1.528,0,2.774,1.237,2.774,2.77v4.467C208.078,136.9,206.832,138.132,205.304,138.132
			 M205.304,151.523c-1.528,0-2.77-1.241-2.77-2.77v-4.462c0-1.519,1.241-2.765,2.77-2.765c1.528,0,2.774,1.246,2.774,2.765v4.462
			C208.078,150.282,206.832,151.523,205.304,151.523 M205.304,164.91c-1.528,0-2.77-1.241-2.77-2.77v-4.462
			c0-1.528,1.241-2.765,2.77-2.765c1.528,0,2.774,1.237,2.774,2.765v4.462C208.078,163.669,206.832,164.91,205.304,164.91"/>
		<path fill="#FFFFFF" d="M205.304,176.148c-1.528,0-2.77-1.241-2.77-2.77v-2.309c0-1.528,1.241-2.77,2.77-2.77
			c1.528,0,2.774,1.241,2.774,2.77v2.309C208.078,174.906,206.832,176.148,205.304,176.148"/>
		<path fill="#263272" d="M267.017,44.426c-1.533,0-2.774-1.241-2.774-2.77v-4.462c0-1.528,1.241-2.765,2.774-2.765
			c1.523,0,2.77,1.237,2.77,2.765v4.462C269.787,43.185,268.541,44.426,267.017,44.426"/>
		<path fill="#FFFFFF" d="M267.017,57.815c-1.533,0-2.774-1.246-2.774-2.779v-4.453c0-1.533,1.241-2.774,2.774-2.774
			c1.523,0,2.77,1.241,2.77,2.774v4.453C269.787,56.569,268.541,57.815,267.017,57.815 M267.017,71.202
			c-1.533,0-2.774-1.237-2.774-2.77V63.97c0-1.528,1.241-2.765,2.774-2.765c1.523,0,2.77,1.237,2.77,2.765v4.462
			C269.787,69.966,268.541,71.202,267.017,71.202 M267.017,84.584c-1.533,0-2.774-1.237-2.774-2.77v-4.458
			c0-1.533,1.241-2.774,2.774-2.774c1.523,0,2.77,1.241,2.77,2.774v4.458C269.787,83.348,268.541,84.584,267.017,84.584
			 M267.017,97.976c-1.533,0-2.774-1.237-2.774-2.77v-4.462c0-1.523,1.241-2.77,2.774-2.77c1.523,0,2.77,1.246,2.77,2.77v4.462
			C269.787,96.739,268.541,97.976,267.017,97.976 M267.017,111.367c-1.533,0-2.774-1.246-2.774-2.77v-4.462
			c0-1.533,1.241-2.77,2.774-2.77c1.523,0,2.77,1.237,2.77,2.77v4.462C269.787,110.121,268.541,111.367,267.017,111.367
			 M267.017,124.75c-1.533,0-2.774-1.241-2.774-2.77v-4.458c0-1.533,1.241-2.774,2.774-2.774c1.523,0,2.77,1.241,2.77,2.774v4.458
			C269.787,123.508,268.541,124.75,267.017,124.75 M267.017,138.132c-1.533,0-2.774-1.232-2.774-2.755v-4.467
			c0-1.533,1.241-2.77,2.774-2.77c1.523,0,2.77,1.237,2.77,2.77v4.467C269.787,136.9,268.541,138.132,267.017,138.132
			 M267.017,151.523c-1.533,0-2.774-1.241-2.774-2.77v-4.462c0-1.519,1.241-2.765,2.774-2.765c1.523,0,2.77,1.246,2.77,2.765v4.462
			C269.787,150.282,268.541,151.523,267.017,151.523 M267.017,164.91c-1.533,0-2.774-1.241-2.774-2.77v-4.462
			c0-1.528,1.241-2.765,2.774-2.765c1.523,0,2.77,1.237,2.77,2.765v4.462C269.787,163.669,268.541,164.91,267.017,164.91"/>
		<path fill="#FFFFFF" d="M267.017,176.148c-1.533,0-2.774-1.241-2.774-2.77v-2.309c0-1.528,1.241-2.77,2.774-2.77
			c1.523,0,2.77,1.241,2.77,2.77v2.309C269.787,174.906,268.541,176.148,267.017,176.148"/>
		<path fill="#FFFFFF" d="M81.895,71.202c-1.523,0-2.77-1.237-2.77-2.77V63.97c0-1.528,1.246-2.765,2.77-2.765
			c1.533,0,2.774,1.237,2.774,2.765v4.462C84.669,69.966,83.427,71.202,81.895,71.202 M81.895,84.584c-1.523,0-2.77-1.232-2.77-2.76
			v-4.467c0-1.528,1.246-2.774,2.77-2.774c1.533,0,2.774,1.246,2.774,2.774v4.467C84.669,83.352,83.427,84.584,81.895,84.584
			 M81.895,97.976c-1.523,0-2.77-1.237-2.77-2.77v-4.462c0-1.523,1.246-2.77,2.77-2.77c1.533,0,2.774,1.246,2.774,2.77v4.462
			C84.669,96.739,83.427,97.976,81.895,97.976 M81.895,111.367c-1.523,0-2.77-1.246-2.77-2.77v-4.462
			c0-1.533,1.246-2.765,2.77-2.765c1.533,0,2.774,1.232,2.774,2.765v4.462C84.669,110.121,83.427,111.367,81.895,111.367
			 M81.895,124.75c-1.523,0-2.77-1.241-2.77-2.77v-4.458c0-1.533,1.246-2.774,2.77-2.774c1.533,0,2.774,1.241,2.774,2.774v4.458
			C84.669,123.508,83.427,124.75,81.895,124.75 M81.895,138.132c-1.523,0-2.77-1.232-2.77-2.755v-4.467
			c0-1.533,1.246-2.765,2.77-2.765c1.533,0,2.774,1.232,2.774,2.765v4.467C84.669,136.9,83.427,138.132,81.895,138.132
			 M81.895,151.523c-1.523,0-2.77-1.237-2.77-2.77v-4.458c0-1.523,1.246-2.77,2.77-2.77c1.533,0,2.774,1.246,2.774,2.77v4.458
			C84.669,150.287,83.427,151.523,81.895,151.523 M81.895,164.91c-1.523,0-2.77-1.241-2.77-2.77v-4.462
			c0-1.528,1.246-2.76,2.77-2.76c1.533,0,2.774,1.232,2.774,2.76v4.462C84.669,163.669,83.427,164.91,81.895,164.91"/>
		<path fill="#FFFFFF" d="M81.895,176.148c-1.523,0-2.77-1.241-2.77-2.77v-2.309c0-1.528,1.246-2.77,2.77-2.77
			c1.533,0,2.774,1.241,2.774,2.77v2.309C84.669,174.906,83.427,176.148,81.895,176.148"/>
		<path fill="#FFFFFF" d="M143.599,71.202c-1.528,0-2.77-1.237-2.77-2.77V63.97c0-1.528,1.241-2.765,2.77-2.765
			c1.533,0,2.77,1.237,2.77,2.765v4.462C146.369,69.966,145.132,71.202,143.599,71.202 M143.599,84.584
			c-1.528,0-2.77-1.237-2.77-2.77v-4.458c0-1.533,1.241-2.774,2.77-2.774c1.533,0,2.77,1.241,2.77,2.774v4.458
			C146.369,83.348,145.132,84.584,143.599,84.584 M143.599,97.976c-1.528,0-2.77-1.237-2.77-2.77v-4.462
			c0-1.523,1.241-2.77,2.77-2.77c1.533,0,2.77,1.246,2.77,2.77v4.462C146.369,96.739,145.132,97.976,143.599,97.976
			 M143.599,111.367c-1.528,0-2.77-1.246-2.77-2.77v-4.462c0-1.533,1.241-2.77,2.77-2.77c1.533,0,2.77,1.237,2.77,2.77v4.462
			C146.369,110.121,145.132,111.367,143.599,111.367 M143.599,124.75c-1.528,0-2.77-1.241-2.77-2.77v-4.458
			c0-1.533,1.241-2.774,2.77-2.774c1.533,0,2.77,1.241,2.77,2.774v4.458C146.369,123.508,145.132,124.75,143.599,124.75
			 M143.599,138.132c-1.528,0-2.77-1.232-2.77-2.755v-4.467c0-1.533,1.241-2.77,2.77-2.77c1.533,0,2.77,1.237,2.77,2.77v4.467
			C146.369,136.9,145.132,138.132,143.599,138.132 M143.599,151.523c-1.528,0-2.77-1.241-2.77-2.77v-4.462
			c0-1.519,1.241-2.765,2.77-2.765c1.533,0,2.77,1.246,2.77,2.765v4.462C146.369,150.282,145.132,151.523,143.599,151.523
			 M143.599,164.91c-1.528,0-2.77-1.241-2.77-2.77v-4.462c0-1.528,1.241-2.765,2.77-2.765c1.533,0,2.77,1.237,2.77,2.765v4.462
			C146.369,163.669,145.132,164.91,143.599,164.91"/>
		<path fill="#FFFFFF" d="M143.599,176.148c-1.528,0-2.77-1.241-2.77-2.77v-2.309c0-1.528,1.241-2.77,2.77-2.77
			c1.533,0,2.77,1.241,2.77,2.77v2.309C146.369,174.906,145.132,176.148,143.599,176.148"/>
		<path fill="#FFFFFF" d="M328.721,71.202c-1.528,0-2.77-1.237-2.77-2.77V63.97c0-1.528,1.241-2.765,2.77-2.765
			c1.528,0,2.774,1.237,2.774,2.765v4.462C331.496,69.966,330.25,71.202,328.721,71.202 M328.721,84.584
			c-1.528,0-2.77-1.237-2.77-2.77v-4.458c0-1.533,1.241-2.774,2.77-2.774c1.528,0,2.774,1.241,2.774,2.774v4.458
			C331.496,83.348,330.25,84.584,328.721,84.584 M328.721,97.976c-1.528,0-2.77-1.237-2.77-2.77v-4.462
			c0-1.523,1.241-2.77,2.77-2.77c1.528,0,2.774,1.246,2.774,2.77v4.462C331.496,96.739,330.25,97.976,328.721,97.976
			 M328.721,111.367c-1.528,0-2.77-1.246-2.77-2.77v-4.462c0-1.533,1.241-2.77,2.77-2.77c1.528,0,2.774,1.237,2.774,2.77v4.462
			C331.496,110.121,330.25,111.367,328.721,111.367 M328.721,124.75c-1.528,0-2.77-1.241-2.77-2.77v-4.458
			c0-1.533,1.241-2.774,2.77-2.774c1.528,0,2.774,1.241,2.774,2.774v4.458C331.496,123.508,330.25,124.75,328.721,124.75
			 M328.721,138.132c-1.528,0-2.77-1.232-2.77-2.755v-4.467c0-1.533,1.241-2.77,2.77-2.77c1.528,0,2.774,1.237,2.774,2.77v4.467
			C331.496,136.9,330.25,138.132,328.721,138.132 M328.721,151.523c-1.528,0-2.77-1.241-2.77-2.77v-4.462
			c0-1.519,1.241-2.765,2.77-2.765c1.528,0,2.774,1.246,2.774,2.765v4.462C331.496,150.282,330.25,151.523,328.721,151.523
			 M328.721,164.91c-1.528,0-2.77-1.241-2.77-2.77v-4.462c0-1.528,1.241-2.765,2.77-2.765c1.528,0,2.774,1.237,2.774,2.765v4.462
			C331.496,163.669,330.25,164.91,328.721,164.91"/>
		<path fill="#FFFFFF" d="M328.721,176.148c-1.528,0-2.77-1.241-2.77-2.77v-2.309c0-1.528,1.241-2.77,2.77-2.77
			c1.528,0,2.774,1.241,2.774,2.77v2.309C331.496,174.906,330.25,176.148,328.721,176.148"/>
		<path fill="#FFFFFF" d="M390.431,84.584c-1.533,0-2.77-1.237-2.77-2.77v-4.458c0-1.533,1.237-2.774,2.77-2.774
			c1.528,0,2.77,1.241,2.77,2.774v4.458C393.2,83.348,391.959,84.584,390.431,84.584 M390.431,97.976c-1.533,0-2.77-1.237-2.77-2.77
			v-4.462c0-1.523,1.237-2.77,2.77-2.77c1.528,0,2.77,1.246,2.77,2.77v4.462C393.2,96.739,391.959,97.976,390.431,97.976
			 M390.431,111.367c-1.533,0-2.77-1.246-2.77-2.77v-4.462c0-1.533,1.237-2.77,2.77-2.77c1.528,0,2.77,1.237,2.77,2.77v4.462
			C393.2,110.121,391.959,111.367,390.431,111.367 M390.431,124.75c-1.533,0-2.77-1.241-2.77-2.77v-4.458
			c0-1.533,1.237-2.774,2.77-2.774c1.528,0,2.77,1.241,2.77,2.774v4.458C393.2,123.508,391.959,124.75,390.431,124.75
			 M390.431,138.132c-1.533,0-2.77-1.232-2.77-2.755v-4.467c0-1.533,1.237-2.77,2.77-2.77c1.528,0,2.77,1.237,2.77,2.77v4.467
			C393.2,136.9,391.959,138.132,390.431,138.132 M390.431,151.523c-1.533,0-2.77-1.241-2.77-2.77v-4.462
			c0-1.519,1.237-2.765,2.77-2.765c1.528,0,2.77,1.246,2.77,2.765v4.462C393.2,150.282,391.959,151.523,390.431,151.523
			 M390.431,164.91c-1.533,0-2.77-1.241-2.77-2.77v-4.462c0-1.528,1.237-2.765,2.77-2.765c1.528,0,2.77,1.237,2.77,2.765v4.462
			C393.2,163.669,391.959,164.91,390.431,164.91"/>
		<path fill="#FFFFFF" d="M390.431,176.148c-1.533,0-2.77-1.241-2.77-2.77v-2.309c0-1.528,1.237-2.77,2.77-2.77
			c1.528,0,2.77,1.241,2.77,2.77v2.309C393.2,174.906,391.959,176.148,390.431,176.148"/>
		<path fill="#FFFFFF" d="M452.14,84.584c-1.533,0-2.77-1.237-2.77-2.77v-4.458c0-1.533,1.237-2.774,2.77-2.774
			c1.528,0,2.77,1.241,2.77,2.774v4.458C454.909,83.348,453.668,84.584,452.14,84.584 M452.14,97.976c-1.533,0-2.77-1.237-2.77-2.77
			v-4.462c0-1.523,1.237-2.77,2.77-2.77c1.528,0,2.77,1.246,2.77,2.77v4.462C454.909,96.739,453.668,97.976,452.14,97.976
			 M452.14,111.367c-1.533,0-2.77-1.246-2.77-2.77v-4.462c0-1.533,1.237-2.77,2.77-2.77c1.528,0,2.77,1.237,2.77,2.77v4.462
			C454.909,110.121,453.668,111.367,452.14,111.367 M452.14,124.75c-1.533,0-2.77-1.241-2.77-2.77v-4.458
			c0-1.533,1.237-2.774,2.77-2.774c1.528,0,2.77,1.241,2.77,2.774v4.458C454.909,123.508,453.668,124.75,452.14,124.75
			 M452.14,138.132c-1.533,0-2.77-1.232-2.77-2.755v-4.467c0-1.533,1.237-2.77,2.77-2.77c1.528,0,2.77,1.237,2.77,2.77v4.467
			C454.909,136.9,453.668,138.132,452.14,138.132 M452.14,151.523c-1.533,0-2.77-1.241-2.77-2.77v-4.462
			c0-1.519,1.237-2.765,2.77-2.765c1.528,0,2.77,1.246,2.77,2.765v4.462C454.909,150.282,453.668,151.523,452.14,151.523
			 M452.14,164.91c-1.533,0-2.77-1.241-2.77-2.77v-4.462c0-1.528,1.237-2.765,2.77-2.765c1.528,0,2.77,1.237,2.77,2.765v4.462
			C454.909,163.669,453.668,164.91,452.14,164.91"/>
		<path fill="#FFFFFF" d="M452.14,176.148c-1.533,0-2.77-1.241-2.77-2.77v-2.309c0-1.528,1.237-2.77,2.77-2.77
			c1.528,0,2.77,1.241,2.77,2.77v2.309C454.909,174.906,453.668,176.148,452.14,176.148"/>
		<path fill="#FFFFFF" d="M513.849,84.584c-1.533,0-2.774-1.237-2.774-2.77v-4.458c0-1.533,1.241-2.774,2.774-2.774
			c1.523,0,2.77,1.241,2.77,2.774v4.458C516.618,83.348,515.372,84.584,513.849,84.584 M513.849,97.976
			c-1.533,0-2.774-1.241-2.774-2.77v-4.467c0-1.528,1.241-2.765,2.774-2.765c1.523,0,2.77,1.237,2.77,2.765v4.467
			C516.618,96.735,515.372,97.976,513.849,97.976 M513.849,111.367c-1.533,0-2.774-1.246-2.774-2.779v-4.453
			c0-1.533,1.241-2.77,2.774-2.77c1.523,0,2.77,1.237,2.77,2.77v4.453C516.618,110.121,515.372,111.367,513.849,111.367
			 M513.849,124.745c-1.533,0-2.774-1.237-2.774-2.765v-4.462c0-1.528,1.241-2.77,2.774-2.77c1.523,0,2.77,1.241,2.77,2.77v4.462
			C516.618,123.508,515.372,124.745,513.849,124.745 M513.849,138.132c-1.533,0-2.774-1.232-2.774-2.765v-4.458
			c0-1.533,1.241-2.77,2.774-2.77c1.523,0,2.77,1.237,2.77,2.77v4.458C516.618,136.9,515.372,138.132,513.849,138.132
			 M513.849,151.523c-1.533,0-2.774-1.241-2.774-2.77v-4.462c0-1.519,1.241-2.765,2.774-2.765c1.523,0,2.77,1.246,2.77,2.765v4.462
			C516.618,150.282,515.372,151.523,513.849,151.523 M513.849,164.91c-1.533,0-2.774-1.241-2.774-2.77v-4.462
			c0-1.528,1.241-2.765,2.774-2.765c1.523,0,2.77,1.237,2.77,2.765v4.462C516.618,163.669,515.372,164.91,513.849,164.91"/>
		<path fill="#FFFFFF" d="M513.849,176.144c-1.533,0-2.774-1.237-2.774-2.765v-2.309c0-1.528,1.241-2.77,2.774-2.77
			c1.523,0,2.77,1.241,2.77,2.77v2.309C516.618,174.908,515.372,176.144,513.849,176.144"/>
		<path fill="#FFFFFF" d="M575.554,84.584c-1.528,0-2.765-1.237-2.765-2.77v-4.458c0-1.533,1.237-2.774,2.765-2.774
			c1.528,0,2.774,1.241,2.774,2.774v4.458C578.328,83.348,577.082,84.584,575.554,84.584 M575.554,97.976
			c-1.528,0-2.765-1.241-2.765-2.77v-4.467c0-1.528,1.237-2.765,2.765-2.765c1.528,0,2.774,1.237,2.774,2.765v4.467
			C578.328,96.735,577.082,97.976,575.554,97.976 M575.554,111.367c-1.528,0-2.765-1.246-2.765-2.779v-4.453
			c0-1.533,1.237-2.77,2.765-2.77c1.528,0,2.774,1.237,2.774,2.77v4.453C578.328,110.121,577.082,111.367,575.554,111.367
			 M575.554,124.745c-1.528,0-2.765-1.237-2.765-2.765v-4.462c0-1.528,1.237-2.77,2.765-2.77c1.528,0,2.774,1.241,2.774,2.77v4.462
			C578.328,123.508,577.082,124.745,575.554,124.745 M575.554,138.132c-1.528,0-2.765-1.232-2.765-2.765v-4.458
			c0-1.533,1.237-2.77,2.765-2.77c1.528,0,2.774,1.237,2.774,2.77v4.458C578.328,136.9,577.082,138.132,575.554,138.132
			 M575.554,151.523c-1.528,0-2.765-1.241-2.765-2.77v-4.462c0-1.519,1.237-2.765,2.765-2.765c1.528,0,2.774,1.246,2.774,2.765
			v4.462C578.328,150.282,577.082,151.523,575.554,151.523 M575.554,164.91c-1.528,0-2.765-1.241-2.765-2.77v-4.462
			c0-1.528,1.237-2.765,2.765-2.765c1.528,0,2.774,1.237,2.774,2.765v4.462C578.328,163.669,577.082,164.91,575.554,164.91"/>
		<path fill="#FFFFFF" d="M575.554,176.144c-1.528,0-2.765-1.237-2.765-2.765v-2.309c0-1.528,1.237-2.77,2.765-2.77
			c1.528,0,2.774,1.241,2.774,2.77v2.309C578.328,174.908,577.082,176.144,575.554,176.144"/>
		<path fill="#009ABF" d="M588.844,85.144c0,7.34-5.948,13.293-13.293,13.293c-7.335,0-13.288-5.953-13.288-13.293
			c0-7.34,5.953-13.293,13.288-13.293C582.896,71.852,588.844,77.804,588.844,85.144"/>
		<path fill="#009ABF" d="M527.135,57.932c0,7.331-5.948,13.288-13.288,13.288c-7.34,0-13.293-5.958-13.293-13.288
			c0-7.345,5.953-13.288,13.293-13.288C521.187,44.644,527.135,50.587,527.135,57.932"/>
		<path fill="#009ABF" d="M33.48,17.65c0,7.34-5.953,13.288-13.293,13.288S6.899,24.99,6.899,17.65
			c0-7.34,5.948-13.293,13.288-13.293S33.48,10.31,33.48,17.65"/>
		<path fill="#009ABF" d="M95.189,58.021c0,7.34-5.958,13.288-13.293,13.288c-7.34,0-13.288-5.948-13.288-13.288
			c0-7.34,5.948-13.288,13.288-13.288C89.232,44.733,95.189,50.681,95.189,58.021"/>
		<path fill="#009ABF" d="M156.712,58.025c0,7.34-5.953,13.293-13.293,13.293c-7.335,0-13.288-5.953-13.288-13.293
			c0-7.34,5.953-13.288,13.288-13.288C150.76,44.737,156.712,50.685,156.712,58.025"/>
		<path fill="#009ABF" d="M218.595,44.65c0,7.331-5.953,13.283-13.293,13.283c-7.335,0-13.288-5.953-13.288-13.283
			c0-7.34,5.953-13.293,13.288-13.293C212.642,31.357,218.595,37.31,218.595,44.65"/>
		<path fill="#009ABF" d="M280.304,44.65c0,7.331-5.948,13.283-13.288,13.283s-13.293-5.953-13.293-13.283
			c0-7.34,5.953-13.293,13.293-13.293S280.304,37.31,280.304,44.65"/>
		<path fill="#009ABF" d="M342.012,61.204c0,7.34-5.953,13.288-13.293,13.288c-7.335,0-13.288-5.948-13.288-13.288
			c0-7.345,5.953-13.288,13.288-13.288C336.059,47.916,342.012,53.859,342.012,61.204"/>
		<path fill="#009ABF" d="M403.722,85.14c0,7.34-5.953,13.293-13.293,13.293c-7.335,0-13.288-5.953-13.288-13.293
			c0-7.34,5.953-13.288,13.288-13.288C397.769,71.852,403.722,77.8,403.722,85.14"/>
		<path fill="#009ABF" d="M465.43,85.14c0,7.34-5.953,13.293-13.293,13.293c-7.335,0-13.293-5.953-13.293-13.293
			c0-7.34,5.958-13.288,13.293-13.288C459.478,71.852,465.43,77.8,465.43,85.14"/>
		<path fill="#FFFFFF" d="M44.957,222.062c-2.168-4.161-5.633-6.592-11.097-6.592c-9.103,0-14.308,7.975-14.308,19.246
			c0,10.928,5.29,19.25,14.398,19.25c5.464,0,8.671-2.337,11.877-7.711l10.227,6.066c-4.161,8.586-11.445,13.697-22.452,13.697
			c-15.87,0-26.534-12.131-26.534-31.302c0-18.465,11.097-31.297,26.971-31.297c11.44,0,18.376,5.553,22.194,13.443L44.957,222.062z
			"/>
		<path fill="#FFFFFF" d="M91.166,215.471c-9.799,0-13.871,8.412-13.871,19.246c0,10.838,4.072,19.25,13.871,19.25
			s13.871-8.412,13.871-19.25C105.037,223.883,100.965,215.471,91.166,215.471 M91.166,266.019
			c-16.561,0-26.355-12.832-26.355-31.302c0-18.465,9.794-31.297,26.355-31.297s26.355,12.832,26.355,31.297
			C117.521,253.187,107.726,266.019,91.166,266.019"/>
		<path fill="#FFFFFF" d="M176.295,265.066v-22.283c0-3.296,0.174-11.012,0.174-13.354c-0.87,2.257-2.69,6.592-4.251,10.058
			l-12.31,26.966l-12.315-26.966c-1.556-3.465-3.381-7.801-4.246-10.058c0,2.342,0.174,10.058,0.174,13.354v22.283h-11.877v-60.695
			h11.704l12.658,27.484c1.561,3.381,3.381,7.979,4.161,10.147c0.785-2.252,2.516-6.677,4.077-10.147l12.225-27.484h11.967v60.695
			H176.295z"/>
	</g>
	<polygon fill="#FFFFFF" points="217.898,216.25 217.898,227.695 236.194,227.695 236.194,239.488 217.898,239.488 217.898,265.067 
		205.757,265.067 205.757,204.372 249.2,204.372 249.2,216.25 	"/>
	<g>
		<path fill="#FFFFFF" d="M281.881,215.471c-9.799,0-13.876,8.412-13.876,19.246c0,10.838,4.077,19.25,13.876,19.25
			c9.794,0,13.876-8.412,13.876-19.25C295.756,223.883,291.675,215.471,281.881,215.471 M281.881,266.019
			c-16.561,0-26.36-12.832-26.36-31.302c0-18.465,9.799-31.297,26.36-31.297c16.556,0,26.355,12.832,26.355,31.297
			C308.236,253.187,298.437,266.019,281.881,266.019"/>
		<path fill="#FFFFFF" d="M350.363,216.164h-15.87v15.606h15.87c5.633,0,8.671-2.605,8.671-7.89
			C359.033,218.417,355.737,216.164,350.363,216.164 M357.557,265.066l-10.838-21.851h-12.225v21.851h-12.141v-60.695h28.269
			c11.445,0,20.896,6.329,20.896,19.25c0,9.103-3.898,14.826-11.619,17.859l11.619,23.586H357.557z"/>
	</g>
	<polygon fill="#9D9D9C" points="409.048,213.304 409.048,265.065 399.94,265.065 399.94,213.304 382.256,213.304 382.256,204.375 
		426.733,204.375 426.733,213.304 	"/>
	<polygon fill="#9D9D9C" points="440.421,265.066 440.421,204.371 479.524,204.371 479.524,213.216 449.52,213.216 449.52,228.216 
		466.951,228.216 466.951,237.06 449.52,237.06 449.52,256.226 480.827,256.226 480.827,265.066 	"/>
	<g>
		<path fill="#9D9D9C" d="M512.382,266.019c-8.84,0-16.476-3.813-21.592-9.794l6.503-6.334c4.081,4.425,10.058,7.199,15.78,7.199
			c8.497,0,12.573-2.948,12.573-8.845c0-4.683-3.555-7.02-13.702-10.058c-12.832-3.813-18.987-7.02-18.987-17.863
			c0-10.49,8.845-16.904,20.031-16.904c8.238,0,14.478,3.038,19.857,8.238l-6.414,6.503c-3.818-3.903-8.153-5.812-14.139-5.812
			c-7.11,0-10.142,3.47-10.142,7.547c0,4.246,2.774,6.324,13.265,9.447c11.962,3.644,19.42,7.458,19.42,18.296
			C534.834,258.566,527.903,266.019,512.382,266.019"/>
	</g>
	<polygon fill="#9D9D9C" points="570.993,213.304 570.993,265.065 561.885,265.065 561.885,213.304 544.2,213.304 544.2,204.375 
		588.677,204.375 588.677,213.304 	"/>
	<g>
		<path fill="#FFFFFF" d="M590.798,296.41H4.945c-1.434,0-2.6-1.166-2.6-2.596c0-1.439,1.166-2.6,2.6-2.6h585.852
			c1.434,0,2.6,1.161,2.6,2.6C593.398,295.244,592.232,296.41,590.798,296.41"/>
		<path fill="#C6C6C6" d="M21.089,344.434c-0.691-2.039-1.833-5.344-2.162-6.569c-0.329,1.225-1.348,4.489-2.08,6.61l-2.286,6.528
			h8.814L21.089,344.434z M27.091,361.626l-2.409-6.783H13.254l-2.376,6.783H6.43l10.285-28.578h4.538l10.409,28.578H27.091z"/>
		<path fill="#C6C6C6" d="M48.992,346.432c-0.937-1.258-2.902-2.812-5.023-2.812c-3.026,0-4.653,2.286-4.653,6.824
			c0,5.377,1.718,7.745,4.818,7.745c1.998,0,3.757-1.348,4.859-2.73V346.432z M48.95,361.626v-2.039
			c-1.554,1.422-3.346,2.483-5.591,2.483c-4.612,0-8.246-3.346-8.246-11.51c0-7.342,3.996-10.82,8.444-10.82
			c2.171,0,4.209,1.151,5.393,2.458v-8.172l4.168-2.162v29.762H48.95z"/>
		<path fill="#C6C6C6" d="M78.672,343.745c-3.19,0-5.147,2.82-5.147,7.062c0,4.695,2.17,7.268,5.352,7.268
			c3.19,0,5.27-3.231,5.27-7.145C84.148,346.565,82.068,343.745,78.672,343.745 M78.713,362.071c-5.385,0-9.43-4.448-9.43-11.14
			c0-7.021,4.16-11.19,9.554-11.19c5.467,0,9.553,4.366,9.553,11.066C88.39,357.911,84.222,362.071,78.713,362.071"/>
		<path fill="#C6C6C6" d="M106.495,346.434c-0.945-1.258-2.902-2.812-5.023-2.812c-3.026,0-4.653,2.286-4.653,6.816
			c0,5.385,1.718,7.753,4.818,7.753c1.998,0,3.757-1.348,4.859-2.73V346.434z M100.493,369.504l-1.431-3.19
			c6.043-0.28,7.35-1.907,7.35-6.363v-0.362c-1.554,1.422-3.305,2.483-5.55,2.483c-4.579,0-8.246-3.346-8.246-11.51
			c0-7.35,4.037-10.82,8.444-10.82c2.162,0,4.201,1.151,5.352,2.45v-2.006h4.209v19.403
			C110.622,366.116,108.246,369.257,100.493,369.504"/>
		<path fill="#C6C6C6" d="M129.818,361.626v-12.127c0-4.325-1.636-5.878-4.407-5.878c-2.82,0-4.415,1.998-4.415,5.476v12.53h-4.193
			v-21.434h4.193v2.047c1.069-1.554,3.19-2.499,5.393-2.499c4.982,0,7.638,3.272,7.638,9.595v12.291H129.818z"/>
		<path fill="#C6C6C6" d="M140.244,340.185h4.209v21.434h-4.209V340.185z M142.373,337.415c-1.513,0-2.738-1.225-2.738-2.688
			c0-1.513,1.225-2.746,2.738-2.746c1.463,0,2.688,1.233,2.688,2.746C145.062,336.19,143.837,337.415,142.373,337.415"/>
		<path fill="#C6C6C6" d="M168.805,362.071c-2.902,0-6.043-1.135-8.205-2.73l1.907-3.19c2.014,1.389,4.259,2.129,6.257,2.129
			c2.656,0,3.922-0.863,3.922-2.368c0-1.636-1.883-2.409-4.99-3.601c-4.612-1.792-6.281-3.346-6.281-6.733
			c0-3.839,3.017-5.837,7.309-5.837c2.697,0,5.352,0.978,7.268,2.368l-1.842,3.223c-1.751-1.225-3.511-1.833-5.55-1.833
			c-2.039,0-2.943,0.814-2.943,1.965c0,1.061,0.732,1.833,3.963,3.1c4.777,1.842,7.227,3.149,7.227,7.186
			C176.846,360.485,173.014,362.071,168.805,362.071"/>
		<path fill="#C6C6C6" d="M190.169,343.745c-3.182,0-5.147,2.82-5.147,7.062c0,4.695,2.171,7.268,5.352,7.268
			c3.19,0,5.27-3.231,5.27-7.145C195.645,346.565,193.565,343.745,190.169,343.745 M190.211,362.071c-5.385,0-9.43-4.448-9.43-11.14
			c0-7.021,4.168-11.19,9.554-11.19c5.467,0,9.553,4.366,9.553,11.066C199.887,357.911,195.727,362.071,190.211,362.071"/>
		<path fill="#C6C6C6" d="M218.07,361.626v-12.127c0-4.325-1.636-5.878-4.407-5.878c-2.82,0-4.415,1.998-4.415,5.476v12.53h-4.193
			v-21.434h4.193v2.047c1.069-1.554,3.19-2.499,5.393-2.499c4.982,0,7.638,3.272,7.638,9.595v12.291H218.07z"/>
		<path fill="#C6C6C6" d="M241.315,361.626v-12.127c0-4.325-1.636-5.878-4.407-5.878c-2.82,0-4.415,1.998-4.415,5.476v12.53H228.3
			v-21.434h4.193v2.047c1.069-1.554,3.19-2.499,5.393-2.499c4.982,0,7.638,3.272,7.638,9.595v12.291H241.315z"/>
		<path fill="#C6C6C6" d="M259.907,343.745c-3.182,0-5.147,2.82-5.147,7.062c0,4.695,2.171,7.268,5.352,7.268
			c3.19,0,5.27-3.231,5.27-7.145C265.382,346.565,263.302,343.745,259.907,343.745 M259.948,362.071c-5.385,0-9.43-4.448-9.43-11.14
			c0-7.021,4.16-11.19,9.562-11.19c5.459,0,9.545,4.366,9.545,11.066C269.625,357.911,265.465,362.071,259.948,362.071"/>
		<path fill="#C6C6C6" d="M285.995,340.185h4.209v21.434h-4.209V340.185z M288.125,337.415c-1.513,0-2.738-1.225-2.738-2.688
			c0-1.513,1.225-2.746,2.738-2.746c1.463,0,2.697,1.233,2.697,2.746C290.822,336.19,289.588,337.415,288.125,337.415"/>
	</g>
	<polygon fill="#C6C6C6" points="296.818,334.07 296.818,361.629 301.019,361.629 301.019,331.867 	"/>
	<g>
		<path fill="#C6C6C6" d="M325.369,362.071c-2.902,0-6.043-1.135-8.205-2.73l1.916-3.19c2.006,1.389,4.242,2.129,6.248,2.129
			c2.656,0,3.922-0.863,3.922-2.368c0-1.636-1.883-2.409-4.99-3.601c-4.612-1.792-6.281-3.346-6.281-6.733
			c0-3.839,3.017-5.837,7.301-5.837c2.705,0,5.352,0.978,7.276,2.368l-1.842,3.223c-1.751-1.225-3.511-1.833-5.55-1.833
			s-2.943,0.814-2.943,1.965c0,1.061,0.732,1.833,3.963,3.1c4.777,1.842,7.227,3.149,7.227,7.186
			C333.409,360.485,329.578,362.071,325.369,362.071"/>
		<path fill="#C6C6C6" d="M351.65,361.626v-2.039c-1.061,1.554-3.19,2.483-5.393,2.483c-4.982,0-7.63-3.264-7.63-9.586v-12.291
			h4.201v12.119c0,4.333,1.636,5.878,4.407,5.878c2.82,0,4.415-1.998,4.415-5.459v-12.538h4.209v21.434H351.65z"/>
		<path fill="#C6C6C6" d="M370.402,343.745c-3.182,0-5.147,2.82-5.147,7.062c0,4.695,2.171,7.268,5.352,7.268
			c3.19,0,5.27-3.231,5.27-7.145C375.877,346.565,373.797,343.745,370.402,343.745 M370.443,362.071c-5.385,0-9.43-4.448-9.43-11.14
			c0-7.021,4.16-11.19,9.554-11.19c5.467,0,9.553,4.366,9.553,11.066C380.12,357.911,375.951,362.071,370.443,362.071"/>
		<path fill="#C6C6C6" d="M421.196,361.626v-12.127c0-4.325-1.348-5.878-4.127-5.878c-2.82,0-4.127,1.998-4.127,5.476v12.53h-4.193
			v-12.127c0-4.325-1.348-5.878-4.127-5.878c-2.82,0-4.127,1.998-4.127,5.476v12.53h-4.201v-21.434h4.201v2.047
			c1.069-1.554,2.894-2.499,5.106-2.499c2.902,0,4.727,1.102,5.878,3.149c1.554-1.916,3.223-3.149,6.569-3.149
			c4.982,0,7.358,3.272,7.358,9.595v12.291H421.196z"/>
		<path fill="#C6C6C6" d="M443.694,352.483c-1.143-0.576-2.614-0.945-4.9-0.945c-2.689,0-4.407,1.225-4.407,3.19
			c0,2.113,1.348,3.552,4.119,3.552c2.245,0,4.209-1.398,5.188-2.738V352.483z M443.694,361.626v-2.129
			c-1.463,1.472-3.552,2.573-5.878,2.573c-3.478,0-7.432-1.957-7.432-7.227c0-4.769,3.675-6.939,8.534-6.939
			c2.006,0,3.601,0.288,4.777,0.822v-1.595c0-2.318-1.422-3.626-4.037-3.626c-2.212,0-3.922,0.403-5.599,1.34l-1.628-3.182
			c2.039-1.266,4.325-1.924,7.342-1.924c4.785,0,8.049,2.327,8.049,7.186v14.7H443.694z"/>
		<path fill="#C6C6C6" d="M464.088,361.091c-1.02,0.576-2.458,0.978-4.127,0.978c-2.976,0-4.81-1.833-4.81-5.673v-12.365h-3.067
			v-3.839h3.067v-6.125l4.119-2.203v8.328h5.303v3.839h-5.303v11.634c0,1.998,0.65,2.573,2.203,2.573c1.102,0,2.327-0.411,3.1-0.863
			L464.088,361.091z"/>
		<path fill="#C6C6C6" d="M477.536,343.546c-2.812,0-4.538,1.957-4.9,5.377h9.965C482.395,345.987,481.005,343.546,477.536,343.546
			 M486.719,352.4h-14.166c0.444,4.119,2.779,5.878,5.393,5.878c1.792,0,3.223-0.658,4.653-1.71l2.483,2.688
			c-1.866,1.792-4.119,2.812-7.383,2.812c-5.023,0-9.274-4.037-9.274-11.14c0-7.268,3.84-11.19,9.397-11.19
			c6.084,0,9.027,4.941,9.027,10.737C486.851,351.249,486.76,351.948,486.719,352.4"/>
		<path fill="#C6C6C6" d="M503.68,344.641c-0.896-0.485-1.833-0.773-3.223-0.773c-2.656,0-4.209,1.875-4.209,5.517v12.242h-4.201
			v-21.442h4.201v2.055c0.978-1.439,2.779-2.499,4.9-2.499c1.718,0,2.779,0.329,3.634,0.904L503.68,344.641z"/>
		<path fill="#C6C6C6" d="M519.955,352.483c-1.143-0.576-2.614-0.945-4.9-0.945c-2.688,0-4.407,1.225-4.407,3.19
			c0,2.113,1.348,3.552,4.119,3.552c2.245,0,4.209-1.398,5.188-2.738V352.483z M519.955,361.626v-2.129
			c-1.463,1.472-3.552,2.573-5.878,2.573c-3.469,0-7.432-1.957-7.432-7.227c0-4.769,3.683-6.939,8.542-6.939
			c1.998,0,3.585,0.288,4.769,0.822v-1.595c0-2.318-1.422-3.626-4.037-3.626c-2.212,0-3.922,0.403-5.591,1.34l-1.636-3.182
			c2.039-1.266,4.325-1.924,7.342-1.924c4.785,0,8.049,2.327,8.049,7.186v14.7H519.955z"/>
		<path fill="#C6C6C6" d="M537.043,362.071c-2.902,0-6.043-1.135-8.205-2.73l1.907-3.19c2.014,1.389,4.259,2.129,6.257,2.129
			c2.656,0,3.922-0.863,3.922-2.368c0-1.636-1.883-2.409-4.99-3.601c-4.612-1.792-6.281-3.346-6.281-6.733
			c0-3.839,3.017-5.837,7.309-5.837c2.697,0,5.352,0.978,7.268,2.368l-1.842,3.223c-1.751-1.225-3.511-1.833-5.55-1.833
			c-2.039,0-2.943,0.814-2.943,1.965c0,1.061,0.732,1.833,3.963,3.1c4.777,1.842,7.227,3.149,7.227,7.186
			C545.083,360.485,541.252,362.071,537.043,362.071"/>
		<path fill="#C6C6C6" d="M556.991,362.071c-2.902,0-6.043-1.135-8.205-2.73l1.916-3.19c2.006,1.389,4.251,2.129,6.248,2.129
			c2.656,0,3.922-0.863,3.922-2.368c0-1.636-1.883-2.409-4.99-3.601c-4.612-1.792-6.281-3.346-6.281-6.733
			c0-3.839,3.017-5.837,7.309-5.837c2.697,0,5.352,0.978,7.268,2.368l-1.842,3.223c-1.751-1.225-3.511-1.833-5.55-1.833
			c-2.039,0-2.943,0.814-2.943,1.965c0,1.061,0.732,1.833,3.963,3.1c4.777,1.842,7.227,3.149,7.227,7.186
			C565.031,360.485,561.2,362.071,556.991,362.071"/>
		<path fill="#C6C6C6" d="M578.363,343.745c-3.182,0-5.147,2.82-5.147,7.062c0,4.695,2.17,7.268,5.352,7.268s5.27-3.231,5.27-7.145
			C583.838,346.565,581.75,343.745,578.363,343.745 M578.404,362.071c-5.385,0-9.43-4.448-9.43-11.14
			c0-7.021,4.168-11.19,9.562-11.19c5.459,0,9.545,4.366,9.545,11.066C588.081,357.911,583.921,362.071,578.404,362.071"/>
	</g>
</g>
</svg>
