<?xml version="1.0" encoding="utf-8"?>
<!-- Generator: Adobe Illustrator 17.0.0, SVG Export Plug-In . SVG Version: 6.00 Build 0)  -->
<!DOCTYPE svg PUBLIC "-//W3C//DTD SVG 1.1//EN" "http://www.w3.org/Graphics/SVG/1.1/DTD/svg11.dtd">
<svg version="1.1" id="Livello_1" xmlns="http://www.w3.org/2000/svg" xmlns:xlink="http://www.w3.org/1999/xlink" x="0px" y="0px"
	 width="288.297px" height="247.685px" viewBox="0 0 288.297 247.685" enable-background="new 0 0 288.297 247.685"
	 xml:space="preserve">
<g>
	<g>
		<defs>
			<rect id="SVGID_1_" x="0" y="0" width="288.297" height="247.684"/>
		</defs>
		<clipPath id="SVGID_2_">
			<use xlink:href="#SVGID_1_"  overflow="visible"/>
		</clipPath>
		<g clip-path="url(#SVGID_2_)">
			<path fill="#FFFFFF" d="M144.149,5.036C73.614,6.287,22.665,26.927,22.665,26.927v102.956
				c12.284,77.559,121.485,112.513,121.485,112.513s109.2-34.954,121.485-112.513V26.927
				C265.634,26.927,214.685,6.287,144.149,5.036"/>
		</g>
		<g clip-path="url(#SVGID_2_)">
			<path fill="#004070" d="M144.149,5.036C73.614,6.287,22.665,26.927,22.665,26.927v102.956
				c12.284,77.559,121.485,112.513,121.485,112.513s109.2-34.954,121.485-112.513V26.927
				C265.634,26.927,214.685,6.287,144.149,5.036z"/>
			<path fill="#FFFFFF" d="M144.15,247.686l-1.536-0.492c-1.14-0.364-28.259-9.151-57.313-27.725
				c-38.978-24.917-62.357-55.622-67.611-88.798l-0.062-0.392V23.533l3.146-1.274C22.889,21.401,73.402,1.253,144.06,0l0.089-0.002
				L144.239,0c70.658,1.252,121.17,21.401,123.287,22.258l3.146,1.274V130.28l-0.062,0.392
				c-5.254,33.176-28.634,63.881-67.61,88.798c-29.054,18.573-56.173,27.36-57.313,27.725L144.15,247.686z M27.702,129.481
				c11.176,68.485,103.348,103.021,116.446,107.596c13.09-4.581,105.285-39.184,116.449-107.596V30.417
				c-12.054-4.349-57.558-19.284-116.447-20.342c-58.981,1.06-104.405,15.988-116.448,20.34V129.481z"/>
		</g>
		<g clip-path="url(#SVGID_2_)">
			<path fill="#FFFFFF" d="M84.937,70.397c-3.243,0-5.9,4.486-5.9,10.091c0,5.564,2.657,10.045,5.9,10.045
				c3.26,0,5.912-4.482,5.912-10.045C90.85,74.883,88.197,70.397,84.937,70.397 M84.937,68.622c7.507,0,13.592,5.375,13.592,11.866
				c0,6.45-6.085,11.825-13.592,11.825c-7.499,0-13.576-5.375-13.576-11.825C71.361,73.997,77.438,68.622,84.937,68.622
				 M57.708,85.096c0,1.062-0.586,5.232,4.789,5.027c3.473-0.148,7.233-3.551,8.541-7.159l0.636,0.185l-1.119,8.861H45.358
				c-0.525,0-0.439-0.927,0.012-0.927c3.317,0,4.244-1.849,4.244-5.461V53.972c0-2.202-0.525-3.67-3.301-3.67
				c-0.603-0.295-0.603-1.005,0-1.308H61.25c0.652,0.246,0.652,1.013,0,1.308c-3.19,0-3.543,3.251-3.543,3.67V85.096z
				 M107.033,75.178V69.45l-10.455,0.353l0.062,1.058c1.89,0.185,3.243,1.074,3.243,3.137v12.694c0,1.89-0.455,4.551-3.239,4.199
				c0,0-0.619,0.033-0.619,0.754s0.619,0.365,0.619,0.365h13.818c0,0,0.828,0.357,0.828-0.484c0-0.853-0.828-0.636-0.828-0.636
				c-2.776,0-3.428-2.768-3.428-4.719v-7.446c0-1.894,1.948-2.948,3.719-2.948c2.846,0,3.78,1.287,5.498,2.12l1.41-7.384
				c-0.521-0.648-2.472-1.185-3.895-1.185C110.58,69.327,108.571,73.116,107.033,75.178 M135.029,74.112
				c-4.728-5.556-10.521-1.771-10.521,6.15c0,4.605,2.263,9.447,7.097,9.91c0.832,0,3.424-0.697,3.424-2.116
				C135.029,83.1,134.91,79.2,135.029,74.112 M135.029,54.152c0-2.366-1.533-3.424-2.944-3.547
				c-1.427-0.709-0.357-1.062,0.107-1.062c3.44,0,6.737-0.123,10.041-0.599v37.693c0,1.894,0.361,4.137,3.67,4.137
				c2.128-0.472,2.128-2.96,2.128-3.543V72.46h-2.723v-1.415c0.832,0.476,2.723-1.066,2.723-2.009v-9.094
				c0-6.741,4.723-10.997,11.337-10.997c3.079,0,5.556,0.476,8.393,1.784l-4.379,5.437c-0.701,0-0.828-1.665-0.935-2.136
				c-0.705-2.12-1.427-3.301-3.547-3.301c-3.661,0-3.313,4.728-3.313,5.543v14.539h4.137c0,0,0.836,0.045,0.836,0.886
				c0,0.722-0.836,0.763-0.836,0.763h-4.137v14.773c0,1.656,1.189,3.657,3.19,3.657h0.057c3.075,0,3.67-1.956,3.67-3.489V62.119
				c0-2.3-0.467-2.948-2.485-3.653c-0.537-0.303-0.767-0.48-0.23-0.89c3.481,0,6.966-0.537,10.333-0.537v30.194
				c0,1.472-0.062,3.604,2.718,3.657l0.459,0.513l-0.459,0.607h-14.125V91.96h-4.195h-4.133h-2.124h-3.186h-13.35
				c-6.142,0-14.42-2.251-14.42-10.87c0-6.269,3.776-11.587,10.997-11.587c2.12,0,4.961,0.476,6.724,1.771V54.152z M178.864,77.478
				c-0.123-1.119,0.537-6.314,4.059-6.257c3.436,0,4.318,4.08,4.318,6.257H178.864z M194.806,84.637l-0.48-0.328l-0.59,0.328
				c-2.062,2.887-3.842,4.19-7.622,4.19c-4.777-0.057-7.417-5.027-7.417-9.754h16.11c0-5.314-5.556-9.791-11.698-9.791
				c-6.487,0-11.927,5.371-11.858,11.624c0.053,6.208,4.244,11.407,11.673,11.407C188.131,92.313,192.858,89.352,194.806,84.637
				 M211.695,71.955c-0.361-0.566-0.746-0.623-1.423-0.681c-0.48,0-0.554-1.058,0-1.058h10.398c0.463,0,0.5,1.058,0,1.058
				c-4.129,0.168-8.504,5.732-10.689,7.926c2.013,3.235,7.63,11.882,11.034,11.882c0.5,0,0.549,0.927,0,0.927h-14.752
				c-0.48,0-0.533-0.927,0-0.927c0.709,0,1.554,0,1.894-1.07c0.349-1.078-2.546-4.67-3.961-6.556
				c-1.767,1.64-4.428,3.895-4.904,6.019c0,1.181,1.308,1.595,2.472,1.595c0.578,0.012,0.578,0.951,0,0.939h-10.796
				c-0.459,0.012-0.414-0.927,0-0.927c4.133,0,9.795-6.511,12.165-8.873c-1.829-2.304-7.799-10.935-11.161-10.935
				c-0.521-0.012-0.533-1.058,0.012-1.058h14.974c0.644,0,0.554,1.058,0.012,1.058c-0.488,0.012-1.595,0.123-1.722,0.541
				c-0.406,1.3,2.079,4.129,3.551,5.908C209.862,76.859,212.662,73.522,211.695,71.955 M221.744,61.541
				c-2.78-0.066-4.441,1.533-4.609,4.129c-0.066,1.656,1.587,3.424,3.014,3.612c0,0,1.89,0.107,2.12,1.406
				c0.185,2.661-1.415,6.208-5.962,6.683c-0.484,0.02-0.496,0.754,0,0.767c7.557-0.119,11.169-4.728,11.214-10.456
				C227.583,64.718,225.525,61.541,221.744,61.541 M226.23,84.572c0.061-0.533,1.123-0.595,1.353,0.525
				c0.701,2.903,3.317,6.2,7.216,6.331c1.767,0,3.116-1.353,3.116-2.952c0-2.304-3.178-3.424-5.314-4.547
				c-3.538-1.369-7.196-3.44-7.02-7.446c0-3.547,3.887-6.679,8.147-6.618c1.484,0,4.49,0.648,4.908,0.824
				c0.709,0.238,2.185,0.644,2.657-0.533c0.467-0.23,0.767-0.463,0.832,0.18v6.146c-0.308,0.767-0.832,0.291-1.132-0.123
				c-0.472-2.6-3.661-4.543-6.195-4.543c-1.538,0-3.489,1.119-3.44,2.419c0.246,4.428,12.239,1.71,11.936,11.686
				c-0.045,4.252-4.486,7.163-9.033,7.163c-1.349,0-3.608-1.074-5.605-1.304c0,0-0.836,0-1.714,0.824
				c-0.545,0.172-0.836-0.185-0.713-0.89V84.572z"/>
		</g>
		<g clip-path="url(#SVGID_2_)">
			<path fill="#FFFFFF" d="M288.297,112.427h-3.969h-2.513H6.482H3.973H0c0,0-0.521,37.808,16.007,80.29h3.239h0.631h248.546h0.631
				h3.235C288.822,150.235,288.297,112.427,288.297,112.427"/>
		</g>
	</g>
	<g>
		<path fill="#004070" d="M58.775,120.892h3.915l8.873,17.469h0.175l8.699-17.469h3.846v22.775h-3.846v-18.67h-0.122l-9.343,18.67
			h-0.783l-9.466-18.53h-0.261v18.53h-1.688V120.892z"/>
		<path fill="#004070" d="M101.578,144.206c-1.172,0-2.297-0.145-3.375-0.435c-1.079-0.29-2.086-0.696-3.02-1.218
			c-0.934-0.522-1.78-1.151-2.54-1.888c-0.76-0.737-1.406-1.552-1.94-2.445c-0.533-0.893-0.948-1.853-1.243-2.879
			c-0.296-1.027-0.444-2.097-0.444-3.211c0-1.635,0.322-3.166,0.966-4.593c0.644-1.427,1.531-2.671,2.662-3.732
			s2.462-1.899,3.993-2.515c1.531-0.614,3.178-0.922,4.941-0.922c1.763,0,3.41,0.308,4.941,0.922
			c1.531,0.615,2.862,1.453,3.993,2.515s2.019,2.306,2.662,3.732c0.644,1.427,0.966,2.958,0.966,4.593
			c0,1.103-0.147,2.17-0.443,3.202s-0.711,1.995-1.244,2.888c-0.534,0.894-1.181,1.708-1.94,2.445
			c-0.76,0.736-1.606,1.365-2.54,1.888c-0.934,0.521-1.94,0.928-3.019,1.218C103.875,144.062,102.75,144.206,101.578,144.206z
			 M101.578,143.058c1.299,0,2.45-0.272,3.454-0.817c1.003-0.545,1.844-1.305,2.522-2.279s1.194-2.129,1.549-3.463
			c0.354-1.333,0.53-2.789,0.53-4.367c0-1.565-0.177-3.001-0.53-4.306c-0.354-1.306-0.87-2.428-1.549-3.367s-1.52-1.67-2.522-2.192
			c-1.004-0.521-2.155-0.783-3.454-0.783c-1.322,0-2.488,0.262-3.497,0.783c-1.01,0.522-1.854,1.253-2.531,2.192
			c-0.679,0.939-1.189,2.062-1.531,3.367c-0.343,1.305-0.514,2.74-0.514,4.306c0,1.578,0.171,3.034,0.514,4.367
			c0.342,1.334,0.853,2.488,1.531,3.463c0.678,0.975,1.521,1.734,2.531,2.279C99.089,142.786,100.255,143.058,101.578,143.058z"/>
		<path fill="#004070" d="M118.873,120.892h7.586c2.343,0,4.355,0.217,6.038,0.652c1.682,0.435,3.085,1.134,4.21,2.097
			c1.3,1.09,2.271,2.346,2.915,3.767c0.644,1.421,0.966,2.979,0.966,4.672c0,1.601-0.29,3.105-0.87,4.515
			c-0.58,1.41-1.433,2.637-2.558,3.681c-1.126,1.044-2.506,1.87-4.142,2.479c-1.636,0.608-3.515,0.913-5.638,0.913h-8.508V120.892z
			 M122.701,141.997h4.071c1.287,0,2.497-0.212,3.628-0.636c1.131-0.423,2.116-1.053,2.958-1.888
			c0.841-0.835,1.505-1.867,1.992-3.097s0.73-2.645,0.73-4.246c0-1.392-0.229-2.673-0.688-3.845
			c-0.458-1.172-1.099-2.181-1.923-3.027c-0.823-0.847-1.804-1.508-2.94-1.984c-1.137-0.475-2.384-0.713-3.74-0.713h-4.089V141.997z
			"/>
		<path fill="#004070" d="M161.153,120.892v1.461h-12.005v8.144h8.038v1.479h-8.038v10.214h12.005v1.479H145.32v-22.775H161.153z"/>
		<path fill="#004070" d="M165.399,120.892h3.828v21.297h11.466v1.479h-15.294V120.892z"/>
	</g>
	<g>
		<path fill="#004070" d="M188.305,120.892h3.828v21.297h11.466v1.479h-15.294V120.892z"/>
		<path fill="#004070" d="M218.371,144.206c-1.172,0-2.297-0.145-3.375-0.435c-1.079-0.29-2.086-0.696-3.02-1.218
			c-0.934-0.522-1.78-1.151-2.54-1.888c-0.76-0.737-1.406-1.552-1.94-2.445c-0.533-0.893-0.948-1.853-1.243-2.879
			c-0.296-1.027-0.444-2.097-0.444-3.211c0-1.635,0.322-3.166,0.966-4.593c0.644-1.427,1.531-2.671,2.662-3.732
			s2.462-1.899,3.993-2.515c1.531-0.614,3.178-0.922,4.941-0.922c1.763,0,3.41,0.308,4.941,0.922
			c1.531,0.615,2.862,1.453,3.993,2.515s2.019,2.306,2.662,3.732c0.644,1.427,0.966,2.958,0.966,4.593
			c0,1.103-0.147,2.17-0.443,3.202s-0.711,1.995-1.244,2.888c-0.534,0.894-1.181,1.708-1.94,2.445
			c-0.76,0.736-1.606,1.365-2.54,1.888c-0.934,0.521-1.94,0.928-3.019,1.218C220.668,144.062,219.543,144.206,218.371,144.206z
			 M218.371,143.058c1.299,0,2.45-0.272,3.454-0.817c1.003-0.545,1.844-1.305,2.522-2.279s1.194-2.129,1.549-3.463
			c0.354-1.333,0.53-2.789,0.53-4.367c0-1.565-0.177-3.001-0.53-4.306c-0.354-1.306-0.87-2.428-1.549-3.367s-1.52-1.67-2.522-2.192
			c-1.004-0.521-2.155-0.783-3.454-0.783c-1.322,0-2.488,0.262-3.497,0.783c-1.01,0.522-1.854,1.253-2.531,2.192
			c-0.679,0.939-1.189,2.062-1.531,3.367c-0.343,1.305-0.514,2.74-0.514,4.306c0,1.578,0.171,3.034,0.514,4.367
			c0.342,1.334,0.853,2.488,1.531,3.463c0.678,0.975,1.521,1.734,2.531,2.279C215.883,142.786,217.049,143.058,218.371,143.058z"/>
	</g>
	<g>
		<path fill="#004070" d="M32.941,156.205h9.187c1.219,0,2.332,0.133,3.341,0.399c1.01,0.268,1.876,0.647,2.602,1.14
			c0.725,0.493,1.29,1.082,1.696,1.767s0.609,1.444,0.609,2.279c0,0.626-0.064,1.186-0.191,1.679
			c-0.128,0.493-0.352,0.948-0.67,1.366c-0.319,0.417-0.746,0.812-1.279,1.183c-0.533,0.372-1.206,0.748-2.019,1.131v0.07
			c0.812,0.128,1.546,0.348,2.201,0.661c0.655,0.312,1.215,0.71,1.68,1.191c0.463,0.481,0.82,1.035,1.069,1.662
			c0.25,0.626,0.374,1.322,0.374,2.088c0,0.858-0.188,1.661-0.565,2.409c-0.377,0.749-0.91,1.401-1.601,1.958
			s-1.525,0.994-2.506,1.313c-0.979,0.319-2.079,0.479-3.297,0.479H32.941V156.205z M36.769,166.453h4.889
			c0.766,0,1.444-0.11,2.036-0.331c0.592-0.22,1.093-0.521,1.505-0.904s0.725-0.838,0.939-1.366
			c0.215-0.527,0.322-1.099,0.322-1.714c0-0.673-0.128-1.281-0.383-1.827c-0.256-0.545-0.646-1.009-1.175-1.392
			c-0.527-0.383-1.203-0.679-2.027-0.888c-0.823-0.208-1.804-0.312-2.94-0.312h-3.166V166.453z M36.769,177.31h4.141
			c1.113,0,2.079-0.107,2.897-0.322c0.817-0.215,1.493-0.514,2.026-0.896c0.534-0.383,0.929-0.841,1.184-1.374
			s0.383-1.125,0.383-1.774c0-0.72-0.113-1.39-0.34-2.01c-0.226-0.621-0.6-1.157-1.122-1.609c-0.521-0.453-1.203-0.81-2.044-1.07
			c-0.842-0.261-1.871-0.392-3.089-0.392h-4.036V177.31z"/>
		<path fill="#004070" d="M55.213,156.205h7.899c1.368,0,2.566,0.147,3.593,0.443s1.885,0.704,2.575,1.227s1.209,1.146,1.558,1.87
			c0.348,0.726,0.521,1.522,0.521,2.393c0,0.708-0.134,1.372-0.4,1.992c-0.267,0.621-0.644,1.178-1.131,1.671
			s-1.073,0.922-1.757,1.287c-0.685,0.365-1.444,0.646-2.279,0.844l8.282,11.049h-4.42l-7.917-10.718h-2.696v10.718h-3.828V156.205z
			 M59.041,167.131h2.209c0.858,0,1.653-0.113,2.384-0.34c0.731-0.226,1.36-0.551,1.889-0.975c0.527-0.423,0.941-0.937,1.243-1.539
			c0.302-0.604,0.453-1.276,0.453-2.019c0-0.673-0.119-1.296-0.357-1.87c-0.237-0.574-0.568-1.064-0.991-1.471
			c-0.424-0.406-0.929-0.725-1.514-0.957c-0.586-0.231-1.232-0.348-1.94-0.348h-3.375V167.131z"/>
		<path fill="#004070" d="M92.759,156.205v1.461H80.755v8.144h8.038v1.479h-8.038v10.214h12.005v1.479H76.926v-22.775H92.759z"/>
		<path fill="#004070" d="M98.276,156.205l8.577,18.112l8.004-18.112h1.81l-10.353,23.314h-0.975l-11.101-23.314H98.276z"/>
		<path fill="#004070" d="M135.406,156.205v1.461h-12.005v8.144h8.038v1.479h-8.038v10.214h12.005v1.479h-15.833v-22.775H135.406z"
			/>
		<path fill="#004070" d="M157.781,156.205v1.461h-8.247v21.314h-3.828v-21.314h-8.248v-1.461H157.781z"/>
	</g>
	<g>
		<path fill="#004070" d="M185.481,156.205v1.461h-8.247v21.314h-3.828v-21.314h-8.247v-1.461H185.481z"/>
		<path fill="#004070" d="M198.148,155.682l10.735,23.298h-3.897l-3.48-7.604h-9.778l-3.584,7.604h-1.914l10.962-23.298H198.148z
			 M192.405,169.898h8.387l-4.142-9.014L192.405,169.898z"/>
	</g>
	<g>
		<path fill="#004070" d="M227.816,156.205v1.461h-8.247v21.314h-3.828v-21.314h-8.247v-1.461H227.816z"/>
		<path fill="#004070" d="M242.918,179.519c-1.172,0-2.297-0.145-3.375-0.435c-1.079-0.29-2.086-0.696-3.02-1.218
			c-0.934-0.522-1.78-1.151-2.54-1.888c-0.76-0.737-1.406-1.552-1.94-2.445c-0.533-0.893-0.948-1.853-1.243-2.879
			c-0.296-1.027-0.444-2.097-0.444-3.211c0-1.635,0.322-3.166,0.966-4.593s1.531-2.671,2.662-3.732s2.462-1.899,3.993-2.515
			c1.531-0.614,3.178-0.922,4.941-0.922c1.763,0,3.41,0.308,4.941,0.922c1.531,0.615,2.862,1.453,3.993,2.515
			s2.019,2.306,2.662,3.732s0.966,2.958,0.966,4.593c0,1.103-0.147,2.17-0.443,3.202s-0.711,1.995-1.244,2.888
			c-0.534,0.894-1.181,1.708-1.94,2.445c-0.76,0.736-1.606,1.365-2.54,1.888c-0.934,0.521-1.94,0.928-3.019,1.218
			C245.215,179.374,244.09,179.519,242.918,179.519z M242.918,178.371c1.299,0,2.45-0.272,3.454-0.817
			c1.003-0.545,1.844-1.305,2.522-2.279s1.194-2.129,1.549-3.463c0.354-1.333,0.53-2.789,0.53-4.367c0-1.565-0.177-3.001-0.53-4.306
			c-0.354-1.306-0.87-2.428-1.549-3.367s-1.52-1.67-2.522-2.192c-1.004-0.521-2.155-0.783-3.454-0.783
			c-1.322,0-2.488,0.262-3.497,0.783c-1.01,0.522-1.854,1.253-2.531,2.192c-0.679,0.939-1.189,2.062-1.531,3.367
			c-0.343,1.305-0.514,2.74-0.514,4.306c0,1.578,0.171,3.034,0.514,4.367c0.342,1.334,0.853,2.488,1.531,3.463
			c0.678,0.975,1.521,1.734,2.531,2.279C240.43,178.098,241.596,178.371,242.918,178.371z"/>
	</g>
</g>
</svg>
