<svg xmlns="http://www.w3.org/2000/svg" width="500" height="842" viewBox="0 0 499.7 841.9"><style>.a{fill:#0D3755;}</style><path d="M486.6 437.6c0 0-0.4-31.8 0.5-51.8 0.9-19.9 0.4-42.4-2.6-65.5 -2.9-23-3.8-31.5-3.1-60.4 0 0 7-57.1-1.1-79.2 0 0-4.6-15-23.2-16.6 0 0-24.1-2.6-28.7-11 -4.6-8.4-6.9-8.8-6.9-24.1 0 0 6.7-9.4 10.1-21 0 0 2.8 4.6 7.4-9.8 4.6-14.5-1.2-10.6-2.5-10.5 0 0 5.2-28-12.3-42.1 0 0 7.1-21.3-20.3-21.3h-4.4 -0.2 -4.4c-27.4 0-20.3 21.3-20.3 21.3 -17.5 14.1-12.3 42.1-12.3 42.1 -1.3-0.1-7.1-4-2.5 10.5 4.6 14.5 7.4 9.8 7.4 9.8 3.4 11.7 10.1 21 10.1 21 0 15.4-2.4 15.7-6.9 24.1 -4.6 8.4-28.7 11-28.7 11 -18.7 1.6-23.2 16.6-23.2 16.6 -8 22.1-1.1 79.2-1.1 79.2 0.7 28.9-0.2 37.3-3.1 60.4 -2.9 23-3.5 45.5-2.6 65.5s0.5 51.8 0.5 51.8c-1.8 13.2-6.2 39.7-6.2 39.7 0.4 14.8 2.7 21.4 7.9 29.4 5.1 8 9.1 7.5 9.1 7.5 2.2-4-2.2-9.3-2.2-9.3 -3.8-4.4-4.8-11.7-4.8-11.7 -0.4-4.8-0.4-8.8 2.4-9.9 2.7-1.1 2.4 4.8 2.4 4.8 -0.4 8.6 1.1 12.8 3.5 14.8 2.4 2 2.2-5.3 2.2-5.3 3.7-18.3-2-32.6-2-32.6 -1.1-18.3 2.6-38.2 2.6-38.2 9.5-37.9 12.4-89.3 12.4-102.8 0-13.5 3.5-38.8 4.2-53s2.6-19.2 2.6-19.2c0.7 15.9 12.4 65.8 12.4 65.8 0.4 14.1-6.2 27.6-10.8 45.3 -4.6 17.8-16.1 26.7-14.1 92.8 2 66 14.8 99.5 17.4 114.3 2.6 14.8 5.1 33.5 5.1 33.5 -1.1 8.2-1.1 21-1.1 21 -1.6 20.5-2.9 39.5-2.9 39.5 -1.1 19.8 13.7 101 15.4 113.2s-0.4 19.4-0.4 19.4c-3.7 12.8-10.8 26.2-10.8 26.2 -2.9 17.4 20.1 12.8 20.1 12.8 11.2-1.5 12.8-9.7 11.7-17.4 -1.1-7.7-2-13.4-2-13.4 0.5-4.9 0.4-10.8 0.4-10.8 0-6.8-0.9-16.3-0.9-16.3 -1.3-18.3 2.2-70.2 2.2-70.2 3.1-27.4 0.7-50.7-0.2-58.3 -0.9-7.7-0.9-13.4-0.7-15 0.2-1.6 1.8-12.3 1.8-12.3 2-11.2 2.9-23.4 2.2-30.2 -0.7-6.8-0.7-20.1-0.7-20.1 2.2-30 8.3-106.1 9.1-115.5 0.8 9.5 6.9 85.5 9.1 115.5 0 0 0 13.4-0.7 20.1 -0.7 6.8 0.2 19 2.2 30.2 0 0 1.6 10.6 1.8 12.3 0.2 1.6 0.2 7.3-0.7 15 -0.9 7.7-3.3 30.9-0.2 58.3 0 0 3.5 51.9 2.2 70.2 0 0-0.9 9.5-0.9 16.3 0 0-0.2 5.9 0.4 10.8 0 0-0.9 5.7-2 13.4 -1.1 7.7 0.5 15.9 11.7 17.4 0 0 23 4.6 20.1-12.8 0 0-7.1-13.4-10.8-26.2 0 0-2-7.1-0.4-19.4 1.6-12.3 16.5-93.5 15.4-113.2 0 0-1.3-19-2.9-39.5 0 0 0-12.8-1.1-21 0 0 2.6-18.7 5.1-33.5 2.6-14.8 15.4-48.3 17.4-114.3 2-66-9.5-75-14.1-92.8 -4.6-17.8-11.1-31.3-10.8-45.3 0 0 11.7-49.9 12.4-65.8 0 0 1.8 4.9 2.6 19.2 0.7 14.3 4.2 39.5 4.2 53 0 13.5 2.9 64.9 12.4 102.8 0 0 3.7 19.9 2.6 38.2 0 0-5.7 14.3-2 32.6 0 0-0.1 7.3 2.2 5.3 2.4-2 3.8-6.2 3.5-14.8 0 0-0.4-5.9 2.4-4.8 2.7 1.1 2.7 5.1 2.4 9.9 0 0-0.9 7.3-4.8 11.7 0 0-4.4 5.3-2.2 9.3 0 0 4 0.5 9.1-7.5 5.1-8 7.5-14.6 7.9-29.4C492.8 477.3 488.4 450.8 486.6 437.6z" class="a"/><path d="M486.6 437.6c1.5-6.3 2.4-10.5 2.4-18 0-1.6 0-4.5 0.1-8 0-9.8 0.4-19.5 0.7-29.5 0.1-2.5 0.1-5 0.2-7.5l0.1-3.8c0-1.3 0-2.5 0-3.8 0-2.5-0.1-5.1-0.1-7.6 -0.1-2.5 0-5.1-0.2-7.6 -0.3-5.1-0.5-10.2-0.9-15.3 -0.5-5.1-1.1-10.3-1.6-15.4 -0.6-5.1-1.2-10.2-1.8-15.4 -0.3-2.6-0.4-5.1-0.7-7.7l-0.3-3.9c-0.1-0.6-0.1-1.3-0.2-1.9l-0.1-1.9c-0.1-2.6-0.2-5.2-0.2-7.8l-0.1-3.9 0-3.9c0-2.6 0.1-5.3 0.1-7.9l0.1-4 0-2 0-0.5c0 0 0 0 0-0.1l0-0.2 0.1-1c1.2-10.6 2-21.3 2.4-32.1 0.2-5.4 0.3-10.8 0.2-16.3 -0.1-5.5-0.4-10.9-1-16.5 -0.3-2.8-0.7-5.5-1.4-8.3 -0.1-0.7-0.3-1.4-0.5-2.1 -0.2-0.7-0.4-1.4-0.6-2.1l-0.3-1c-0.1-0.3-0.2-0.7-0.4-1.1 -0.3-0.8-0.6-1.4-0.9-2.1 -1.4-2.7-3.1-5.1-5.3-7.2 -2.1-2.1-4.6-3.9-7.3-5.2 -2.7-1.4-5.6-2.2-8.5-2.8 -1.4-0.2-3-0.4-4.2-0.6 -1.3-0.2-2.7-0.4-4-0.6 -5.3-0.9-10.6-2.2-15.3-4.2 -2.3-1-4.6-2.3-5.9-3.9 -0.2-0.2-0.3-0.4-0.4-0.6 -0.1-0.1-0.1-0.2-0.2-0.3l-0.3-0.5 -1.1-1.9c-0.4-0.6-0.7-1.2-1.1-1.8 -0.4-0.6-0.7-1.2-1-1.7 -0.7-1.1-1.2-2.3-1.6-3.4l-0.5-1.7c-0.2-0.6-0.2-1.2-0.4-1.9 -0.3-1.2-0.3-2.6-0.4-3.9 -0.2-1.3-0.1-2.7-0.2-4l0-1.4 0 0 0 0 0.1-0.2 0.6-0.9c0.8-1.2 1.5-2.4 2.2-3.7 0.7-1.2 1.4-2.5 2-3.8 0.6-1.3 1.2-2.6 1.8-3.9l1.6-4c0.5-1.4 0.9-2.7 1.4-4.1l0.1-0.3c-1.9 0.3 4.4-0.9-4.3 0.5 0.3 0.4 0.5 0.7 0.9 1 0.3 0.3 0.8 0.5 1.3 0.6 0.2 0.1 0.5 0.1 0.8 0.1 0.2 0 0.5 0 0.7 0 0.5 0 0.8-0.2 1.2-0.3 0.4-0.2 0.6-0.3 0.9-0.5 0.3-0.2 0.5-0.4 0.6-0.5 0.2-0.2 0.4-0.4 0.5-0.6 1.2-1.4 1.9-2.8 2.5-4.2 1.2-2.8 2.1-5.5 2.9-8.3 0.4-1.4 0.8-2.8 1-4.4 0.1-0.8 0.2-1.6 0.2-2.5 0-0.3 0-0.6-0.1-0.9 -0.1-0.3-0.1-0.7-0.2-1 -0.2-0.7-0.5-1.3-0.9-1.8 -0.8-1-2.2-1.5-3.5-1.4 -0.3 0-0.7 0.1-1 0.2 -0.2 0-0.3 0.1-0.5 0.1l-0.4 0.1 -0.4 0.1c0 0.3-0.2-0.7 0.1 0.9 -0.4 0.6 4.8 3.2 2.6 1.9 0.3-1.5 0.4-2.9 0.5-4.4 0.2-2.9 0.3-5.8 0.1-8.7 -0.3-5.8-1.4-11.7-3.6-17.2 -1.1-2.8-2.6-5.4-4.4-7.9 -0.9-1.2-1.9-2.4-3-3.5 -0.5-0.5-1.1-1.1-1.6-1.5 0 0 0 0 0 0 0 0 0 0 0 0l0.1-0.3c0.1-0.4 0.1-0.8 0.2-1.2 0.1-0.8 0.2-1.6 0.2-2.3 0.1-1.6 0-3.2-0.3-4.8 -0.6-3.2-2.2-6.4-4.7-8.7 -1.2-1.1-2.6-2-4-2.8 -1.4-0.7-2.9-1.3-4.4-1.7 -3-0.8-6-1.1-9-1.2 -1.5-0.1-2.9 0-4.3 0l-4.2 0c-1.4 0-2.9 0-4.4 0.1l-2.2 0.2 -2.2 0.3c-3 0.5-6 1.5-8.8 3.2 -2.8 1.7-5.1 4.4-6.3 7.6 -1.2 3.1-1.4 6.4-1 9.5 0.1 0.4 0.1 0.8 0.2 1.2l0.1 0.6 0.1 0.3c0 0 0 0 0 0l-0.4 0.3c-0.3 0.3-0.5 0.5-0.8 0.8l-0.8 0.8 -0.8 0.9c-4 4.6-6.7 10.2-8.2 15.9 -1.5 5.9-2 12-1.7 17.7 0 0.7 0.1 1.4 0.1 2.1l0.1 1 0 0.4 0 0c0 0 0 0 0 0l0 0 0 0h0c0.3 0 0.1 0 0.1 0l-0.1 0 -0.1 0 -0.3 0c-0.2 0-0.4 0.1-0.6 0.1 -0.8 0.2-1.5 0.8-1.9 1.4 -0.4 0.6-0.6 1.2-0.8 1.7 -0.2 1-0.2 1.7-0.2 2.5 0 0.7 0.1 1.4 0.2 2 0.4 2.4 1 4.5 1.6 6.3 0.3 0.9 0.6 1.7 0.9 2.5 0.3 0.8 0.6 1.5 0.8 2.2 1 2.7 2.2 4.4 2.4 4.7 0.1 0.2 0.4 0.5 0.5 0.7 0.2 0.2 0.4 0.5 0.6 0.7 0.3 0.3 0.5 0.5 0.9 0.7 0.2 0.1 0.4 0.2 0.6 0.4 0.2 0.1 0.5 0.2 0.8 0.3 0.2 0.1 0.6 0.2 0.9 0.2 0.3 0 0.7 0 1-0.1 0.7-0.1 1.3-0.5 1.7-0.8 0.2-0.2 0.4-0.4 0.6-0.6l0.1-0.2 0.1-0.2c-2-0.3 4.5 0.5-4.5-0.6l0 0 0 0 0.1 0.2 0.2 0.7c0.6 1.8 1.2 3.7 1.9 5.4 0.4 0.8 0.7 1.7 1 2.5 0.4 0.8 0.7 1.6 1.1 2.3 0.7 1.5 1.5 2.9 2.1 4.2 0.7 1.3 1.4 2.4 2 3.4 0.3 0.5 0.6 1 0.9 1.4 0.2 0.3 0.4 0.7 0.6 0.9 0 0 0 0 0 0 0 0.2 0 0.4 0 0.6 0 0.4 0 0.6 0 0.6l0 0 -0.1 3 -0.2 2.9c0 1-0.3 1.9-0.4 2.8 -0.1 0.9-0.4 1.8-0.7 2.6 -0.1 0.4-0.3 0.8-0.5 1.3l-0.6 1.2c-0.5 0.8-0.9 1.6-1.4 2.5 -0.5 0.9-1 1.7-1.6 2.6l-0.8 1.4 -0.4 0.7 -0.3 0.4c-0.8 1.2-2.2 2.3-3.8 3.1 -1.6 0.9-3.4 1.6-5.2 2.3 -3.6 1.3-7.5 2.2-11.4 2.9 -1.9 0.4-3.9 0.7-5.8 0.9l-3.1 0.4 -0.8 0.1 -0.8 0.2 -1.6 0.4c-4.2 1.1-8.3 3.1-11.6 6 -1.7 1.4-3.1 3.1-4.4 4.9 -1.3 1.8-2.4 3.7-3.2 5.8 -1.5 4-2.3 8.1-2.8 12.2 -1.1 8.1-1.3 16.1-1.3 24.1 0 8 0.4 15.8 0.9 23.7 0.3 3.9 0.6 7.8 0.9 11.7 0.2 1.9 0.4 3.9 0.6 5.8l0.3 2.9 0 0.3c0 0.1 0 0 0 0.2l0 0.7 0 1.4c0 3.8 0.1 7.6 0.1 11.4 0 1.9 0.1 3.8 0 5.7 -0.1 1.9-0.1 3.8-0.2 5.6 -0.1 1.9-0.1 3.7-0.2 5.6l0 1.4 -0.1 1.4 -0.2 2.8c-0.2 1.8-0.3 3.7-0.5 5.5 -0.1 1.8-0.3 3.7-0.6 5.5 -0.4 3.7-0.9 7.3-1.3 10.9 -0.4 3.6-0.8 7.3-1.2 10.9 -1.6 14.5-2 28.8-2 42.6 0.2 6.9 0.4 13.7 0.5 20.4 0.1 3.3 0.2 6.6 0.3 9.9 0 3.3 0.1 6.5 0.1 9.7 0.1 6.4 0.1 12.7 0 18.9 0 1.5 0 3.1 0 4.6 0 0.7 0 1.4 0 2.1 -0.1 0.7-0.2 1.4-0.3 2.1 -0.5 3-0.9 6-1.4 8.9 -0.9 5.9-1.8 11.6-2.7 17.2 -0.4 2.8-0.9 5.6-1.3 8.3 -0.1 0.7-0.2 1.4-0.3 2l-0.1 0.5 0 0.3c0 0.2-0.1 0.3-0.1 0.5l0.1 1.2c0.1 1.4 0.1 2.8 0.2 4.1 0.4 5.5 1.2 11 3.2 16.1 0.5 1.2 1 2.5 1.6 3.7 0.6 1.1 1.2 2.4 1.9 3.4 0.7 1.1 1.3 2.2 2.1 3.2 0.4 0.5 0.8 1.1 1.1 1.6 0.4 0.5 0.9 1 1.3 1.5 0.4 0.5 0.9 1 1.4 1.4l0.8 0.7c0.3 0.2 0.5 0.4 0.8 0.6l1.1 0.7c0.5 0.3 1 0.4 1.5 0.6l0.8 0.3 0.4 0.1c0.1 0 0.2 0 0.4 0 0.5 0 1 0.1 1.5 0l0.7 0c0.1 0 0.1 0 0.2 0l0.1-0.2 0.2-0.3 0.4-0.6c0.1-0.2 0.2-0.5 0.3-0.7l0.3-0.7c0.1-0.2 0.1-0.5 0.2-0.8 0.1-0.3 0.1-0.5 0.2-0.8l0-0.8c0-0.3 0-0.6 0-0.8 0-0.3-0.1-0.6-0.1-0.7 0-0.4-0.1-0.7-0.2-1.1 -0.2-0.7-0.4-1.3-0.7-1.9 -0.5-1.2-1.2-2.3-1.9-3.3 -0.3-0.4-0.7-0.9-1-1.3 -0.3-0.4-0.7-0.9-0.8-1.2 -0.2-0.4-0.4-0.7-0.6-1.1 -0.2-0.4-0.4-0.9-0.6-1.3 -0.2-0.4-0.3-0.9-0.5-1.3 -0.1-0.4-0.3-0.9-0.4-1.3 -0.3-0.9-0.5-1.8-0.6-2.7l-0.1-0.6c0-0.2 0-0.4 0-0.6 0-0.5-0.1-0.9-0.1-1.4 0-0.3 0-0.7 0-1l0 0 0 0c0 0 0 0 0 0 0 0.2 0 0.5 0 0.7 0 0.4 0 0.9 0 1.3 0.1 0.9 0 1.7 0.1 2.5 0.1 0.9 0.1 1.7 0.3 2.5 0.1 0.4 0.2 0.8 0.3 1.2 0 0.2 0.1 0.4 0.2 0.6l0.2 0.7c0.4 1.5 1.2 2.5 1.8 3.6l0.3 0.4 0.3 0.3 0.6 0.6 0.6 0.6 0.6 0.3c0.4 0.2 0.8 0.4 1.2 0.4 0.4 0 0.9 0 1.3-0.2 0.8-0.3 1.3-0.8 1.7-1.5 0.4-0.7 0.7-1.8 0.9-2.9 0.1-0.6 0.1-1.1 0.2-1.7l0-0.9 0-0.7c0.2-1 0.3-2 0.5-3 0.3-2.2 0.5-4.1 0.6-5.8 0.1-1.7 0.1-3.2 0.1-4.4 0-1.2-0.1-2.2-0.1-3 -0.1-1.5-0.1-1.9-0.1-1.4 -0.2-2.8-0.6-5.6-1.1-8.3 -0.3-1.3-0.6-2.7-0.9-4 -0.2-0.6-0.4-1.3-0.5-1.9 -0.1-0.3-0.2-0.6-0.3-0.9 -0.1-0.3-0.3-0.8-0.2-0.6 -0.1-2.2-0.1-4.3-0.2-6.3 0-2.1 0.1-3.9 0.1-5.5 0.3-6.4 0.5-8.7 0.1-2.9 0.3-6 1-12 1.7-17.4 0.2-1.3 0.4-2.6 0.6-3.9 0.1-0.7 0.2-1.1 0.3-1.7 0.1-0.6 0.3-1.2 0.4-1.8 0.5-2.3 1-4.4 1.4-6.2 1.6-7.1 2.1-9.6 0.6-2.8 4.1-20 6.5-39.8 8.2-58.8 0.8-9.5 1.4-18.8 1.7-28 0.1-2.3 0.1-4.5 0.2-6.8 0.1-2.2 0.1-4.4 0.3-6.5 0.2-4.3 0.6-8.7 1-12.9 0.8-8.5 1.7-16.7 2.3-24.6 0.3-4 0.6-7.8 0.9-11.6 0.2-1.9 0.2-3.7 0.5-5.5 0.3-1.8 0.5-3.5 0.8-5.3 0.2-0.8 0.4-1.7 0.5-2.5 0.1-0.4 0.2-0.7 0.3-1.1l0-0.1c4.2 0.6-5.8-1-4.7-0.7l0 0.2 0 0.3 0.1 0.7c0.2 1.8 0.4 3.6 0.5 5.3 0.1 0.9 0.2 1.7 0.3 2.6 0.1 0.8 0.3 1.7 0.4 2.5 0.3 1.7 0.5 3.3 0.8 4.9 1.1 6.4 2.2 12.3 3.4 17.8 2.2 11 4.3 20.1 5.8 27.1 0.4 1.7 0.7 3.2 1.1 4.6 0 0.6 0 1.3 0 1.8 0 0.7-0.1 1.3-0.1 1.9 -0.1 2.3-0.4 4.1-0.6 5.3 -0.1 0.6-0.2 1.1-0.2 1.3 -0.1 0.3-0.1 0.4-0.1 0.4 0 0 0-0.2 0.1-0.5 0.1-0.3 0.2-0.8 0.3-1.5 0.1-0.7 0.3-1.5 0.4-2.5 0.1-0.5 0.1-1 0.2-1.6 0-0.6 0.1-1.2 0.1-1.9 0.1-0.7 0-1.4 0-2.2 0-0.2 0-0.4 0-0.5 0 0 0 0 0 0l0 0 0-0.1c-0.1-0.4-0.2-0.9-0.3-1.3 -0.4-1.8-0.8-3.7-1.3-5.9l0 0c0.4 1.6 0.7 3.3 1.1 4.9l0.5 2.4 0 1.9c-0.1 3.2-0.5 6.3-1.1 9.4 -1.3 6.2-3.3 12.4-5.2 18.5 -1 3.1-1.9 6.1-2.8 9.2 -0.5 1.5-0.9 3.1-1.3 4.6 -0.4 1.5-0.8 2.9-1.3 4.4 -1.9 5.7-4.5 11.5-6.4 17.4 -1.9 5.9-3.3 12-4.3 17.9 -0.9 6-1.6 11.9-2 17.8 -0.1 1.5-0.2 2.9-0.3 4.4 -0.1 1.5-0.1 2.9-0.2 4.3 -0.1 2.9-0.2 5.8-0.2 8.6 0 2.8-0.1 5.7 0 8.5 0.1 2.8 0.1 5.6 0.2 8.4 0.8 22.1 2.3 43.1 5.6 62.7 0.8 4.9 1.8 9.7 2.6 14.5 0.4 2.4 1 4.7 1.5 7 0.5 2.3 1 4.6 1.5 6.9 1.1 4.6 2.2 9.1 3.3 13.4 0.6 2.2 1.1 4.4 1.6 6.5 0.5 2.1 0.9 4.2 1.4 6.3 1.3 8.7 2.7 17.1 3.9 25.2 0.3 2 0.6 4.1 0.9 6.1l0.2 1.5c0 0 0 0 0 0 0 0 0-0.1 0-0.1l0 0.2 -0.1 0.8c-0.1 1-0.2 2.1-0.3 3.1 -0.1 1-0.2 2-0.3 3.1 0 1-0.1 2-0.1 3 -0.1 2-0.2 4-0.2 5.9 0 1 0 2-0.1 2.9l0 1.5 0 0.4 0 0.2c0 0 0 0 0 0l-0.1 0.7c-0.1 1.9-0.3 3.8-0.4 5.7 -0.3 3.8-0.6 7.4-0.8 11.1 -0.5 7.3-1.1 14.3-1.6 21.1 -0.1 0.8-0.1 1.7-0.1 2.6 0 0.9 0 1.8 0 2.6 0.1 1.7 0.2 3.4 0.3 5.1 0.1 1.7 0.3 3.3 0.4 4.9 0.1 1.6 0.3 3.2 0.5 4.8 0.3 3.2 0.7 6.3 1.1 9.3 0.4 3 0.8 6 1.2 8.9 1.6 11.7 3.3 22.4 4.8 32.3 1.6 9.9 3.1 18.9 4.5 27.2 0.7 4.1 1.3 8.1 1.9 11.8 0.3 1.9 0.6 3.7 0.8 5.4 0.1 0.9 0.2 1.7 0.3 2.6 0.1 0.8 0.2 1.7 0.2 2.5 0 0.8 0.1 1.6 0.1 2.4 0 0.8 0 1.6 0 2.4 0 0.8 0 1.5-0.1 2.3 0 0.8-0.1 1.5-0.2 2.2 -0.1 0.7-0.2 1.4-0.3 2.1 -0.1 0.7-0.2 1.3-0.4 1.9 -0.4 1.3-0.8 2.6-1.2 3.9 -1.7 5-3.5 9.4-5.2 13.1 -0.9 1.9-1.6 3.6-2.4 5.1 -0.4 0.8-0.7 1.5-1.1 2.2 -0.2 0.5-0.5 0.9-0.7 1.3 -0.1 0.3-0.1 0.8-0.2 1 0 0.2-0.1 0.4-0.1 0.6 -0.4 3.3 0.2 6.4 1.4 8.4 1.2 2.1 2.6 3.1 3.5 3.7 0.4 0.3 0.8 0.5 1 0.6 0.2 0.1 0.3 0.2 0.3 0.2s0.1 0 0.3 0.1c0.2 0.1 0.5 0.2 0.9 0.4 0.8 0.3 2.1 0.8 3.8 1.1 1.7 0.3 4 0.5 6.7 0.4 1.4-0.1 2.8-0.2 4.5-0.4 0.8-0.1 1.6-0.3 2.4-0.4 0.4-0.1 1-0.2 1.4-0.4 0.5-0.1 1-0.3 1.5-0.5 2-0.7 4.1-2 5.8-3.9 1.7-2 2.8-4.6 3.3-7.3 0.4-2.7 0.3-5.6-0.1-8.4 -0.4-2.7-0.8-5.6-1.3-8.6 -0.1-0.8-0.2-1.5-0.3-2.3 -0.1-0.4-0.1-0.8-0.2-1.2l0-0.3 0-0.1 0 0 0 0 0 0.1 0-0.3c0.1-1.7 0.3-3.4 0.3-5.1 0.1-1.7 0.1-3.5 0-5.3 -0.1-1.8-0.2-3.7-0.2-5.6 -0.1-1.9-0.1-3.8-0.3-5.8 -0.1-2-0.4-4-0.4-6 -0.1-2-0.1-4.1-0.2-6.2 -0.1-2.1 0-4.3 0-6.6 0-9 0.4-18.8 0.9-29.4 0.3-5.3 0.5-10.8 0.9-16.6 0.2-2.9 0.4-5.8 0.5-8.7 0.1-1.4 0.2-3 0.4-4.5 0.1-1.5 0.3-3.1 0.4-4.6 1-12.4 1.2-25.9 0.1-40.3 -0.2-3.6-0.6-7.2-1-10.9 -0.2-1.8-0.3-3.6-0.5-5.4 -0.1-0.9-0.1-1.8-0.2-2.7l-0.1-1.4 0-1.4c0-1.9 0-3.4 0.3-5.4 0.3-1.9 0.6-3.8 0.9-5.7 0.3-1.9 0.6-3.8 0.9-5.8 0.2-1 0.3-2 0.5-3 0.1-1 0.3-2 0.4-3 0.5-4.1 1-8.2 1.2-12.5 0.1-1.1 0.1-2.1 0.1-3.2 0-1.1 0-2.2 0-3.3l0-1.7 -0.1-1.7c-0.1-1.1-0.2-2.1-0.2-3.2 -0.2-2.1-0.3-4.2-0.4-6.4 -0.1-2.2-0.2-4.3-0.2-6.6 0-1.1 0-2.2 0-3.3l0-1.5 0.1-1.7c0.2-2.2 0.4-4.5 0.5-6.8 1.4-18.2 3-37.5 4.6-57.9 0.4-5.1 0.8-10.3 1.2-15.5l0.2-2 0-0.5c0-0.1 0-0.2 0-0.1l0 0 0 0 0 0 0 0c0 0 0 0 0 0 1.4 17.8 2.9 36.5 4.4 56.1 0.2 2.3 0.4 4.7 1.3 16.2 0.1 1.2 0.2 2.4 0.4 4.7 0.1 1.2 0.2 2.6 0.4 4.5 0.1 0.9 0.1 1.8 0.2 2.9 0 1.1 0 2.4 0 3.8 0 2.1-0.1 4.2-0.1 6.4 0 1.1-0.1 2.2-0.1 3.3 -0.1 1.1-0.2 2.2-0.2 3.4 -0.1 1.1-0.2 2.3-0.2 3.5 -0.1 1.3-0.2 2.5-0.2 3.8 0 0.6 0 1.3 0 1.9 0 0.6 0 1.3 0 1.9 0 1.3 0.1 2.6 0.2 3.9 0.3 5.2 0.9 10.5 1.8 16 0.5 2.8 0.9 5.5 1.3 8.3 0.2 1.4 0.4 2.8 0.6 4.2 0.1 0.7 0.2 1.4 0.3 2.1 0.1 0.7 0.1 1.3 0.1 2 0 2.8-0.1 5.8-0.4 8.8 -0.3 3-0.6 6.1-0.9 9.2 -0.3 3.2-0.5 6.4-0.7 9.7 -0.1 3.3-0.4 6.6-0.4 10 0 1.7-0.1 3.4-0.1 5.1 0 1.7 0.1 3.4 0.1 5.2 0 3.5 0.2 7 0.4 10.5 0 0.9 0.1 1.8 0.1 2.7 0.1 0.9 0.2 1.8 0.2 2.7 0.2 1.8 0.3 3.6 0.5 5.4 0.1 0.9 0.2 1.8 0.2 2.7 0.1 0.9 0.1 1.8 0.2 2.7 0.1 1.8 0.2 3.7 0.3 5.5 0.8 14.7 1.7 30.2 1.9 46.2 0 2 0 4 0 6 0 2-0.1 4-0.2 6 0 1-0.1 2-0.1 3 -0.1 1-0.2 2.1-0.3 3.1 -0.2 2.1-0.3 4.2-0.4 6.3 -0.2 4.2-0.5 8.5-0.3 12.9 0 1.1 0.1 2.2 0.2 3.3l0.1 1.7c0 0.2 0-0.1 0 0 0 0 0-0.1 0 0.1l-0.1 0.8c-0.3 2.1-0.6 4.3-1 6.4 -0.3 2.2-0.7 4.2-1 6.5 -0.3 2.3-0.3 4.8 0.1 7.3 0.5 2.5 1.5 5.1 3.3 7.1 1.8 2.1 4.3 3.4 6.7 4.2 0.6 0.2 1.2 0.4 1.8 0.5l1.8 0.3c-0.2 0 0.3 0 0.3 0.1l0.5 0.1 0.9 0.1c0.6 0.1 1.2 0.1 1.8 0.2 2.4 0.2 4.8 0.2 7.3-0.1 2.5-0.4 5.1-1 7.4-2.6 1.2-0.8 2.3-1.8 3.1-3.1 0.8-1.2 1.3-2.7 1.6-4 0.3-1.4 0.3-2.8 0.2-4.1 0-0.3-0.1-0.7-0.1-1l-0.2-1.2c0-0.3-0.2-0.5-0.3-0.8l-0.3-0.5 -0.4-0.8c-1-2-2-4.1-3-6.2 -1.9-4.2-3.7-8.5-5.2-12.8 -0.4-1.1-0.7-2.2-1.1-3.3l-0.5-1.7c0-0.1-0.1-0.3-0.1-0.4 0-0.1 0-0.2-0.1-0.3l-0.2-0.8c-0.4-2.2-0.6-4.4-0.6-6.7 -0.1-4.6 0.3-9.2 1.1-13.9 3.1-19.1 6.5-38.7 9.5-58.7 1.5-10 2.9-20.2 4.1-30.5l0.4-3.9 0.3-3.9c0.3-2.6 0.4-5.2 0.5-7.9 0.1-2.7 0.1-5.5-0.2-8.1 -0.2-2.6-0.4-5.2-0.6-7.8 -0.4-5.2-0.8-10.5-1.2-15.8 -0.2-2.6-0.4-5.3-0.6-7.9l-0.3-4 -0.1-1c0-0.3 0-0.1 0-0.3l0-0.5 0-2c-0.1-2.7-0.1-5.4-0.3-8.1 -0.1-1.4-0.1-2.7-0.2-4.1l-0.4-4.1 -0.2-2c0 0.1 0 0.1 0 0.1l0.1-0.4 0.1-1 0.6-4c0.4-2.7 0.7-5.3 1.2-8 0.8-5.3 1.7-10.7 2.5-16 0.2-1.3 0.4-2.7 0.7-4l0.8-3.9 0.4-2 0.5-2 1-4c0.7-2.7 1.3-5.3 2-8 0.7-2.7 1.3-5.4 1.9-8.1 0.6-2.7 1.2-5.4 1.8-8.1 0.6-2.7 1-5.5 1.6-8.2 0.5-2.7 1-5.5 1.5-8.2 0.4-2.8 0.8-5.5 1.2-8.3 0.4-2.8 0.8-5.6 1.2-8.3 0.4-2.8 0.6-5.6 0.9-8.4 0.3-2.8 0.5-5.6 0.8-8.4l0.4-4.2c0.1-1.4 0.2-2.8 0.3-4.2 0.3-5.6 0.6-11.3 0.9-17 0.4-11.3 0.6-22.7 0-34.2 -0.5-11.5-1.8-23-4.6-34.4 -1.4-5.7-3.4-11.2-5.5-16.6 -1.1-2.7-2-5.3-2.9-7.9 -0.4-1.3-0.8-2.6-1.2-4 -0.4-1.4-0.7-2.8-1.2-4.2 -1.6-5.6-3.4-11.1-5.1-16.5 -1.7-5.5-3.2-10.9-3.9-16.4 -0.1-0.7-0.2-1.4-0.2-2.1l-0.1-2.1c0-0.7 0-1.4 0-2l0-0.4c0-0.1 0 0.1 0-0.1l0.2-1.1 1.9-8.5c1.3-5.6 2.5-11.3 3.7-17 1.1-5.7 2.3-11.4 3.4-17.1l0.8-4.3c0.3-1.4 0.5-2.9 0.7-4.3 0.4-2.9 1-5.7 1.2-8.7l0.4-4.4c-2.1 0.2 4.8-1.2-4.7 0.3l0.1 0.4c0.1 0.2 0.2 0.6 0.2 0.9l0.4 2c0.3 1.3 0.4 2.8 0.6 4.2l0.3 2.1 0.2 2.1c0.2 2.9 0.5 5.6 0.7 8.6l0.3 4.4 0.4 4.4c1 11.6 2.4 23.1 3.1 34.5 0.2 2.9 0.2 5.7 0.3 8.5 0.1 2.9 0.1 5.9 0.3 8.8 0.2 2.9 0.2 5.8 0.4 8.7l0.6 8.7c0.2 2.9 0.5 5.8 0.7 8.7 0.3 2.9 0.5 5.8 0.8 8.6l1 8.6 0.5 4.3c0.2 1.4 0.4 2.9 0.6 4.3 0.8 5.7 1.5 11.4 2.6 17.1 0.5 2.8 1 5.7 1.5 8.5 0.2 1.4 0.6 2.8 0.9 4.2l0.9 4.2 0.9 4.2 0.5 2.1 0.2 1c0.1 0.4 0.2 0.7 0.2 1 0.4 2.7 0.9 5.5 1.2 8.3 0.4 2.8 0.6 5.6 0.9 8.4 0.1 1.4 0.2 2.8 0.3 4.2 0.1 1.4 0.2 2.8 0.2 4.2 0.1 2.8 0.2 5.6 0 8.4l-0.1 2.1 0 1c0 0.2 0 0.2 0 0.2 0 0.1 0.1-0.1 0 0.1 -0.5 1.5-0.9 2.9-1.3 4.3 -1.4 5.7-2 11.6-1.9 17.5 0 1.5 0.1 2.9 0.2 4.4 0.2 1.5 0.3 2.9 0.5 4.4l0.4 2.2 0.1 0.5c0 0 0-0.2 0 0.2 0 0.7 0 1.4 0.1 2.1 0.1 1.4 0.4 2.7 0.8 3.6 0.5 0.9 1 1.4 1.8 1.8 0.4 0.2 1 0.3 1.4 0.2 0.4 0 0.8-0.3 1.2-0.4 0.2-0.1 0.4-0.2 0.6-0.3l0.6-0.6 0.6-0.6c0.2-0.2 0.4-0.4 0.5-0.7 0.6-1.1 1.4-2.1 1.8-3.5l0.2-0.7c0.1-0.2 0.1-0.4 0.2-0.6l0.2-1.2c0.2-0.8 0.2-1.5 0.3-2.3 0.1-0.8 0.1-1.5 0.2-2.2 0-0.7 0.1-1.5 0-2.2l0-0.5 0 0c0 0 0 0.1 0 0 0 0 0 0 0 0l0 0c0 0 0 0 0 0l0 0.5c0 0.6-0.1 1.3-0.1 2l0 0.5c0 0.2 0 0.2-0.1 0.4 -0.1 0.3-0.1 0.6-0.2 0.9 -0.1 0.6-0.3 1.3-0.4 1.9 -0.3 1.2-0.8 2.4-1.3 3.6 -0.2 0.6-0.5 1.1-0.8 1.6 -0.3 0.6-0.6 1-1 1.5l-0.3 0.3c-0.1 0.2-0.1 0.1-0.3 0.4 -0.3 0.4-0.5 0.7-0.7 1 -0.4 0.7-0.8 1.4-1.2 2.1 -0.4 0.7-0.7 1.5-0.9 2.3 -0.1 0.4-0.2 0.8-0.3 1.3 0 0.2-0.1 0.6-0.1 0.9l0 1c0 0.3 0 0.7 0.1 1l0.2 0.9c0.1 0.3 0.2 0.6 0.3 0.8 0.1 0.3 0.2 0.6 0.4 0.8l0.5 0.7c0.1 0.4 0.5 0.1 0.8 0.2 0.6 0.1 1.2 0 1.8 0 0.3 0 0.6-0.2 0.9-0.2l0.9-0.3c0.3-0.1 0.6-0.2 0.9-0.4 0.3-0.2 0.6-0.4 0.8-0.5 0.4-0.2 0.7-0.4 1.1-0.7l0.9-0.8c0.3-0.3 0.6-0.5 0.9-0.8l0.8-0.9c0.5-0.6 1.1-1.1 1.5-1.8 0.9-1.2 1.7-2.4 2.4-3.6 0.4-0.6 0.7-1.2 1.1-1.8l1-1.9 0.5-1c0.2-0.3 0.3-0.7 0.4-1l0.9-2c0.5-1.4 1-2.7 1.4-4.1 1.5-5.6 2-11.3 2.1-16.8l0-0.6c0-0.2-0.1-0.8-0.1-0.9l-0.2-1 -0.3-2 -0.6-4c-0.2-1.2-0.4-2.4-0.6-3.6l-0.1-0.7c-0.1-0.9-0.3-1.8-0.4-2.6 -0.5-3.3-1-6.1-1.2-7.6C490.6 447.7 489.1 443.6 486.6 437.6c-0.6 6.4-0.7 10.8 0.4 18.2 0.2 1.6 0.7 4.3 1.2 7.7 0.1 0.8 0.3 1.7 0.4 2.6 0 0.2 0.1 0.5 0.1 0.7 0.2 1.2 0.4 2.4 0.6 3.6l0.6 4 0.3 2 0.2 1c0 0.2 0 0 0 0.1l0 0.4c-0.2 5.3-0.6 10.6-1.9 15.6 -0.4 1.2-0.8 2.4-1.2 3.7l-0.8 1.8c-0.1 0.3-0.2 0.6-0.4 0.9l-0.5 0.9 -0.9 1.7c-0.3 0.6-0.7 1.1-1 1.7 -0.7 1.2-1.4 2.2-2.1 3.2 -0.3 0.5-0.8 1-1.2 1.4l-0.6 0.7c-0.2 0.2-0.4 0.4-0.6 0.6l-0.6 0.6c-0.2 0.2-0.4 0.3-0.7 0.4 -0.1 0.1-0.1 0.1-0.1 0.1l0 0c0 0 0 0 0 0l0 0c0 0 0 0 0-0.1 0-0.2 0.1-0.5 0.2-0.7 0.2-0.5 0.3-1 0.6-1.5 0.3-0.5 0.5-1 0.9-1.5 0.2-0.2 0.3-0.5 0.5-0.7l0.7-0.9c0.5-0.7 1-1.3 1.3-2 0.4-0.7 0.8-1.4 1.1-2.1 0.6-1.4 1.1-2.8 1.5-4.3 0.2-0.7 0.4-1.5 0.5-2.2 0.1-0.4 0.1-0.7 0.2-1.1 0-0.2 0.1-0.5 0.1-0.7l0-0.6c0.1-0.7 0.1-1.5 0.1-2.2l0-0.6c0-0.3 0-0.7 0-1 0-0.7-0.1-1.4-0.1-2 -0.2-1.3-0.5-2.4-1-3.3 -0.5-0.8-1.1-1.5-1.8-2 -0.3-0.3-0.7-0.4-1.2-0.6 -0.4-0.1-0.9-0.3-1.3-0.3 -0.5-0.1-0.9 0-1.4 0.2 -0.4 0.2-0.8 0.3-1.1 0.6 -0.6 0.4-1 1.1-1.4 1.9 -0.4 0.9-0.6 2-0.6 3.3 0 0.7 0 1.4 0 2.1l0 1.6c0 0.7 0 1.3 0 2 0 0.7 0 1.3-0.1 1.9 -0.1 0.6-0.1 1.3-0.3 1.9l-0.2 0.9c0 0.2-0.1 0.3-0.1 0.4 0 0.1-0.1 0.4-0.1 0.3l0 0c0 0 0 0 0 0 0 0 0 0 0 0l0 0c0 0.1 0-0.5-0.1-0.8l-0.1-0.6 -0.3-2c-0.2-1.3-0.3-2.7-0.5-4 -0.1-1.4-0.2-2.7-0.2-4.1 -0.1-5.4 0.5-10.9 1.8-16.2 0.3-1.3 0.7-2.6 1.1-3.8 0-0.1 0.2-0.6 0.3-0.9l0-0.9 0-1.1 0.1-2.2c0.1-2.9 0-5.8 0-8.7 0-1.4-0.1-2.9-0.2-4.3 -0.1-1.4-0.2-2.9-0.3-4.3 -0.3-2.9-0.5-5.7-0.9-8.6 -0.3-2.9-0.7-5.7-1.2-8.6 -0.1-0.4-0.1-0.8-0.2-1.1l-0.2-1 -0.5-2.1 -0.9-4.2 -0.9-4.2c-0.3-1.4-0.6-2.8-0.9-4.2 -0.5-2.8-1-5.6-1.5-8.4 -1.1-5.6-1.7-11.3-2.6-16.9 -0.2-1.4-0.4-2.8-0.6-4.3l-0.5-4.3 -1-8.5c-0.3-2.8-0.5-5.7-0.8-8.6 -0.2-2.9-0.5-5.7-0.7-8.6l-0.6-8.6c-0.2-2.9-0.3-5.7-0.4-8.6 -0.2-2.9-0.2-5.7-0.3-8.6 -0.1-2.9-0.1-5.9-0.3-8.8 -0.7-11.7-2.1-23.2-3.1-34.7l-0.4-4.3 -0.3-4.3c-0.2-2.8-0.4-5.8-0.7-8.8l-0.2-2.2 -0.3-2.2c-0.2-1.5-0.4-2.9-0.7-4.4l-0.5-2.2c-0.1-0.4-0.2-0.7-0.3-1.2l-0.2-0.6c-9.6 1.4-2.7 0.7-4.8 1.1l-0.4 4.2c-0.2 2.8-0.8 5.6-1.2 8.5 -0.2 1.4-0.4 2.8-0.7 4.3l-0.8 4.3c-1 5.7-2.2 11.3-3.3 17 -1.2 5.6-2.4 11.3-3.7 16.9l-1.9 8.4 -0.2 1.1c0 0.1-0.2 0.7-0.2 0.9l0 0.7c0 0.8 0 1.5 0 2.3l0.1 2.3c0.1 0.8 0.2 1.5 0.2 2.3 0.7 6 2.3 11.7 4 17.2 1.7 5.5 3.5 11 5.1 16.5 0.4 1.4 0.8 2.7 1.1 4.1 0.4 1.4 0.8 2.9 1.2 4.3 0.9 2.8 2 5.6 3 8.2 2.1 5.3 4 10.6 5.4 16 2.7 10.9 4 22.1 4.5 33.4 0.5 11.3 0.4 22.6 0 33.8 -0.3 5.6-0.6 11.2-0.9 16.8 -0.1 1.4-0.1 2.8-0.3 4.2l-0.4 4.2c-0.3 2.8-0.5 5.6-0.8 8.3 -0.3 2.8-0.5 5.5-0.9 8.3 -0.4 2.7-0.8 5.5-1.2 8.2 -0.4 2.7-0.8 5.5-1.2 8.2 -0.5 2.7-1 5.4-1.5 8.1 -0.5 2.7-0.9 5.4-1.5 8.1 -0.6 2.7-1.2 5.4-1.8 8 -0.6 2.7-1.2 5.3-1.9 8 -0.7 2.7-1.3 5.3-2 8l-1 4 -0.5 2 -0.4 2.1 -0.9 4.1c-0.3 1.4-0.4 2.7-0.7 4.1 -0.9 5.4-1.7 10.8-2.5 16.1 -0.4 2.7-0.8 5.4-1.2 8l-0.6 4 -0.1 1 -0.1 0.6c-0.1 0.4-0.1 0.6 0 1.1l0.2 2 0.4 3.9c0.1 1.3 0.1 2.6 0.2 4 0.2 2.6 0.2 5.3 0.3 7.9l0 2 0 0.5c0 0.1 0 0.7 0 0.7l0.1 1 0.3 4c0.2 2.6 0.4 5.3 0.6 7.9 0.4 5.3 0.8 10.5 1.2 15.8 0.3 5.2 1 10.5 0.8 15.4 -0.1 2.5-0.2 5.1-0.5 7.7l-0.3 3.8 -0.4 3.8c-1.1 10.2-2.6 20.3-4.1 30.3 -3 20-6.3 39.5-9.5 58.7 -0.8 4.8-1.3 9.9-1.2 14.8 0.1 2.5 0.3 5 0.7 7.5l0.2 1c0 0.2 0.1 0.3 0.1 0.5 0.1 0.2 0.1 0.3 0.1 0.5l0.5 1.7c0.4 1.2 0.7 2.3 1.1 3.5 1.6 4.6 3.4 9 5.4 13.3 1 2.1 2 4.3 3.1 6.4 0.2 0.5 0.7 1.3 0.5 1.1l0.1 0.5c0 0.2 0.1 0.5 0.1 0.7 0.1 1 0 1.9-0.2 2.8 -0.2 0.9-0.5 1.6-0.9 2.3 -0.5 0.7-1 1.2-1.7 1.7 -1.4 1-3.4 1.5-5.3 1.8 -2 0.3-4.1 0.3-6.2 0.1 -0.5 0-1-0.1-1.6-0.2l-0.8-0.1 -0.9-0.1 -1.5-0.3c-0.5-0.1-0.9-0.3-1.4-0.4 -1.8-0.6-3.4-1.5-4.5-2.7 -1.1-1.3-1.8-2.9-2.2-4.7 -0.3-1.8-0.3-3.8-0.1-5.8 0.3-2 0.6-4.3 0.9-6.4 0.3-2.1 0.6-4.3 1-6.4l0.1-0.8 0.1-0.7c0-0.2 0-0.7 0-0.8l-0.1-1.5c-0.1-1-0.2-2-0.2-3.1 -0.2-4.1 0.1-8.3 0.3-12.4 0.1-2.1 0.2-4.1 0.4-6.2 0.1-1 0.2-2.1 0.2-3.1 0-1.1 0.1-2.1 0.1-3.2 0.1-2.1 0.2-4.2 0.2-6.2 0-2 0-4.1 0-6.1 -0.2-16.2-1-31.7-1.9-46.5 -0.1-1.8-0.2-3.7-0.3-5.5 -0.1-0.9-0.1-1.9-0.2-2.8 -0.1-0.9-0.2-1.8-0.2-2.7 -0.2-1.8-0.3-3.6-0.5-5.3 -0.1-0.9-0.2-1.8-0.2-2.6 0-0.9-0.1-1.7-0.1-2.6 -0.2-3.5-0.4-6.9-0.4-10.3 0-1.7-0.1-3.4-0.1-5.1 0-1.7 0.1-3.3 0.1-5 0-3.3 0.2-6.6 0.4-9.8 0.2-3.2 0.4-6.4 0.7-9.5 0.3-3.1 0.6-6.2 0.9-9.3 0.3-3.1 0.4-6.2 0.4-9.2 0-0.8-0.1-1.7-0.1-2.4 -0.1-0.7-0.2-1.5-0.3-2.2 -0.2-1.5-0.4-2.9-0.6-4.3 -0.4-2.8-0.8-5.7-1.3-8.4 -0.9-5.4-1.4-10.6-1.8-15.5 -0.1-1.2-0.1-2.5-0.2-3.7 0-0.6 0-1.2 0-1.8 0-0.6 0-1.2 0-1.8 0-1.2 0.1-2.3 0.2-3.4 0.1-1.2 0.2-2.4 0.3-3.6 0.1-1.2 0.2-2.4 0.2-3.5 0-1.1 0.1-2.3 0.1-3.4 0.1-2.2 0.1-4.4 0.2-6.5 0-1.4 0-2.7 0-3.9 0-0.1 0-0.3 0-0.4l0-0.2c0-0.1 0-0.3 0-0.4 0-0.3 0-0.5-0.1-0.8 0-0.5-0.1-1-0.1-1.5 -0.1-1.9-0.3-3.3-0.4-4.5 -0.2-2.3-0.3-3.5-0.4-4.7 -0.9-11.5-1.1-13.9-1.3-16.2 -2.4-30.5-4.7-59.5-6.9-87.1 -0.9-0.1-1.8 0-2.6 0 -0.4 0-0.9 0-1.3 0l-0.6 0 -0.2 0 -0.1 0 0 0c0-0.1 0 0.1 0 0.3 -0.1 1.4-0.2 2.7-0.3 4 -1.2 15.3-2.4 30.3-3.5 44.8 -1.6 20.4-3.1 39.7-4.6 57.9 -0.2 2.3-0.4 4.5-0.5 6.8l-0.1 1.7c0 0.1 0 0.3 0 0.4l0 0.2 0 0.4 0 0.8c0 1.1 0 2.2 0 3.4 0 2.2 0.1 4.5 0.2 6.7 0 2.2 0.2 4.4 0.4 6.6 0.1 1.1 0.2 2.1 0.2 3.2l0.1 1.5 0 1.5c0 1 0 2 0 3.1 0 1 0 2-0.1 3.1 -0.2 4.1-0.6 8.1-1.1 12.1 -0.1 1-0.3 2-0.4 3 -0.2 1-0.3 2-0.5 2.9 -0.3 1.9-0.6 4-0.9 5.9 -0.3 2-0.6 3.9-0.9 5.8 -0.4 1.8-0.4 4.2-0.4 6.1l0 1.5 0.1 1.4c0.1 1 0.1 1.9 0.2 2.9 0.2 1.9 0.4 3.8 0.5 5.6 0.4 3.6 0.8 7.2 1 10.7 1.1 14.1 0.8 27.3-0.1 39.5 -0.1 1.5-0.3 3.1-0.4 4.6 -0.1 1.5-0.3 3-0.4 4.5 -0.2 3-0.4 5.9-0.5 8.8 -0.3 5.8-0.6 11.3-0.9 16.6 -0.5 10.7-0.9 20.5-0.9 29.6 0 2.3-0.1 4.5 0 6.7 0.1 2.2 0.1 4.4 0.2 6.5 0.1 2.1 0.3 4.1 0.4 6 0.1 1.9 0.2 3.8 0.3 5.7 0.1 1.9 0.2 3.7 0.2 5.4 0 1.8 0 3.5 0 5.1 0 1.7-0.2 3.2-0.3 4.8l0 0.3c0 0.3-0.1 0.4 0 0.7l0.1 0.8c0.1 0.4 0.1 0.8 0.2 1.2 0.1 0.8 0.2 1.5 0.3 2.3 0.5 3 0.9 5.9 1.3 8.5 0.4 2.6 0.5 4.9 0.2 6.9 -0.3 2-1.1 3.7-2.1 4.9 -1 1.2-2.4 2-3.8 2.6 -0.3 0.2-0.7 0.2-1 0.3 -0.4 0.1-0.6 0.2-1 0.3 -0.8 0.1-1.6 0.3-2.3 0.4 -1.4 0.2-2.7 0.3-3.9 0.4 -2.4 0.1-4.2-0.1-5.6-0.3 -1.4-0.2-2.3-0.6-2.8-0.8 -0.3-0.1-0.5-0.2-0.6-0.3 -0.1-0.1-0.2-0.1-0.2-0.1 0 0-0.3-0.1-0.9-0.5 -0.5-0.4-1.3-1-2-2.1 -0.2-0.3-0.3-0.6-0.5-1 -0.1-0.4-0.3-0.8-0.3-1.2 -0.2-0.9-0.2-2 0-3.3 0-0.2 0-0.4 0.1-0.6l0 0 0.1-0.2c0.1-0.2 0.2-0.4 0.3-0.5 0.4-0.7 0.8-1.5 1.1-2.3 0.8-1.6 1.6-3.4 2.5-5.3 1.7-3.8 3.6-8.3 5.4-13.5 0.4-1.3 0.9-2.7 1.3-4.1 0.2-0.8 0.4-1.6 0.5-2.4 0.1-0.8 0.2-1.6 0.3-2.4 0.1-0.8 0.2-1.6 0.2-2.4 0.1-0.8 0.1-1.7 0.1-2.5 0-0.8 0-1.7 0-2.6 0-0.9-0.1-1.7-0.1-2.6 0-0.9-0.1-1.8-0.2-2.7 -0.1-0.9-0.2-1.8-0.3-2.7 -0.2-1.8-0.5-3.7-0.8-5.6 -0.6-3.8-1.3-7.7-1.9-11.8 -1.4-8.3-2.8-17.3-4.5-27.1 -1.6-9.9-3.2-20.6-4.8-32.2 -0.4-2.9-0.8-5.9-1.2-8.9 -0.4-3-0.7-6.1-1.1-9.2 -0.2-1.6-0.3-3.1-0.5-4.7 -0.1-1.6-0.3-3.2-0.4-4.8 -0.1-1.6-0.2-3.2-0.2-4.8 0-0.8 0-1.6 0-2.4 0-0.8 0-1.6 0.1-2.5 0.5-6.8 1-13.8 1.6-21 0.3-3.6 0.5-7.3 0.8-11 0.1-1.9 0.3-3.8 0.4-5.7l0.1-0.7c0-0.1 0-0.2 0-0.4l0-0.2 0-0.4 0-1.4c0-1 0-1.9 0.1-2.9 0-1.9 0.1-3.9 0.2-5.8 0-1 0.1-2 0.1-2.9 0-1 0.2-1.9 0.3-2.9 0.1-1 0.2-2 0.3-2.9l0.1-0.7 0.1-0.6c0.1-0.3 0-0.5 0-0.7l-0.2-1.5c-0.3-2-0.6-4.1-0.9-6.1 -1.2-8.2-2.6-16.7-4-25.4 -0.4-2.2-0.9-4.4-1.4-6.7 -0.5-2.2-1.1-4.4-1.6-6.6 -1.1-4.4-2.2-8.8-3.3-13.4 -0.5-2.3-1-4.5-1.5-6.8 -0.5-2.3-1.1-4.6-1.5-7 -0.8-4.7-1.8-9.4-2.6-14.3 -3.2-19.4-4.7-40.2-5.5-62.1 -0.1-2.7-0.1-5.5-0.2-8.3 0-2.8 0-5.6 0-8.4 0-2.8 0.1-5.6 0.2-8.5 0.1-1.4 0.1-2.8 0.2-4.3 0.1-1.4 0.2-2.9 0.3-4.3 0.3-5.7 1-11.5 1.9-17.3 1-5.8 2.3-11.5 4.1-17.2 0.9-2.8 2-5.7 3.1-8.5 1.1-2.9 2.3-5.8 3.3-8.9 0.5-1.5 0.9-3.2 1.4-4.7 0.4-1.5 0.8-3 1.3-4.5 0.9-3 1.8-6 2.8-9.1 1.9-6.1 4-12.3 5.4-19 0.7-3.3 1.1-6.8 1.2-10.3l0-1.3 0-0.7c0-0.2 0-0.7-0.1-1.1l-0.6-2.5c-0.4-1.6-0.7-3.3-1.1-4.9l0 0c0.5 2.1 0.9 4.1 1.3 5.9 0.1 0.4 0.2 0.9 0.3 1.3l0.1 0.5c0.1 0.2 0 0.4 0 0.6 0 0.2 0 0.5 0 0.7 0 0.9 0 1.7 0 2.4 0 0.8-0.1 1.5-0.1 2.1 -0.1 0.6-0.1 1.2-0.2 1.8 -0.1 1.1-0.3 2-0.4 2.7 -0.1 0.7-0.2 1.3-0.3 1.6 -0.1 0.4-0.1 0.5-0.1 0.6 0 0 0-0.1 0.1-0.5 0.1-0.3 0.2-0.8 0.3-1.4 0.2-1.3 0.5-3.2 0.7-5.8 0-0.6 0.1-1.3 0.1-2.1 0-0.8 0-1.6 0-2.5 -0.4-1.6-0.7-3.3-1.2-5.1 -1.6-7-3.6-16.1-5.8-27 -1.1-5.4-2.2-11.4-3.4-17.7 -0.2-1.6-0.5-3.2-0.8-4.8 -0.1-0.8-0.3-1.6-0.4-2.5 -0.1-0.8-0.3-1.7-0.3-2.5 -0.2-1.7-0.3-3.3-0.5-5l-0.1-0.6 0-0.3 0-0.2c1 0.1-9-1.4-4.8-0.7l0 0.1c-0.2 0.5-0.3 1.1-0.4 1.5 -0.2 0.9-0.4 1.9-0.6 2.8 -0.3 1.8-0.5 3.7-0.8 5.6 -0.2 1.9-0.3 3.8-0.5 5.7 -0.3 3.8-0.6 7.6-0.9 11.6 -0.7 7.8-1.6 16-2.3 24.6 -0.4 4.3-0.8 8.6-1 13.1 -0.2 2.2-0.2 4.5-0.3 6.8 0 2.2-0.1 4.5-0.2 6.7 -0.3 9-0.9 18.2-1.7 27.7 -1.7 18.9-4 38.5-8.1 58.2 1.5-6.8 1-4.3-0.6 2.8 -0.4 1.8-0.9 3.8-1.4 6.1 -0.1 0.6-0.3 1.2-0.4 1.8 -0.1 0.6-0.3 1.4-0.4 2 -0.2 1.3-0.4 2.6-0.6 4 -0.7 5.5-1.4 11.6-1.7 17.8 0.4-6 0.2-3.7-0.1 3 0 1.7-0.1 3.6-0.1 5.7 0 1.1 0.1 2.2 0.1 3.4 0 0.6 0 1.2 0.1 1.8 0 0.3 0 0.6 0 0.9l0 0.5 0 0.4c0 0.2 0 0.3 0.1 0.4 0.3 0.7 0.3 0.8 0.4 1.1 0.1 0.3 0.2 0.5 0.3 0.8 0.2 0.6 0.3 1.1 0.5 1.7 0.3 1.2 0.6 2.4 0.8 3.6 0.5 2.5 0.8 5.1 1 7.7 0-0.6 0-0.1 0.1 1.3 0 0.7 0 1.6 0.1 2.7 0 1.1 0 2.5-0.1 4.1 -0.1 1.6-0.3 3.4-0.5 5.4 -0.1 0.5-0.2 1-0.3 1.5 0 0.3-0.1 0.5-0.1 0.8l-0.1 0.4 -0.1 0.4c0 0.1 0 0.3 0 0.4l0 0.2v0 0l0 0 0 0 0 0c0 0 0 0 0 0l0 0 0-0.1 -0.1-0.2c-0.1-0.1-0.1-0.3-0.1-0.5 -0.1-0.3-0.1-0.6-0.2-1 -0.2-0.6-0.2-1.4-0.3-2.1 -0.1-0.7-0.1-1.5-0.1-2.2 0-0.4 0-0.8 0-1.2 0-0.6 0-1.2 0-1.8 0-0.8 0.1-1.7 0-2.5 -0.1-0.8-0.2-1.5-0.3-2.1 -0.2-0.6-0.4-1.2-0.7-1.6 -0.3-0.5-0.6-0.8-0.9-1.1 -0.4-0.3-0.8-0.5-1.4-0.7 -0.6-0.2-1.2-0.1-1.8 0 -1.2 0.3-2.1 0.9-2.9 1.8 -0.8 0.9-1.4 2.1-1.7 3.9 -0.1 0.9-0.2 1.8-0.2 2.8 0 0.2 0 0.5 0 0.7l0 0.4 0 0.8c0 0.5 0.1 1 0.1 1.5 0 0.3 0 0.5 0.1 0.8 0 0.4 0.1 0.6 0.1 0.9 0.2 1.1 0.4 2.1 0.7 3.2 0.1 0.5 0.3 1.1 0.5 1.6 0.2 0.5 0.4 1.1 0.6 1.6 0.2 0.5 0.4 1.1 0.7 1.6 0.3 0.6 0.6 1.1 0.9 1.7 0.3 0.6 0.6 0.9 1 1.4 0.3 0.4 0.6 0.8 1 1.3 0.5 0.7 1 1.6 1.4 2.4 0.2 0.4 0.3 0.8 0.4 1.2 0 0.2 0.1 0.4 0.1 0.6 0 0.2 0 0.1 0 0.1 0 0 0 0 0 0l0 0c0 0 0.1 0.1-0.4-0.3 -0.4-0.2-0.7-0.6-1.1-0.9 -0.4-0.3-0.7-0.7-1.1-1.1 -0.3-0.4-0.7-0.8-1-1.2 -0.3-0.5-0.6-0.9-1-1.4 -0.7-0.9-1.2-1.9-1.9-2.9 -0.6-1-1.1-2.1-1.7-3.1 -0.5-1.1-0.9-2.2-1.4-3.3 -1.7-4.4-2.5-9.4-2.8-14.7 -0.1-1.3-0.1-2.6-0.2-4l0-0.9 0 0c0 0 0-0.1 0-0.2l0.1-0.5c0.1-0.7 0.2-1.4 0.3-2 0.4-2.7 0.9-5.5 1.3-8.3 0.9-5.6 1.8-11.4 2.7-17.3 0.5-2.9 0.9-5.9 1.4-8.9 0.1-0.8 0.3-1.6 0.4-2.4 0-0.8 0-1.6 0-2.5 0-1.5 0-3.1 0-4.6 0-6.2 0-12.5 0-19 0-3.2-0.1-6.5-0.1-9.8 -0.1-3.3-0.2-6.6-0.3-10 -0.2-6.6-0.4-13.4-0.5-20.2 0-13.7 0.4-27.7 2-42 0.4-3.6 0.7-7.2 1.1-10.8 0.4-3.6 0.9-7.3 1.3-11 0.2-1.8 0.4-3.7 0.6-5.6 0.2-1.9 0.3-3.7 0.5-5.6l0.2-2.8 0.1-1.4 0-1.4c0.1-1.9 0.1-3.8 0.2-5.7 0.1-1.9 0.1-3.8 0.2-5.7 0.1-1.9 0-3.8 0-5.7 0-3.8-0.1-7.7-0.1-11.5l0-1.4 0-0.7c0-0.1 0-0.4 0-0.6l0-0.4 -0.3-2.8c-0.2-1.9-0.4-3.8-0.6-5.7 -0.4-3.8-0.7-7.7-0.9-11.5 -0.5-7.7-0.9-15.5-0.9-23.3 0-7.8 0.2-15.7 1.3-23.4 0.6-3.8 1.3-7.6 2.6-11.1 0.6-1.6 1.5-3.2 2.6-4.7 1.1-1.5 2.3-2.9 3.7-4 2.7-2.4 6.1-4.1 9.6-5l1.4-0.3 0.7-0.2 0.7-0.1 2.9-0.4c2.1-0.3 4.1-0.6 6.1-0.9 4.1-0.8 8.1-1.7 12.1-3.1 2-0.7 4-1.5 5.9-2.6 1.9-1.1 3.9-2.5 5.4-4.7l0.5-0.9 0.4-0.6 0.7-1.3c0.5-0.8 1-1.7 1.5-2.6 0.5-0.9 1.1-1.9 1.6-2.8l0.7-1.5c0.2-0.5 0.5-1 0.6-1.6 0.3-1.1 0.7-2.2 0.9-3.3 0.2-1.1 0.4-2.2 0.5-3.2l0.3-3.2 0.1-3.1v0c0 0 0-0.2 0-0.6 0-0.3 0-0.6 0-1 0-0.3 0-0.6 0-1 0.1-0.2-0.1-0.3-0.2-0.5 -0.1-0.2-0.2-0.3-0.3-0.5 -0.3-0.4-0.6-0.8-0.9-1.3 -0.3-0.4-0.5-0.8-0.8-1.3 -0.6-0.9-1.2-2-1.9-3.2 -0.6-1.2-1.4-2.5-2-4 -0.3-0.7-0.7-1.4-1-2.2 -0.3-0.8-0.6-1.5-1-2.3 -0.7-1.6-1.2-3.3-1.8-5l-0.2-0.6 -0.1-0.2 0 0 0 0c-8.9-1.1-2.5-0.3-4.5-0.6l0.1-0.1c-0.2-0.2 1.8 1.3 0.9 0.6l0 0 -0.1 0 -0.1-0.1 -0.2-0.1 0 0 0 0c0.1 0.1 0.1 0.2 0.1 0.2 0 0 0 0.1 0 0.1l0 0c0 0 0 0 0 0 0 0 0-0.1 0-0.1 0 0 0-0.1 0-0.1 0 0 0-0.2 0.1-0.3 0.1-0.2 0.1-0.3 0.2-0.5l0-0.1c0 0 0 0 0 0l0 0 0 0c0 0-0.1-0.1-0.2-0.2 -0.1-0.1-0.2-0.2-0.3-0.3 -0.1-0.1-0.2-0.2-0.3-0.4 -0.1-0.2-0.9-1.4-1.9-3.8 -0.2-0.6-0.5-1.3-0.8-2 -0.2-0.7-0.5-1.5-0.8-2.4 -0.5-1.7-1.1-3.6-1.4-5.6 -0.1-0.5-0.1-1-0.2-1.4 0-0.4 0-0.9 0.1-1 0-0.1 0.1 0 0-0.1 -0.1-0.1-0.2-0.1-0.4-0.2l-0.3-0.2c-0.3-0.2-0.3-0.3-0.2-0.1 0 0.1 0 0.1 0.1 0.3 0 0.1 0 0.1 0 0.2l0 0.1 0 0c0.1 0.1-0.2-0.3 0.2 0.3l0 0c0.3 0.1 0.7 0.2 1 0.3 0.7 0.2 1.3 0.2 1.9 0.4 0.5 0.1 1.1 0.2 1.6 0.2l0.4 0.1 0.2 0c0.1 0 0-0.1 0-0.2l-0.2-1c-0.2-1.4-0.5-2.7-0.7-4 -0.1-0.5-0.1-1-0.2-1.5l-0.1-1c0-0.6-0.1-1.3-0.1-2 -0.2-5.3 0.2-10.9 1.6-16.2 1.3-5.2 3.7-10 7.1-13.9l0.6-0.7 0.7-0.7c0.2-0.2 0.5-0.5 0.7-0.7l1.2-1 0.8-0.7 0.4-0.3c0.1-0.1 0.3-0.2 0.2-0.4 -0.2-0.7-0.5-1.4-0.6-2.1l-0.1-0.5 0-0.2 -0.1-0.5c-0.1-0.3-0.1-0.6-0.1-0.9 -0.3-2.5-0.1-5 0.7-7.1 0.8-2.2 2.4-3.9 4.4-5.2 2-1.2 4.5-2 7-2.5l1.9-0.3 2-0.2c1.3 0 2.7-0.1 4.1-0.1l4.2 0c1.4 0 2.9 0 4.2 0 2.7 0.1 5.3 0.3 7.8 1 1.2 0.3 2.4 0.8 3.5 1.3 1.1 0.6 2.1 1.2 2.9 2 1.7 1.6 2.8 3.6 3.2 6 0.2 1.2 0.3 2.4 0.2 3.6 0 0.6-0.1 1.2-0.2 1.9 0 0.3-0.1 0.6-0.2 0.9l0 0.2 -0.1 0.5c-0.1 0.3-0.2 0.7-0.3 1l-0.3 1c-0.1 0.2 0.2 0.3 0.3 0.4l0.4 0.3 1.6 1.4c0.6 0.5 1 0.9 1.4 1.4 0.9 0.9 1.7 1.9 2.5 3 1.6 2.1 2.8 4.4 3.8 6.8 2 4.9 3 10.2 3.3 15.6 0.1 2.7 0.1 5.4-0.1 8.1 -0.1 1.3-0.3 2.7-0.5 4 -2.4-2.5 3.2 3.7 3 3 0.2 0 0.4-0.1 0.5-0.1l0.6-0.2 0.1 0 0 0 0 0c0 0 0 0 0 0l0 0c0 0 0 0 0 0l0 0.1c0 0.5-0.1 1.1-0.2 1.7 -0.2 1.2-0.5 2.5-0.9 3.8 -0.7 2.6-1.6 5.2-2.7 7.5 -0.5 1.2-1.1 2.3-1.7 3 -0.1 0.1-0.1 0.1-0.2 0.2 -0.1 0.1-0.1 0.2-0.1 0.1 0 0 0 0 0 0 -0.1-0.1 0.1 0.3 0.1 0.3 0.1 0.1 0.1 0.2 0.1 0.4 0 0.2 0 0.2 0.1 0.3 0 0 0 0.1 0 0.2 0 0 0 0 0 0 0 0 0-0.1 0-0.1l0.1-0.1 0.1-0.1c0.5-0.4-1.2 0.8 0.6-0.4 -8.8 1.3-2.5 0.5-4.5 0.9l-0.1 0.2 -1.3 3.8 -1.5 3.7c-0.6 1.2-1.1 2.5-1.7 3.7 -0.6 1.2-1.2 2.4-1.9 3.6 -0.7 1.2-1.4 2.3-2.1 3.5l-0.5 0.8 -0.5 0.7 -0.3 0.4c-0.1 0.2-0.3 0.3-0.2 0.5l0.1 2.8c0.1 1.4 0 2.8 0.2 4.3 0.1 1.5 0.2 2.9 0.5 4.4 0.2 0.7 0.2 1.5 0.4 2.2l0.7 2.2c0.6 1.4 1.2 2.9 2 4.1 0.4 0.7 0.7 1.3 1.1 1.8 0.4 0.6 0.7 1.2 1.1 1.8l1 1.8 0.3 0.4 0.3 0.6c0.2 0.4 0.5 0.8 0.8 1.1 1.1 1.4 2.4 2.4 3.7 3.2 1.3 0.8 2.7 1.5 4 2.1 5.4 2.3 10.9 3.6 16.5 4.6 1.4 0.2 2.8 0.5 4.2 0.6 1.5 0.2 2.7 0.4 4 0.5 2.5 0.5 4.9 1.2 7.1 2.3 2.2 1.1 4.3 2.6 6 4.3 1.8 1.7 3.2 3.8 4.3 6 0.3 0.5 0.5 1.1 0.7 1.6 0.1 0.2 0.2 0.6 0.3 0.9l0.3 0.9c0.2 0.6 0.4 1.2 0.5 1.9 0.2 0.6 0.3 1.2 0.5 1.9 0.6 2.5 1 5.2 1.3 7.8 0.6 5.3 0.9 10.6 1 16 0.1 5.3 0 10.7-0.2 16 -0.4 10.7-1.2 21.3-2.4 31.8l-0.1 1 0 0.3c0 0.1 0 0.3 0 0.4l0 0.5 0 2 -0.1 4c0 2.7-0.1 5.3-0.1 8l0 4 0.1 4c0.1 2.7 0.2 5.3 0.2 7.9l0.1 2c0 0.7 0.1 1.3 0.2 2l0.3 3.9c0.2 2.6 0.4 5.2 0.7 7.8 0.6 5.2 1.2 10.3 1.9 15.5 0.5 5.1 1 10.2 1.6 15.2 0.4 5.1 0.6 10.1 0.9 15.1 0.2 2.5 0.2 5 0.2 7.5 0 2.5 0.1 5 0.1 7.5 0 1.2 0 2.5 0 3.7l-0.1 3.7c-0.1 2.5-0.1 5-0.2 7.4 -0.2 9.9-0.7 19.9-0.7 29.6 0 3.5 0 6.4 0 8.1C484.1 427.1 484.9 431.4 486.6 437.6z" class="a"/><path d="M402.8 392.6c0 1.9-1.6 3.5-3.5 3.5 -1.9 0-3.5-1.6-3.5-3.5 0-1.9 1.6-3.5 3.5-3.5" class="a"/><path d="M402.8 392.6c-0.8 0.4-1.4 0.5-1.9 0.5 -0.4 0-0.7 0-0.8 0.1 -0.1 0.1-0.4 0.4-0.8 0.4 -0.4 0-0.7-0.3-0.7-0.3 0 0-0.3-0.3-0.3-0.7 0-0.4 0.3-0.8 0.4-0.8 0.1-0.1 0.1-0.3 0.1-0.8 0-0.5 0.1-1.1 0.5-1.9 -0.8-1.5-2.2-2.2-3.5-1.3 -0.2 0.1-0.4 0.3-0.7 0.6 -0.3 0.3-0.6 0.6-0.8 1.1 -0.6 0.9-0.9 2.1-0.9 3.3 0 1.2 0.5 2.2 0.9 2.9 0.2 0.4 0.4 0.6 0.6 0.8 0.2 0.2 0.2 0.3 0.2 0.3s0.1 0.1 0.3 0.2c0.2 0.1 0.4 0.4 0.8 0.6 0.7 0.4 1.8 0.9 2.9 0.9 1.2 0 2.4-0.3 3.3-0.9 0.5-0.3 0.8-0.6 1.1-0.8 0.3-0.3 0.5-0.5 0.6-0.7C405 394.8 404.4 393.4 402.8 392.6z" class="a"/><path d="M251.7 354.7c0.3-1.6 1.7 7.7 2 6.2 0.2-1.5-0.5-22.7-0.4-24.2 0.1-1.5 0-3-0.1-4.6 -0.1-1.6-0.3-3.4-0.6-5.3 -0.3-1.6-0.7-4.4-1.5-7.7 -0.2-0.8-0.3-1.6-0.5-2.4 -0.5-2.4-1.2-4.9-1.8-7.3 -0.3-1.2-0.7-2.4-1-3.7 -0.4-1.2-0.7-2.4-1.1-3.7l-1.3-3.7 -0.3-0.8c0 0.2 0-0.1 0-0.3 0-0.6-0.1-1-0.1-1.7 -0.1-2.5-0.1-5-0.2-7.5 0-1.3-0.1-2.5-0.1-3.7 0-1.2 0.1-2.4 0.1-3.7 0.3-5 0.7-10.1 1-15.3 0.5-10.3 0.6-20.9-1.1-31.4 -0.1-0.7-0.2-1.3-0.3-2l-0.4-2 -0.4-2c-0.1-0.7-0.4-1.3-0.5-2l-0.6-1.9c0 0.1 0 0.1 0 0.1l0 0 0.1-0.5c0.4-1.3 0.7-2.6 1-4 1.2-5.3 1.9-10.7 2.1-16.1 0.5-10.9-1-21.9-4.7-32.4 -1.9-5.2-4.2-10.3-7.1-15 -0.7-1.2-1.5-2.3-2.2-3.5 -0.8-1.3-1.8-2.5-2.8-3.5 -2-2.1-4.4-4-7-5.5 -2.6-1.5-5.4-2.5-8.4-3.1l-1.1-0.2c-0.4-0.1-0.7-0.1-1.1-0.1 -0.7-0.1-1.5-0.2-2.2-0.2l-2.2 0 0.1 0 0 0 -0.9-0.4c-5-2.2-9.9-4.5-14.9-6.9 -4.9-2.4-9.9-4.8-14.7-7.3 -4.9-2.5-9.7-5.2-13.8-8.2 -0.5-0.4-1-1.3-1.3-2.3 -0.1-0.2-0.2-0.5-0.2-0.8 -0.1-0.3-0.1-0.6-0.2-0.9 -0.1-0.6-0.2-1.2-0.2-1.8 -0.2-2.5-0.1-5.2 0.3-7.8 0.1-1.3 0.4-2.7 0.6-4 0.1-0.4 0 0 0.1-0.3 0.2-0.3 0.3-0.7 0.5-1 0.3-0.7 0.6-1.4 0.9-2 1.1-2.7 2-5.6 2.6-8.5 0.2-0.7 0.3-1.5 0.4-2.2l0.1-0.5c0-0.1 0 0 0 0l0 0 0 0c0 0 0 0.1 0.1-0.1 1.1-1.2 1.9-2.5 2.7-3.8 1.6-2.6 2.7-5.5 3.5-8.4 0.8-2.9 1.2-5.9 1.3-8.9l0-1.1 0-0.6c0-0.2 0-0.4 0-0.8 0-0.2-0.1-0.4-0.1-0.5l-0.1-0.3c-0.1-0.2-0.1-0.4-0.2-0.6 -0.1-0.4-0.3-0.9-0.5-1.3 -0.4-0.9-0.9-1.8-2-2.6 -0.1-0.1-0.3-0.2-0.4-0.3l-0.4-0.2 0 0 0 0 0 0 0 0 0 0c0 0 0 0 0-0.1l0.1-2.2c0.1-1.4 0.1-2.9 0.1-4.3 0-2.9 0-5.8-0.2-8.7 -0.2-2.9-0.5-5.8-1-8.7 -0.5-2.9-1.3-5.8-2.5-8.7 -0.6-1.4-1.4-2.9-2.3-4.2 -0.4-0.6-0.1 0-0.4-0.6 -0.2-0.4-0.4-0.7-0.6-1 -0.4-0.7-0.9-1.3-1.3-1.9 -1.9-2.5-4.1-4.6-6.5-6.5 -1.2-1-2.5-1.8-3.8-2.6 -1.3-0.7-2.7-1.5-4.1-2 -2.8-1.3-5.8-2-8.7-2.6 -1.5-0.2-3-0.4-4.5-0.6l-4.5-0.2 -4.5 0.2c-1.5 0.2-3 0.3-4.5 0.6 -3 0.6-5.9 1.4-8.7 2.7 -1.4 0.6-2.8 1.3-4.1 2.1 -1.3 0.8-2.6 1.6-3.8 2.6 -2.4 1.9-4.6 4.1-6.5 6.6 -0.5 0.6-0.9 1.3-1.3 2 -0.2 0.3-0.4 0.7-0.6 1.1l0 0.1c0 0 0.1-0.1 0 0.1l-0.4 0.5c-1 1.4-1.7 2.8-2.3 4.3 -1.2 2.9-1.9 5.9-2.4 8.8 -0.5 2.9-0.8 5.9-1 8.8 -0.2 2.9-0.2 5.9-0.2 8.8 0 1.5 0.1 2.9 0.2 4.4l0.1 1.1 0 0.5 0 0c0 0 0 0 0 0l0 0 0 0 -0.4 0.2c-0.6 0.4-1 0.8-1.4 1.3 -0.7 0.9-1.1 1.8-1.4 2.7 -0.2 0.5-0.3 0.8-0.4 1.4 -0.1 0.3-0.1 0.8-0.1 0.9l0 0.6c0 0.8 0 1.5 0 2.3 0.1 3.1 0.7 6.1 1.6 9.1 0.9 3 2.2 5.8 4 8.4 0.4 0.7 0.9 1.3 1.4 1.9l0.4 0.5 0.2 0.2c0.1 0.1 0 0 0 0 0 0 0 0 0 0l0.3 2.1c0.1 0.7 0.3 1.5 0.5 2.2 0.7 2.9 1.7 5.8 2.9 8.6 0.2 0.3 0.3 0.7 0.5 1l0.2 0.5c0 0 0 0 0 0l0.3 1.9c0.3 1.4 0.4 2.7 0.5 4.1 0.2 2.3 0.2 4.5 0 6.6 -0.1 1-0.3 2-0.6 2.9 -0.3 0.9-0.7 1.6-1.1 2.1 -0.1 0.1-0.2 0.2-0.3 0.2 0 0-0.1 0.1-0.1 0.1l0 0c0 0 0 0 0 0l0.1 0.2c0.1 0.2 0.1 0.3 0.2 0.5l0 0.1 0 0.1c-0.2-0.4 0.4 1.1-0.4-1l0.1 0 0 0c-0.4 0.2 1-0.5-1 0.5l0 0 0 0 -0.1 0.1 -0.1 0.1 -0.3 0.2 -0.6 0.4c-0.8 0.6-1.7 1.1-2.5 1.7 -1.7 1-3.4 2-5 2.9 -6.4 3.5-11 5.7-11.6 6l0 0c-4.3 2.1-8.7 4.2-13.1 6.3 -2.2 1-4.4 2-6.6 3 -1.1 0.5-2.2 1-3.3 1.5 -0.4 0.2-0.2 0.1-0.3 0.1l0.1 0 -0.5 0 -2 0c-2.6 0.2-5.2 0.6-7.7 1.5 -2.5 0.9-4.8 2-6.9 3.5 -2.1 1.4-4 3.2-5.7 5.1 -0.4 0.5-0.8 1-1.2 1.5 -0.2 0.3-0.4 0.5-0.6 0.8l-0.5 0.8c-0.6 1-1.3 1.9-1.9 2.9 -4.9 8.1-8.2 16.7-10 25.2 -1.8 8.5-2.2 16.7-1.8 24.2 0.2 3.8 0.7 7.4 1.3 10.8 0.3 1.7 0.7 3.3 1.1 4.9 0.2 0.8 0.4 1.6 0.6 2.4l0.2 0.6c0 0 0 0 0 0l0 0c0 0 0-0.1 0 0.1 -1.8 6-2.6 11.3-3 15.7 -0.3 2.2-0.3 4.2-0.5 5.9 -0.1 1.7-0.1 3.2-0.2 4.4 0 2.4 0 3.8 0 3.9 0 5.5 0.3 10.9 0.6 16.3 0.3 5.4 0.9 10.7 0.8 15.8 -0.1 2.6-0.2 5.3-0.2 7.9l-0.1 1.9 -0.1 1.4 -1.3 3.6c-0.5 1.3-0.8 2.6-1.2 3.9 -0.4 1.3-0.8 2.6-1.1 3.9 -0.6 2.6-1.3 5.2-1.9 7.8 -0.5 2.6-1.1 5.2-1.6 7.8 -0.2 1.3-0.5 2.6-0.7 3.9 -0.2 1.3-0.4 2.6-0.6 3.9 -0.2 1.3-0.4 2.6-0.5 3.9 -0.1 1.3-0.3 2.6-0.4 3.9l-0.1 1 0 1 -0.1 2c0 0.7-0.1 1.4 0 2l0.1 1.9c0.3 5.1 0.5 10.2 0.8 15.2 0.1 2.5 0.3 5 0.4 7.5 0.2 2.5 0.3 4.9 0.5 7.4 0.2 2.4 0.3 4.9 0.5 7.3 0.1 1.2 0.1 2.4 0.1 3.6 0 1.2 0 2.4 0 3.6 0 4.8 0 9.5 0.1 14.2 0 4.7 0.1 9.3 0 13.8l0 1.7 0 0.9 0.1 1.2c0.1 1.1 0.2 2.2 0.3 3.3 0.1 1.1 0.2 2.2 0.3 3.3 0.1 1.1 0.2 2.2 0.2 3.3 0.4 8.7 0.6 17.2 0.7 25.3 0 1 0 2 0 3l0 1.6c0 0.6 0 1.1 0.1 1.7 0.3 2.3 1.1 4.6 2 6.4 0.9 1.9 1.8 3.6 2.7 5.3 0.4 0.8 0.9 1.7 1.3 2.5 0.4 0.8 0.9 1.7 1.4 2.5 0.5 0.8 1 1.7 1.4 2.5 0.5 0.8 1 1.6 1.6 2.4 0.5 0.8 1 1.6 1.6 2.3 0.6 0.7 1.1 1.5 1.6 2.2 2.3 2.8 4.6 5.5 7 7.9l0.4 0.4c0.1 0.1 0.4 0.2 0.5 0.3l0.7 0.3 1.1 0.6c0.7 0.4 1.5 0.7 2.2 1.1 1.5 0.7 3 1.4 4.5 2l0.3 0.1 0.1 0.1 0.3 0.1 1 0.3 1 0.3c0.2 0.1 0.3 0.1 0.5 0l0.5 0c1.3-0.1 2.6-1 3.1-2.3 0.3-0.6 0.4-1.3 0.5-2 0-0.4 0-0.7 0-1.1l0-0.5 0-0.3c0-0.2-0.1-0.4-0.1-0.7l-0.1-0.4c-0.1-0.3 0.1 0.3 0 0.2l0-0.1 -0.1-0.3c-0.1-0.7-0.4-1.2-0.7-1.7 -1.1-1.8-2.3-2.8-3.5-3.8 -1.2-0.9-2.4-1.7-3.6-2.5l-0.7-0.4c0 0 0 0 0 0 -0.3-0.5-0.6-1-1-1.6 -0.3-0.5-0.6-1-0.9-1.5 -0.3-0.5-0.6-1-0.8-1.5 -0.6-1-1.1-2-1.5-3 -0.5-1-0.9-1.9-1.4-2.9 -0.8-1.8-1.4-3.5-1.9-5.2 -0.9-3.3-1.2-6.2-1-8.2 0-0.4 0.1-0.9 0.1-0.8l0 0 0 0c0 0 0 0 0 0l0 0c0 0 0 0 0 0 0.2 0.3 0.3 0.7 0.4 1 0.1 0.2 0.2 0.4 0.2 0.5l0.1 0.3c0.1 0.2 0.2 0.4 0.3 0.6 0.2 0.4 0.4 0.7 0.5 1.1 0.3 0.7 0.7 1.3 0.9 1.8 1.1 2.1 1.7 3 0.7 1.3 0.6 1.1 1.2 2.2 1.9 3.3 0.7 1.1 1.4 2.1 2.3 3.3l0.8 0.9 1.3 1.2c0.2 0.2 0.5 0.3 0.7 0.4 0.2 0.1 0.5 0.3 0.7 0.4l0.7 0.2c0.2 0 0.5 0 0.7 0.1 0.5 0 1-0.1 1.5-0.3 0.5-0.2 0.9-0.5 1.3-0.8 0.8-0.7 1.2-1.6 1.4-2.6 0-0.6 0.1-1.2 0.1-1.7l-0.1-1.4c-0.1-0.6-0.2-1.3-0.3-1.9 -0.2-1.2-0.4-2.4-0.7-3.6 -0.5-2.3-0.9-4.6-1.3-6.8 -0.3-2.2-0.5-4.5-0.8-6.8 -0.2-2.3-0.5-4.5-0.7-6.7 -0.1-1.1-0.2-2.2-0.3-3.3l-0.1-0.8 0-0.2 0 0c0-0.1 0 0.1 0 0.1l0-0.1 0-0.5c0-0.6 0-1.2-0.1-1.8 -0.2-2.4-0.7-4.7-1.5-6.9 -0.7-2.2-1.7-4.3-2.9-6.2 -0.6-1-1.2-1.9-1.9-2.8l-0.5-0.7 -0.3-0.3c-0.1-0.1 0 0 0 0l0 0c0 0 0 0 0-0.1l-0.2-0.6c-0.9-3.4-0.9-7.1-0.6-10.6 0.2-1.7 0.4-3.5 0.8-5.1l0.1-0.6 0.1-0.3 0.1-0.3c0.1-0.4 0.2-0.8 0.3-1.3 0.2-0.8 0.4-1.7 0.7-2.5 0.9-3.2 1.7-6.3 2.5-9.1 6.2-22.8 8.4-32.2 4.2-15.6 0.5-2 1-3.9 1.6-5.9 0.4-2 0.9-4 1.3-6 0.9-4 1.8-7.9 2.6-11.8 0.4-2 0.9-3.9 1.3-5.9 0.3-2 0.7-3.9 1-5.9 0.3-2 0.7-3.9 1-5.8 0.2-1 0.3-2 0.4-3l0.2-1.5 0-0.4c0-0.1 0-0.5 0-0.6l0-0.7c0-7.7-0.1-15.3-0.1-22.6 0-1.8 0.1-3.7 0.1-5.5 0-1.8 0-3.6 0.1-5.4 0.1-1.8 0.2-3.5 0.3-5.3 0.1-1.8 0.3-3.5 0.4-5.2 0.6-6.9 1.4-13.6 2.2-20.1 0.4-3.2 0.8-6.4 1.2-9.5 0.2-1.5 0.4-3.1 0.6-4.6l0-0.1 0-0.1c-9.9 0.4-2.7 0.2-4.9 0.3l0.1 0.3 0.1 0.6 0.3 1.1c0.2 0.7 0.4 1.5 0.6 2.2 0.4 1.5 0.8 2.9 1.2 4.3 0.4 1.4 0.8 2.8 1.2 4.1 0.4 1.4 0.8 2.7 1.1 4 0.3 1.3 0.7 2.6 1 3.9 0.3 1.3 0.7 2.5 0.9 3.8 0.2 1.3 0.5 2.5 0.7 3.7 0.5 2.4 0.9 4.8 1.3 7 0.7 4.5 1.3 8.7 1.5 12.4 0.3 3.7 0.1 7.1 0 10 -0.2 3-0.4 5.5-0.6 7.6 -0.2 2.1-0.3 3.7-0.4 4.7 -0.2 2.1-0.2 2.2 0-0.2 0.1-1.2 0.2-2.9 0.4-5.3 0.1-1.2 0.2-2.5 0.3-4.1 0.1-1.5 0.2-3.2 0.3-5l0 0c-0.3 7.5-1.3 15-1.5 22.6 -0.1 1.9-0.2 3.8-0.3 5.7 -0.1 1.9 0 3.8-0.1 5.6 0 1.9 0 3.7 0 5.6 0 1.9 0.1 3.7 0.1 5.6 0 0.9 0 1.8 0.1 2.8l0 0.7c0 0.1 0 0.3 0 0.2l0 0 -0.2 1.2c-0.4 1.8-0.7 3.6-1.1 5.5 -0.4 1.8-0.5 3.7-0.8 5.5l-0.3 2.7c-0.1 0.9-0.1 1.8-0.2 2.8 -0.1 0.9-0.2 1.8-0.2 2.8 0 0.7 0 0.5 0 0.4l-0.5 1.2c-0.7 1.7-1.3 3.4-1.9 5.1l-0.9 2.6 -0.8 2.6c-0.5 1.7-1 3.4-1.5 5.1 -0.5 1.7-0.9 3.4-1.3 5.1 -0.2 0.9-0.4 1.7-0.6 2.6l-0.3 1.3 -0.1 0.3c0 0.2-0.1 0.4-0.1 0.5l-0.1 0.7c-0.1 1.8-0.3 3.5-0.4 5.3 -0.1 1.7-0.2 3.5-0.2 5.2 -0.2 6.9-0.2 13.7 0 20.4 0.4 13.4 1.2 26.4 2.2 39.1 1.1 12.7 2.3 25.1 4 37.1 0.9 6 1.7 11.9 3 17.8 1.1 5.8 2.2 11.4 3.2 17.1 2 11.2 3.5 22.3 4.7 33l0.2 2 0.1 0.9 0 0c0-0.1 0 0 0 0.1l0 0.5c-0.1 1.4-0.2 2.7-0.4 4.1 -0.2 1.4-0.1 2.7-0.2 4.1 0 1.4-0.1 2.7 0 4.1 0 2.7 0.2 5.5 0.6 8.2 0.2 1.4 0.4 2.7 0.8 4.1l0.2 0.9c0 0 0 0 0 0.1l0 0.4 0 1.9c0 2.5 0 5-0.1 7.5 -0.1 2.5-0.2 5-0.4 7.5 -0.1 1.2-0.2 2.5-0.3 3.7l-0.1 0.9 0 0.2c0 0 0 0 0 0l0 0c0 0 0-0.1 0 0l-0.6 1.8c-0.4 1.2-0.8 2.4-1.1 3.6 -0.4 1.2-0.6 2.4-0.9 3.7 -2.2 9.8-2.7 19.5-2.5 28.8 0.3 9.3 1.3 18.3 2.7 26.8 1.4 8.6 3.1 16.8 5 24.7 1.9 7.9 3.9 15.5 5.9 22.8 1 3.6 1.8 7.2 2.6 10.8 0.8 3.5 1.6 7 2.4 10.4 0.7 3.4 1.3 6.8 1.9 10.1 0.3 1.7 0.6 3.3 0.9 4.9 0.2 1.6 0.4 3.3 0.7 4.9 0.2 1.6 0.5 3.2 0.6 4.8 0.1 0.8 0.2 1.6 0.2 2.3 0 0.2 0 0.3 0 0.2l-0.1 0.4 -0.2 1.1c-0.5 2.8-1.5 5.5-2.8 8.1 -2.5 5.1-6.1 9.5-9.9 13.2 -0.9 0.9-2 1.7-3 2.5 -0.5 0.4-1 0.8-1.5 1.2l-0.8 0.6 -0.8 0.5c-1.1 0.7-2.1 1.4-3.2 2.1 -0.5 0.3-1.1 0.6-1.6 0.9l-0.8 0.5c-0.1 0.1-0.3 0.1-0.4 0.2l-0.5 0.2c-0.3 0.2-0.6 0.3-0.8 0.5l-0.5 0.6c-0.3 0.3-0.5 0.6-0.8 0.9 -0.5 0.6-1 1.3-1.4 2.3 -0.4 0.9-0.5 2.3-0.1 3.5 0.2 0.6 0.5 1.1 0.9 1.6 0.2 0.2 0.4 0.4 0.5 0.6 0.2 0.2 0.4 0.3 0.6 0.5 1.5 1.1 2.8 1.5 4.2 1.9 0.7 0.2 1.3 0.3 2 0.4l1 0.2 0.8 0.1 0 0c0 0-0.1 0 0.2 0.1 0.4 0.2 0.7 0.3 1.1 0.4 0.7 0.2 1.3 0.4 2 0.5 1.3 0.3 2.5 0.4 3.6 0.5 1.2 0.1 2.3 0.2 3.5 0.2 0.4 0 0.8 0 1.2 0 -0.1 0 0.1 0 0.2 0.1l0.5 0.1c0.3 0.1 0.6 0.1 0.9 0.2 2.5 0.5 5 0.3 7.2-0.2 1.1-0.3 2.2-0.7 3.3-1.1l0.4-0.2 0 0 0 0 0 0c0 0-0.1 0 0.1 0l0.7 0.1c1 0.2 1.9 0.4 2.9 0.5 1 0.1 1.9 0.2 2.9 0.3 0.9 0.1 1.9 0.1 2.9 0.1 0.5 0 1 0 1.4 0 0.5 0 1-0.1 1.5-0.1 1-0.1 2-0.3 3-0.6l0.8-0.3 0.2-0.1c0.1 0 0.1 0 0.3-0.1l0.1 0h0l0 0c0 0 0 0 0 0 1.6 0.1 3.4 0.1 5.1-0.2 1.7-0.2 3.5-0.8 5.1-1.8 1.6-1 2.9-2.8 3.4-4.6 0.5-1.8 0.4-3.4 0.2-4.9 -0.1-0.7-0.3-1.4-0.5-2.1 -0.1-0.3-0.2-0.7-0.3-1l-0.2-0.5c0 0 0 0 0 0 -0.1-1-0.2-1.9-0.3-2.9 -0.1-1-0.2-1.9-0.2-2.8 0-1.8-0.1-3.5 0-5 0-0.4 0-0.7 0-1.1 0-0.2 0-0.3 0-0.5 0-0.1 0-0.4 0-0.3l0 0 0 0c0.1-0.1 0.2-0.3 0.3-0.4 1.9-2.2 2.6-4.5 2.8-5.9 0.1-0.4 0.1-0.7 0.2-0.9 0-0.3 0-0.5 0-0.6 0-0.3 0-0.5 0-0.5 0-0.5 0-0.7 0-0.8 0-0.1 0-0.1 0-0.1s0 0 0-0.2c0-0.2 0-0.7-0.2-1.5 -0.1-0.8-0.4-2.1-1.1-3.7 -0.2-0.4-0.4-0.9-0.7-1.3 -0.1-0.2-0.3-0.5-0.4-0.7l-0.1-0.2c0 0 0 0 0 0l-0.1-0.3c-0.4-0.9-0.9-2-1.5-3.2 0 0 0-0.1-0.2-0.5 -0.2-0.4-0.6-1.3-1.2-2.9 -0.2-0.4-0.4-0.9-0.5-1.4 -0.2-0.5-0.3-1.1-0.5-1.7 0-0.2-0.1-0.2-0.1-0.4l0-0.2 0-0.3c0-0.4-0.1-0.7-0.1-1.1 -0.1-0.7-0.1-1.7-0.1-2.7 -0.1-4 0.1-9.4 0.4-16.6 0 0 0 0 0-0.6 0 0 0 0 0-0.6 0-0.1 0-0.3 0.2-3 0.2-2.7 0.5-8 1.3-18.3 0 0 0 0 0-0.2 0 0 0 0 0-0.2 0.1-0.8 0.2-2.5 0.4-5.2 0.1-1.4 0.3-3.1 0.4-5.1 0-0.5 0.1-1 0.1-1.6l0-0.4 0-0.1 0 0c0 0 0 0.1 0 0 0.1-0.3 0.1-0.6 0.2-0.9 0.2-1.2 0.5-2.5 0.8-3.8 1.1-5.5 2.4-12.7 2.8-21.9 0.2-4.6 0.3-9.8-0.2-15.5 -0.2-2.9-0.5-5.9-1.1-9 -0.6-3.1-1.2-6.4-2.4-9.8l-0.1-0.3 -0.1-0.2c0 0 0 0 0 0l-0.1-0.5c-0.1-0.4-0.2-0.8-0.3-1.2 -0.2-0.8-0.4-1.6-0.6-2.5 -0.3-1.7-0.7-3.4-1-5.1 -0.3-1.8-0.5-3.5-0.7-5.4 -0.1-0.9-0.1-1.8-0.1-2.7 0-0.4 0-1 0-0.9l0 0.1c0 0.1 0 0 0-0.1l0.1-0.2 0.3-0.7c0.4-1 0.9-1.9 1.3-2.9 0.4-1 0.7-2 1.1-3.1 0.8-2.1 1.2-4.3 1.6-6.5 0.7-4.4 1.2-9.1 1.3-13.8 0.3-9.3 0.6-19.3 0.9-30.1 0.2-5.4 0.3-11 0.5-16.7l0-0.3c0 0.1 0 0 0 0.1l0.1-0.5 0.2-1.1c0.1-0.7 0.2-1.4 0.3-2.2 0.2-1.5 0.4-2.9 0.6-4.4 0.4-3 0.9-6 1.3-9 1.6-12.3 3.1-25.3 4.4-39.2 1.3-13.9 2.5-28.7 3.6-44.4l0.1-1.5 0-0.7 0-0.4 0-0.2c-10.1-0.1-2.8 0.1-5 0.1 0.1 1 0.1 2 0.2 3 0.1 2 0.3 4 0.4 6 0.3 4 0.6 8.1 0.9 12.3 0.3 4.2 0.7 8.4 1 12.6 0.4 4.3 0.7 8.6 1.2 13 1.7 17.5 3.6 36 6.7 55.3l0 0c0.1 0.4 0.1 0.7 0.2 1.1l0 0.3c0-0.1 0 0 0-0.1l0 0.6c0 0.8 0 1.5 0.1 2.3 0 1.6 0.1 3.2 0.2 4.8 0.1 3.3 0.2 6.8 0.3 10.5 0.2 7.4 0.5 15.7 0.8 25.1 0.1 2.3 0.2 4.8 0.3 7.3 0.2 2.5 0.3 5.1 0.7 7.9 0.1 0.7 0.2 1.4 0.3 2 0.1 0.7 0.3 1.4 0.4 2.1 0.2 0.7 0.3 1.4 0.5 2.1 0.1 0.7 0.4 1.4 0.6 2.1 0.2 0.7 0.5 1.4 0.7 2.1l0.3 1.1 0.5 1c0.5 1.1 1 2.2 1.5 3.3l0 0.3c0 0.2 0 0.3 0 0.5l0 1c0 0.7-0.1 1.4-0.1 2.1 -0.1 1.4-0.3 2.9-0.5 4.4 -0.4 3-1.1 6-1.9 9.1 -0.1 0.4-0.2 0.9-0.2 0.9 -0.2 0.4-0.3 0.9-0.4 1.3 -0.3 0.8-0.5 1.7-0.8 2.5 -0.2 0.8-0.4 1.7-0.6 2.6 -0.2 0.9-0.4 1.7-0.5 2.6 -0.6 3.5-1.1 7.1-1.4 10.8 -0.5 7.4-0.3 15.2 0.6 23.4 0.4 4.1 1.1 8.2 1.9 12.4 0.2 1 0.4 2.1 0.7 3.2l0.3 1.6 0.2 0.8 0 0.2c0-0.1 0 0 0 0l0 0.3c0.2 2.1 0.4 4.3 0.6 6.5 0.7 8.8 1.5 18.1 2 27.7 0.3 4.8 0.5 9.8 0.5 14.8 0 1.3 0 2.5-0.1 3.7 0 0.6-0.1 1.2-0.1 1.8l-0.1 0.9c0 0.2 0 0.3-0.1 0.4l-0.1 0.3 -0.5 1.7c-0.2 0.6-0.4 1.2-0.7 1.7l-0.7 1.8c-0.3 0.6-0.6 1.2-0.8 1.7l-0.8 1.7 -0.4 0.9 -0.2 0.4c0 0.1 0 0.1 0 0.1 0.1-0.1 0 0 0 0.1l-0.1 0.1c-0.9 1.4-1.5 2.8-1.9 4.4 -0.4 1.6-0.6 3.3-0.5 5 0.2 1.7 0.7 3.4 1.6 4.9 0.2 0.4 0.5 0.7 0.7 1.1 0.2 0.4 0.5 0.7 0.8 1 0.4 0.5 0.3 0.3 0.3 0.3 0 0 0-0.1 0 0 0.1 1.3 0.1 2.7 0.1 4.1 0 1.4 0 2.8-0.1 4.1 -0.1 1.4-0.3 2.7-0.4 4.1l0 0.2c0 0.1 0 0 0 0s0 0 0 0l-0.1 0.3c-0.2 0.4-0.3 0.8-0.4 1.2 -0.3 0.8-0.4 1.7-0.6 2.6 -0.2 1.8-0.2 3.8 0.8 5.8 0.5 1 1.2 1.8 2 2.5 0.8 0.7 1.7 1.2 2.6 1.6 1.8 0.7 3.5 1 5.2 1.1 0.9 0.1 1.7 0 2.5 0 1.2-0.1 0.6-0.1 0.9 0 0.2 0.1 0.2 0.1 0.3 0.1l0.2 0.1 0.4 0.2c0.2 0.1 0.5 0.2 0.7 0.3l1.4 0.3c0.9 0.2 1.8 0.2 2.7 0.3 1.7 0 3.4 0 5-0.2 0.8-0.1 1.7-0.2 2.5-0.3 0.8-0.1 1.6-0.3 2.4-0.4l1.1-0.2c-0.1 0 0 0 0 0l0 0c-0.1 0 0.1 0 0.2 0.1l0.6 0.3c0.4 0.2 0.9 0.4 1.3 0.5 1.8 0.6 3.6 0.9 5.5 1 1 0 1.9-0.1 2.9-0.2 0.5-0.1 1-0.2 1.4-0.3l0.6-0.2c-0.1 0 0 0 0 0 1.6 0 3.4-0.1 5.1-0.3 0.9-0.1 1.8-0.2 2.7-0.4 0.9-0.2 1.8-0.4 2.9-0.8 0.2-0.1 0.5-0.2 0.7-0.3 0.1-0.1 0 0 0 0 0 0 0 0 0 0l0.3 0 0.7-0.1c0.9-0.1 1.8-0.3 2.8-0.6 0.9-0.3 1.9-0.6 2.9-1.1 0.5-0.3 1-0.6 1.5-1 0.3-0.2 0.5-0.5 0.7-0.8 0.2-0.3 0.5-0.7 0.7-1.1 0.4-0.8 0.5-1.6 0.5-2.5 -0.1-0.9-0.3-1.5-0.6-2.2 -0.6-1.2-1.3-2-2-2.7l-0.4-0.4c-0.1-0.2-0.3-0.3-0.5-0.4l-0.8-0.4c-0.3-0.2-0.7-0.4-1.1-0.6 -0.7-0.4-1.4-0.8-2.1-1.2 -0.7-0.5-1.4-0.9-2.1-1.4 -0.7-0.5-1.4-0.9-2.1-1.4 -1.3-1.1-2.6-2.1-4-3.2 -1.2-1.1-2.4-2.3-3.5-3.6 -2.3-2.5-4.4-5.3-6.1-8.3 -1.7-3-3.1-6.2-3.8-9.5 0 0 0-0.1 0-0.2 0 0 0-0.1 0-0.2 -0.1-0.6-0.2-1.1-0.3-1.7 -0.1 0.1 0.1-0.8 0.1-1.4 0.1-1.3 0.3-2.7 0.5-4.4 0.2-1.6 0.5-3.4 0.8-5.5 0.3-2.1 0.8-4.5 1.3-7.3 0-0.1 0.1-0.3 0.1-0.6 0-0.1 0.1-0.3 0.1-0.6 0.6-3.4 1.2-6.9 2.3-11.4 0.5-2.2 1.1-4.7 1.8-7.5 0.7-2.8 1.3-6 2.4-9.7 0.8-2.8 1.5-5.7 3-11.4 2.9-11.1 5.7-22.8 7.7-35.1 2-12.3 3.4-25.3 2.7-38.7 -0.3-6.7-1.3-13.6-2.9-20.4 -0.5-1.7-0.9-3.4-1.5-5.1 -0.2-0.8-0.7-2-0.6-1.9l-0.2-2.5c-0.1-1.7-0.2-3.4-0.3-5.1 -0.1-1.7-0.2-3.4-0.2-5.2 -0.1-1.7-0.1-3.4-0.1-5.2l0-2.6 0-1.3c0-0.1 0-0.1 0-0.1l0.2-0.6c1-3.8 1.3-7.4 1.4-11.2l0.1-2.8c0-0.9-0.1-1.9-0.1-2.8l-0.1-2.8 -0.2-2.8 -0.2-2.8 0-0.3c0-0.2 0-0.1 0-0.1 0 0 0 0 0-0.1l0-0.3 0.1-1.3c0.2-1.8 0.4-3.6 0.6-5.4 0.5-3.6 0.8-7.3 1.4-10.9 0.6-3.7 1.1-7.3 1.7-11 0.5-3.7 1.3-7.4 2-11.1 0.7-3.7 1.4-7.4 2.1-11.2 1.6-7.6 2.7-15.4 3.7-23.1 1-7.8 1.9-15.7 2.6-23.6 1.5-15.9 2.6-32.1 3.1-48.7 0.2-8.3 0.3-16.6-0.2-25.1 -0.1-2.1-0.3-4.2-0.5-6.4 0-0.1 0-0.2-0.1-0.5l-0.1-0.5 -0.2-0.8 -0.3-1.6c-0.2-1-0.5-2.1-0.7-3.1 -1-4.1-2.2-8.2-3.5-12.3l-1-3.1c-0.3-1-0.8-2-1.2-3l-0.6-1.5c-0.1-0.4-0.1-0.1-0.1-0.2 0 0 0 0.1 0 0l0-0.4c0-1.1-0.1-2.2-0.2-3.3 -0.1-2.2-0.5-4.3-0.7-6.5 -0.2-2.2-0.7-4.3-1.1-6.4l-0.6-3.2 -0.2-0.8c0-0.2 0-0.2 0-0.1l0 0 0.1-1.6c0.1-2.2 0.1-4.3 0.2-6.5 0.1-2.2 0-4.3 0-6.5 0-2.2 0-4.3-0.1-6.5 -0.1-2.2-0.2-4.4-0.3-6.5 -0.1-2.2-0.2-4.4-0.4-6.5 -0.3-4.4-0.8-8.7-1-12.9 -0.3-4.3-0.1-8.5 0.3-12.7l0.4-3.2c0.1-1.1 0.3-2.1 0.5-3.2l0.5-3.2 0.6-3.2c1.4-8.6 4-16.8 6.4-25.5l0.9-3.3 0.4-1.6 0.1-0.4c-2.2-0.2 5-0.1-4.9-0.6l0.1 0.8c0.3 2.2 0.6 4.4 0.9 6.6 0.6 4.4 1.1 8.8 1.6 13.2 1 8.8 2 17.7 2.2 26.5 0.2 8.9 0 17.9 0 26.9l0 3.4 0 1.7c0 0 0 0.5 0 0.7l0.1 0.5 0.1 0.9c0.2 1.2 0.3 2.3 0.5 3.5l0.6 3.4c0.8 4.5 1.5 9 2.5 13.4 1 4.4 2 8.9 3 13.3 0.5 2.2 0.9 4.5 1.5 6.7l1.8 6.6c2.4 8.8 4.7 17.6 7.1 26.4 0.5 1.9 0.9 4.2 1.1 6.3 0.2 2.1 0.3 4.3 0.1 6.4 -0.1 1-0.2 2.1-0.4 3.1 -0.2 0.9-0.6 2.3-0.6 2 -1.6 2-2.9 4-4 6.3 -1.1 2.2-1.9 4.6-2.4 7l-0.3 1.8 -0.2 1.9c-0.1 0.6-0.1 1.2-0.1 1.9l0 0.5c0-0.1 0 0.1 0 0.2l-0.1 0.8c-0.4 4.5-0.9 9-1.4 13.5 -0.2 2.3-0.5 4.4-1 6.6 -0.4 2.2-0.9 4.4-1.3 6.8 -0.1 0.6-0.2 1.2-0.3 1.8 0 0.3-0.1 0.6-0.1 1 -0.1 0.6-0.1 1.1 0 1.7l0 0.8c0.1 0.3 0.1 0.5 0.2 0.7 0.1 0.5 0.4 0.9 0.6 1.3 0.6 0.8 1.4 1.4 2.3 1.6 0.9 0.3 1.9 0.2 2.8-0.2l0.7-0.4c0.2-0.1 0.5-0.2 0.7-0.4 0.4-0.4 0.8-0.7 1.2-1.1 0.4-0.5 0.5-0.6 0.8-0.9 0.2-0.3 0.4-0.5 0.6-0.8 0.4-0.5 0.7-1 1.1-1.5 1.3-2 2.5-4.1 3.5-6.1 0.5-1 1-2.1 1.6-3.1 0 0 0.2-0.5 0.2-0.5l0.1-0.3c0.1-0.2 0.2-0.4 0.3-0.6 0.2-0.4 0.4-0.8 0.7-1.1l0.1-0.2c0 0 0.1-0.1 0.1-0.1 0-0.1 0.1 0.2-0.2-0.3 -0.2-0.4-0.3-0.4-0.4-0.7 -0.1-0.3-0.1-0.2-0.1-0.3 0-0.1 0 0.1-0.1 0.2 0 0.1-0.2 0.4-0.4 0.6 -0.1 0.1-0.6 0.6-0.4 0.5 0 0 0.1 0.1 0.1 0.2 0.1 0.1 0.1 0.3 0.2 0.4 0.1 0.3 0.2 0.8 0.3 1.2 0.2 1.8 0.1 3.9-0.3 5.9 -0.4 2.1-1 4.1-1.8 6.1 -0.7 1.9-1.8 3.9-2.8 5.9 -0.5 1-1 1.9-1.5 2.9 -0.5 1-1.1 1.8-1.7 2.8l-0.4 0.6c0 0 0 0 0 0 0 0 0 0-0.2 0.1l-0.4 0.2 -0.8 0.5c-1 0.7-2 1.3-3 2.1 -1 0.8-1.9 1.6-2.9 2.8 -0.4 0.6-0.9 1.3-1.2 2.4 0 0.1-0.2 0.9-0.1 0.5l-0.1 0.5c-0.1 0.3-0.1 0.7-0.1 1.1 -0.1 0.7-0.1 1.5 0.1 2.5 0.1 0.2 0.1 0.5 0.3 0.8 0.1 0.3 0.3 0.6 0.5 0.9 0.2 0.3 0.6 0.6 0.9 0.9 0.4 0.3 0.8 0.4 1.2 0.5 0.4 0.1 0.7 0.1 1.1 0.1 0.4 0 0.6 0 0.8-0.1 0.3 0 0.5-0.1 0.6-0.1l0.5-0.1 0.9-0.3 0.8-0.3c2.2-0.9 4.3-1.9 6.4-2.9l1.6-0.8c0.2-0.1 0.5-0.2 0.7-0.4l0.5-0.5 0.6-0.6c0.8-0.8 1.6-1.7 2.4-2.5 3.1-3.5 6-7.1 8.4-11.1 1.2-2 2.4-4.1 3.4-6.1 1-2 2.1-4 3.1-6 0.3-0.5 0.5-1.1 0.8-1.6 0.3-0.5 0.5-1.1 0.7-1.7 0.2-0.6 0.5-1.2 0.6-1.8 0.2-0.6 0.3-1.3 0.4-1.9 0.1-0.6 0.2-1.3 0.2-1.9 0-0.6 0-1.3 0-1.8l0-3.3c0-4.4 0.2-8.9 0.2-13.3 0.1-4.4 0.3-8.9 0.5-13.3 0.2-2.2 0.4-4.3 0.5-6.5l0.1-1.6 0.1-0.8c0-0.3 0-0.7 0-0.8l0-0.4 0-3.3c-0.1-4.4 0-8.8 0-13.2 0-4.4 0-8.8 0.1-13.2 0-2.2 0-4.4 0-6.6 0.1-2.2 0.3-4.4 0.4-6.5 0.1-1.3 0.2-2.7 0.3-4 0-0.4 0-0.7 0.1-1.1 0.1-1.5 0.2-2.9 0.3-4.1 0.1-2.6 0.2-4.7 0.3-6 0.3-7.8-0.3-12.2-1.6-18.7 -1.9 6.4-3 10.7-3.4 18.4 -0.1 1.3-0.2 3.4-0.3 6 -0.1 1.3-0.2 2.7-0.3 4.2 0 0.4 0 0.7-0.1 1.1 -0.1 1.3-0.2 2.7-0.3 4 -0.1 2.2-0.3 4.4-0.4 6.6 0 2.2 0 4.4 0 6.6 0 4.4 0 8.8-0.1 13.3 0 4.4-0.1 8.9 0 13.3l0 3.3 0 0.4c0 0.2 0 0 0 0l-0.1 0.8 -0.1 1.7c-0.2 2.3-0.4 4.5-0.6 6.8 -0.2 4.5-0.4 8.9-0.5 13.4 -0.1 4.5-0.2 8.9-0.2 13.5l0 3.4c0 0.6 0 1 0 1.5 0 0.5-0.1 0.9-0.1 1.4 -0.2 1.8-1.1 3.6-2 5.6 -2 3.9-4.1 8.1-6.2 11.7 -2.3 3.7-5 7.1-7.9 10.4 -0.7 0.8-1.5 1.6-2.2 2.4l-0.6 0.6c-0.1 0.1-0.1 0.1-0.1 0.1l0 0 -1.4 0.7c-2 1-4 2-5.9 2.7l-0.7 0.3 -0.7 0.2 -0.3 0.1c-0.1 0.1-0.2 0.1-0.2 0 0-0.2 0 0.2 0 0.5 0 0.2 0 0.5-0.1 0.6 0 0-0.1 0.3-0.1 0.2 0-0.1 0 0 0.2-0.2 0.1-0.1 0.3-0.2 0.6-0.3 0.3-0.1 0.5-0.2 0.4-0.2 0-0.1-0.1-0.5 0-0.9 0-0.2 0.1-0.4 0.1-0.6l0.1-0.3c-0.2-0.7 0.3-0.2 0.1-0.4 0 0 0.2-0.3 0.4-0.6 0.5-0.6 1.2-1.3 2-1.9 0.8-0.6 1.7-1.2 2.5-1.8l0.7-0.4 0.9-0.5c0.2-0.2 0.5-0.2 0.7-0.5l0.5-0.7 0.5-0.8c0.6-1 1.2-2 1.8-3 0.6-1 1.1-2.1 1.7-3.1 1-2.1 2.1-4.1 3-6.4 0.9-2.2 1.6-4.6 2-7 0.4-2.4 0.7-4.9 0.4-7.6 -0.1-0.7-0.2-1.4-0.5-2.1 -0.2-0.4-0.2-0.7-0.5-1.1 -0.2-0.4-0.4-0.8-0.8-1.2 -0.3-0.4-0.8-0.9-1.6-1.2 -0.4-0.2-0.9-0.3-1.4-0.3 -0.4 0-1 0.1-1.3 0.2 -0.8 0.3-1.2 0.6-1.6 1 -0.2 0.2-0.3 0.3-0.5 0.5l-0.4 0.5c-0.5 0.6-0.8 1.2-1.1 1.8 -0.1 0.3-0.3 0.6-0.4 0.9l-0.2 0.5c-0.1 0.2 0 0-0.1 0.2 -0.5 1-1 2-1.5 3 -1 2-2.1 3.9-3.2 5.7 -0.3 0.4-0.6 0.9-0.9 1.3 -0.2 0.2-0.3 0.4-0.5 0.6l-0.3 0.4c0 0 0 0 0 0 0 0 0 0 0 0l0 0c0-0.2 0-0.5 0.1-0.7 0.1-0.5 0.2-1 0.2-1.6 0.4-2.2 0.8-4.4 1.3-6.6 0.5-2.2 0.8-4.6 1-6.9 0.5-4.6 1.1-9.1 1.4-13.7l0.1-0.9c0-0.2 0-0.2 0-0.6l0-0.4c0-0.5 0-1 0.1-1.5l0.2-1.5 0.3-1.5c0.4-2 1.1-4 2-5.9 0.9-1.9 2-3.7 3.3-5.2 0 0 0.4-0.4 0.5-0.6 0.2-0.2 0.3-0.5 0.4-0.7l0.3-1.1c0.2-0.6 0.3-1.2 0.5-1.9 0.3-1.2 0.4-2.5 0.5-3.7 0.2-2.4 0.1-4.9-0.1-7.2 -0.3-2.4-0.6-4.7-1.2-7.1 -2.3-8.8-4.7-17.5-7-26.3l-1.8-6.6c-0.6-2.2-1-4.4-1.5-6.6 -1-4.4-2-8.8-2.9-13.2 -1.1-4.4-1.7-8.8-2.5-13.2l-0.6-3.3c-0.2-1.1-0.3-2.2-0.4-3.2l-0.1-0.8 0-0.4c0-0.1 0 0 0-0.2l0-1.7 0-3.4c0-9 0.2-18.1 0-27.1 -0.3-9.1-1.3-18.1-2.2-27 -0.5-4.5-1.1-8.9-1.7-13.3 -0.3-2.2-0.6-4.4-0.9-6.6l-0.1-0.8c-10-0.4-2.8 0.1-5.1 0.1l-0.1 0.4 -0.4 1.6 -0.8 3.2 -0.8 3.2 -0.9 3.2c-0.6 2.1-1.3 4.2-1.8 6.4 -0.5 2.2-1.2 4.3-1.6 6.5 -0.4 2.2-0.8 4.4-1.3 6.6l-0.6 3.3 -0.5 3.3c-0.2 1.1-0.4 2.2-0.5 3.3l-0.4 3.3c-0.4 4.5-0.6 9-0.3 13.5 0.2 4.4 0.7 8.8 1 13.1 0.2 2.2 0.3 4.3 0.4 6.4 0.1 2.1 0.2 4.3 0.3 6.4 0.1 2.1 0.1 4.3 0.1 6.4 0 2.1 0.1 4.3 0 6.4 -0.1 2.1-0.1 4.3-0.1 6.4l-0.1 1.6c0 0.3-0.1 0.6 0 0.8l0.1 0.7 0.2 0.8 0.6 3.1c0.4 2.1 0.8 4.1 1 6.2 0.2 2.1 0.6 4.1 0.7 6.2 0.1 1 0.2 2.1 0.2 3.1l0 1.1c0 0.3 0.2 0.5 0.2 0.8l0.2 0.5 0.6 1.4c0.4 1 0.8 1.9 1.1 2.9l1 2.9c1.3 3.9 2.4 7.9 3.4 12 0.3 1 0.5 2 0.7 3l0.3 1.5 0.2 0.7 0.1 0.3 0 0.2c0.2 2 0.4 4.1 0.5 6.1 0.5 8.2 0.4 16.5 0.2 24.6 -0.4 16.4-1.6 32.5-3 48.3 -0.8 7.9-1.6 15.7-2.6 23.5 -1 7.7-2.1 15.4-3.7 22.8 -0.7 3.8-1.4 7.6-2.1 11.3 -0.7 3.8-1.5 7.5-2 11.2 -0.6 3.7-1.1 7.4-1.7 11.1 -0.6 3.7-1 7.4-1.4 11.1 -0.2 1.8-0.5 3.7-0.6 5.5l-0.1 1.4 0 0.3c0 0.1-0.1 0.4 0 0.6l0.1 0.9 0.2 2.7 0.2 2.6 0.1 2.6c0 0.9 0.1 1.8 0.1 2.6l-0.1 2.6c-0.1 3.4-0.4 6.9-1.2 10l-0.1 0.3c0 0.1 0 0.1-0.1 0.4 -0.1 0.2-0.1 0.4-0.2 0.6l0 0.6 0 1.4 0 2.7c0 1.8 0 3.6 0.1 5.4 0.1 1.8 0.2 3.5 0.2 5.3 0.1 1.7 0.2 3.5 0.4 5.2l0.2 2.6 0 0.5c0 0.2 0.1 0.4 0.1 0.6l0.2 0.7 0.4 1.2c0.6 1.6 0.9 3.2 1.4 4.7 1.6 6.4 2.5 12.9 2.8 19.4 0.6 12.9-0.7 25.6-2.7 37.6 -2 12.1-4.8 23.6-7.6 34.6 -1.5 5.7-2.3 8.6-3 11.4 -1 3.7-1.7 6.9-2.4 9.8 -0.7 2.9-1.3 5.4-1.8 7.6 -1.1 4.5-1.7 8-2.3 11.5 -0.1 0.3-0.1 0.5-0.1 0.6 -0.1 0.3-0.1 0.5-0.1 0.6 -0.5 2.8-1 5.2-1.3 7.4 -0.3 2.2-0.5 4-0.8 5.7 -0.2 1.7-0.4 3.1-0.6 4.5 0 0.3-0.1 0.7-0.1 1l-0.1 0.6c0 0.1 0 0.3 0 0.5l0.1 0.4c0.1 0.7 0.2 1.4 0.3 2 0 0.1 0 0.2 0 0.2 0 0.1 0 0.2 0 0.2 0.8 4 2.4 7.6 4.4 11 1.9 3.3 4.2 6.4 6.7 9.2 1.3 1.4 2.5 2.7 4 4 1.4 1.2 2.9 2.3 4.3 3.4 0.7 0.6 1.5 1 2.2 1.6 0.8 0.5 1.5 1 2.3 1.5 0.8 0.5 1.6 0.9 2.3 1.4 0.4 0.2 0.8 0.5 1.2 0.7l0.3 0.2c0.1 0 0 0 0 0l0 0 0 0c0 0 0 0 0.1 0.1 0.5 0.5 0.9 1 1.1 1.4 0.2 0.4 0.1 0.3 0.1 0.3 0.1-0.1-0.3 0.3-0.8 0.6 -0.5 0.3-1.2 0.5-1.8 0.7 -0.7 0.2-1.4 0.4-2.2 0.5l-0.6 0.1 -0.3 0 -0.6 0.1 -0.3 0 -0.3 0.1 -0.5 0.3c-0.2 0.1-0.2 0.1-0.4 0.2 -0.5 0.2-1.2 0.4-2 0.5 -0.7 0.1-1.5 0.2-2.3 0.3 -1.6 0.2-3.1 0.2-4.7 0.3l-0.6 0 -0.6 0.2 -0.5 0.2c-0.3 0.1-0.7 0.1-1 0.2 -0.7 0.1-1.3 0.2-2 0.2 -1.3 0-2.7-0.3-3.9-0.7 -0.3-0.1-0.6-0.2-0.9-0.4l-0.4-0.2 -0.3-0.2 -0.5-0.3c-0.4-0.2-0.7-0.5-1.1-0.3 -0.4 0.1-0.8 0.1-1.2 0.2l-1.2 0.2c-0.7 0.1-1.5 0.3-2.2 0.4 -0.7 0.1-1.5 0.2-2.2 0.3 -1.5 0.2-2.9 0.2-4.3 0.2 -0.6-0.1-1.4-0.1-1.9-0.2l-0.9-0.2c-0.1 0-0.2-0.1-0.3-0.1l-0.2-0.1 -0.1 0c0 0-0.1 0 0 0 0 0.1-0.1 0-0.2-0.1l-0.3-0.1 -0.5-0.2 -1-0.4c-0.2 0-0.4 0-0.6 0l-0.4 0 -0.5 0c-0.7 0-1.4 0-2 0 -1.3-0.1-2.6-0.3-3.6-0.7 -1-0.4-1.6-1-2-1.7 -0.4-0.7-0.5-1.8-0.3-2.9 0.1-0.6 0.2-1.1 0.4-1.7 0.1-0.3 0.2-0.6 0.3-0.8l0.1-0.3c0.1-0.2 0.1-0.3 0.2-0.5 0.1-0.2 0.1-0.3 0.1-0.5l0-0.4c0.2-1.5 0.3-3 0.5-4.5 0.1-1.5 0.1-3 0.1-4.5 0-1.5-0.1-2.9-0.2-4.4l-0.1-1c-0.1-0.3 0.1-0.7-0.3-1l-1.1-1.3c-0.2-0.2-0.4-0.4-0.5-0.7l-0.5-0.7c-0.5-0.9-0.8-1.9-0.9-2.9 -0.1-1 0-2.1 0.3-3.2 0.3-1.1 0.8-2.1 1.3-3l0.1-0.2c0.1-0.1 0.2-0.3 0.2-0.4l0.2-0.5 0.5-0.9c0.3-0.6 0.6-1.2 0.9-1.9 0.3-0.6 0.6-1.2 0.9-1.9 0.3-0.6 0.5-1.3 0.8-1.9 0.2-0.7 0.5-1.3 0.7-1.9 0.2-0.7 0.4-1.4 0.6-2 0.1-0.4 0.2-0.9 0.3-1.2l0.1-1.1c0.1-0.7 0.1-1.4 0.1-2.1 0-1.3 0.1-2.7 0.1-3.9 0-5.2-0.2-10.2-0.5-15.1 -0.5-9.8-1.3-19-2-27.9 -0.2-2.2-0.4-4.4-0.6-6.6l0-0.5c0-0.2 0-0.2-0.1-0.4l0-0.2 -0.2-0.8 -0.3-1.6c-0.2-1-0.4-2.1-0.6-3.1 -0.8-4.1-1.4-8.1-1.8-12 -0.9-7.9-1.1-15.4-0.6-22.5 0.3-3.5 0.7-7 1.3-10.2 0.2-0.8 0.3-1.6 0.5-2.4 0.2-0.8 0.4-1.6 0.6-2.4 0.2-0.8 0.4-1.5 0.7-2.3 0.1-0.4 0.2-0.7 0.4-1.1 0.3-0.7 0.3-1 0.4-1.4 0.8-3.2 1.6-6.4 2-9.6 0.3-1.6 0.4-3.2 0.6-4.7 0-0.8 0.1-1.6 0.1-2.4l0-1.2c0-0.2 0-0.4 0-0.6 0-0.2 0-0.4 0-0.8l0-0.5c0-0.2-0.1-0.3-0.2-0.5l-0.3-0.8 -0.4-0.9c-0.3-0.6-0.6-1.2-0.8-1.9l-0.4-0.9 -0.3-1c-0.2-0.6-0.4-1.3-0.6-1.9 -0.2-0.6-0.5-1.2-0.6-1.9 -0.1-0.6-0.3-1.3-0.4-1.9 -0.1-0.6-0.3-1.3-0.4-1.9 -0.1-0.6-0.2-1.3-0.3-1.9 -0.4-2.5-0.5-5-0.7-7.4 -0.1-2.5-0.2-4.8-0.3-7.2 -0.3-9.4-0.6-17.7-0.8-25.1 -0.1-3.7-0.2-7.2-0.3-10.5 -0.1-1.6-0.1-3.2-0.1-4.8 0-0.8 0-1.5-0.1-2.3l0-0.6c0-0.2 0-0.4-0.1-0.6l0-0.3c-0.1-0.4-0.1-0.7-0.2-1.1l0 0c-3-19.2-4.9-37.6-6.6-55 -0.4-4.4-0.8-8.7-1.2-12.9 -0.4-4.2-0.7-8.4-1-12.6 -0.3-4.1-0.6-8.2-0.9-12.2 -0.1-2-0.3-4-0.4-6 -0.1-1-0.1-2-0.2-3 -2.2 0 5-0.2-5-0.1l0 0.2 0 0.4 0 0.7 -0.1 1.5c-1 15.7-2.2 30.4-3.6 44.3 -1.3 13.9-2.8 26.9-4.3 39.1 -0.4 3.1-0.9 6-1.3 9 -0.2 1.5-0.4 2.9-0.6 4.4 -0.1 0.7-0.2 1.4-0.3 2.2l-0.2 1.1 -0.1 0.5c0 0.2 0 0.3-0.1 0.6l0 0.3c-0.2 5.8-0.4 11.3-0.5 16.7 -0.3 10.8-0.7 20.8-0.9 30.1 -0.1 4.6-0.5 9-1.2 13 -0.4 2-0.8 4-1.5 5.8 -0.3 0.9-0.5 1.9-0.9 2.8 -0.4 0.9-0.8 1.7-1.2 2.6l-0.3 0.6 -0.2 0.4 -0.3 0.7c-0.1 1.2-0.1 1.5-0.1 2.1 0 1.1 0 2.1 0.1 3.1 0.2 2 0.4 3.9 0.7 5.8 0.3 1.9 0.7 3.7 1.1 5.4 0.2 0.9 0.4 1.7 0.6 2.6 0.1 0.4 0.2 0.9 0.3 1.3l0.2 0.7 0.3 0.7c1 2.9 1.7 6 2.2 8.9 0.5 2.9 0.8 5.8 1 8.5 0.4 5.4 0.4 10.4 0.2 14.9 -0.4 8.9-1.7 15.9-2.7 21.2 -0.3 1.3-0.5 2.6-0.8 3.7 -0.1 0.3-0.1 0.6-0.2 0.8l0 0.2c0 0.1 0 0.1 0 0.2l0 0.3 0 0.4c0 0.6-0.1 1.1-0.1 1.6 -0.2 2-0.3 3.7-0.4 5.1 -0.2 2.8-0.4 4.4-0.4 5.3 0 0.2 0 0.2 0 0.2 0 0.2 0 0.2 0 0.2 -0.8 10.4-1.1 15.6-1.3 18.4 -0.2 2.7-0.2 2.9-0.2 3 0 0.6 0 0.6 0 0.6 0 0.6 0 0.6 0 0.6 -0.4 7.3-0.5 12.8-0.4 17 0 1.1 0 2 0.1 3 0 0.5 0.1 0.9 0.1 1.4l0 0.3 0.1 0.4c0.1 0.2 0.1 0.5 0.2 0.7 0.2 0.7 0.4 1.4 0.6 2 0.2 0.6 0.4 1.1 0.6 1.6 0.7 1.8 1.1 2.8 1.3 3.2 0.2 0.5 0.2 0.5 0.3 0.5 0.6 1.3 1.2 2.4 1.6 3.4 0.1 0.1 0.1 0.3 0.2 0.4 0.1 0.1 0.1 0.2 0.2 0.3l0.1 0.1c0.1 0.2 0.2 0.3 0.3 0.5 0.2 0.3 0.3 0.6 0.5 0.9 0.5 1.2 0.7 2 0.8 2.5 0.1 0.5 0.1 0.8 0.1 0.9 0 0.1 0 0.1 0 0.1 0 0 0 0 0 0.6 0 0 0 0.1 0 0.3 0 0.1 0 0.2 0 0.4 0 0.2-0.1 0.3-0.1 0.5 -0.2 0.8-0.5 2.1-1.8 3.6 -0.3 0.3-0.6 0.7-0.9 1 -0.6 0.4-0.5 1.2-0.5 1.8 0 0.2 0 0.5-0.1 0.7 0 0.2 0 0.4 0 0.6 0 0.4 0 0.8 0 1.2 -0.1 1.6 0 3.4 0 5.3 0 1 0.1 2 0.2 3.1 0.1 0.5 0.1 1.1 0.2 1.7 0 0.3 0.1 0.6 0.1 0.9l0 0.4 0 0.3c0 0.1 0 0.2 0.1 0.4 0.1 0.3 0.2 0.5 0.3 0.8l0.1 0.3c0.1 0.2 0.2 0.4 0.2 0.7 0.1 0.5 0.3 0.9 0.3 1.4 0.2 1 0.2 1.9-0.1 2.6 -0.2 0.7-0.6 1.3-1.4 1.8 -0.7 0.5-1.8 0.9-3.1 1 -1.3 0.2-2.6 0.2-4.2 0.1l-0.6 0c-0.2 0-0.4 0.1-0.5 0.2l-1.1 0.4 -0.3 0.1 -0.1 0.1c0 0-0.1 0.1-0.1 0 0.1-0.1 0 0 0 0l-0.1 0 -0.3 0.1c-0.6 0.1-1.2 0.3-1.9 0.4 -0.4 0-0.7 0.1-1.1 0.1 -0.4 0-0.8 0-1.2 0 -0.8 0-1.6 0-2.5-0.1 -0.8-0.1-1.7-0.2-2.6-0.3 -0.9-0.2-1.8-0.3-2.7-0.5 -0.7-0.1-1.3-0.2-2-0.4l-0.4-0.1c-0.1 0-0.2-0.1-0.3 0l-0.6 0.3c-0.2 0.1-0.4 0.2-0.6 0.3l-0.3 0.1c-0.7 0.3-1.5 0.6-2.4 0.8 -1.6 0.4-3.4 0.5-5.1 0.2 -0.2 0-0.4-0.1-0.6-0.1l-0.8-0.2 -0.4-0.1 -0.4 0 -0.5 0 -0.8 0c-1 0-2.1-0.1-3.1-0.2 -1-0.1-2.1-0.2-3.1-0.4 -0.5-0.1-0.9-0.2-1.4-0.4 -0.2-0.1-0.4-0.1-0.5-0.2l-0.6-0.3c-0.2-0.2-0.5-0.2-0.8-0.2l-0.6-0.1 -0.4-0.1 -0.8-0.1c-0.5-0.1-1-0.2-1.5-0.3 -1-0.3-1.9-0.7-2.4-1 -0.1 0-0.1-0.1-0.2-0.1 0 0-0.1-0.1-0.1-0.1 0 0 0 0 0 0 0 0 0 0.1 0-0.1 0.1-0.2 0.3-0.6 0.6-0.9 0.2-0.2 0.3-0.4 0.5-0.5l0.1-0.1 0 0 0 0c1.1-0.6 2.3-1.3 3.5-2 1.1-0.7 2.3-1.5 3.4-2.3l0.9-0.6 0.8-0.7c0.5-0.4 1.1-0.9 1.7-1.3 1.1-0.9 2.3-1.7 3.3-2.8 4.2-4.1 8-8.8 11-14.6 1.4-2.9 2.6-6 3.2-9.4l0.2-1.3 0.1-0.8c0-0.4-0.1-0.8-0.1-0.9 -0.1-0.8-0.2-1.6-0.2-2.5 -0.2-1.6-0.4-3.2-0.6-4.9 -0.2-1.6-0.4-3.3-0.7-5 -0.3-1.7-0.6-3.3-0.9-5 -0.6-3.4-1.2-6.8-1.9-10.3 -0.8-3.5-1.6-7-2.5-10.6 -0.9-3.6-1.6-7.2-2.7-10.9 -2-7.3-4-14.8-5.8-22.6 -1.9-7.8-3.6-15.9-5-24.3 -1.4-8.4-2.3-17.2-2.6-26.2 -0.2-9 0.3-18.3 2.4-27.5 0.3-1.1 0.5-2.3 0.9-3.4 0.3-1.1 0.6-2.3 1-3.4l0.6-1.7 0.1-0.4c0-0.1 0.1-0.3 0.1-0.4l0.1-0.7 0.1-0.9c0.1-1.3 0.2-2.5 0.3-3.8 0.2-2.5 0.3-5.1 0.4-7.6 0.2-2.5 0.1-5.2 0.1-7.8l0-2 0-0.6c0-0.1 0-0.3 0-0.5l-0.1-0.4c0-0.2-0.1-0.3-0.1-0.3l-0.1-0.2 -0.1-0.4c-0.3-1.1-0.5-2.3-0.7-3.6 -0.4-2.4-0.5-5-0.5-7.5 -0.1-1.3 0-2.6 0-3.9 0.1-1.3 0-2.6 0.2-3.9 0.1-1.3 0.2-2.6 0.3-3.9l0-0.5 0-0.4c0-0.2 0-0.3 0-0.5l-0.1-1.1 -0.2-2c-1.2-10.9-2.8-22-4.8-33.3 -1.1-5.7-2.1-11.4-3.2-17.2 -1.2-5.7-2-11.5-2.9-17.5 -1.6-11.9-2.9-24.2-4-36.8 -1-12.6-1.8-25.6-2.2-38.8 -0.2-6.6-0.2-13.3 0-20.1 0.1-1.7 0.2-3.4 0.2-5.1 0.1-1.7 0.3-3.4 0.4-5l0.1-0.6c0-0.1 0-0.1 0-0.1l0.1-0.3 0.3-1.2c0.2-0.8 0.4-1.7 0.6-2.5 0.4-1.7 0.8-3.3 1.3-5 0.5-1.7 0.9-3.3 1.4-5l0.8-2.5 0.8-2.5c0.5-1.7 1.2-3.3 1.8-4.9l0.5-1.2 0.3-0.7c0.1-0.2 0-0.4 0.1-0.7l0-0.9c0-0.8 0.1-1.7 0.2-2.6 0.1-0.9 0.1-1.7 0.2-2.6l0.3-2.6c0.2-1.7 0.4-3.5 0.8-5.2 0.3-1.7 0.7-3.5 1-5.2l0.3-1.5c0.1-0.2 0.1-0.4 0.1-0.7l0-0.5 0-0.7c0-0.9-0.1-1.8-0.1-2.7 0-1.8-0.1-3.6-0.1-5.5 0-1.8 0-3.7 0-5.5 0-1.8 0-3.7 0.1-5.5 0.1-1.8 0.2-3.7 0.3-5.5 0.2-7.4 1.2-14.9 1.5-22.7l0 0c-0.1 1.9-0.2 3.6-0.3 5.2 -0.1 1.5-0.2 2.9-0.3 4.1 -0.2 2.4-0.3 4.2-0.4 5.3 -0.2 2.3-0.2 2.3 0 0.2 0.1-1.1 0.2-2.6 0.4-4.7 0.2-2.1 0.4-4.6 0.6-7.7 0.1-3.1 0.3-6.6 0-10.6 -0.2-4-0.8-8.3-1.5-12.9 -0.4-2.3-0.9-4.7-1.4-7.2 -0.2-1.2-0.5-2.5-0.7-3.8 -0.3-1.3-0.6-2.6-1-3.9 -0.3-1.3-0.7-2.7-1-4 -0.3-1.4-0.8-2.7-1.2-4 -0.4-1.4-0.8-2.7-1.2-4.1 -0.4-1.4-0.7-2.8-1.1-4.2 -0.2-0.7-0.4-1.4-0.6-2.2l-0.3-1.1 -0.1-0.5 -0.1-0.3c-2.2 0.1 4.9-0.3-5 0.2l0 0.1 0 0.1c-0.2 1.5-0.4 3.1-0.6 4.6 -0.4 3.1-0.8 6.3-1.2 9.5 -0.8 6.5-1.6 13.3-2.2 20.3 -0.1 1.8-0.3 3.5-0.4 5.3 -0.1 1.8-0.2 3.6-0.3 5.4 -0.1 1.8-0.1 3.6-0.1 5.5 0 1.8-0.1 3.7-0.1 5.5 0 7.4 0.1 15 0.1 22.8l0 0.7c0 0.2 0 0 0 0.1l0 0.3 -0.2 1.4c-0.1 0.9-0.2 1.8-0.4 2.8 -0.3 1.9-0.7 3.8-1 5.7 -0.3 1.9-0.7 3.8-1 5.8 -0.4 1.9-0.8 3.9-1.3 5.8 -0.9 3.9-1.7 7.8-2.6 11.7 -0.4 2-0.9 3.9-1.3 5.9 -0.5 2-1 3.9-1.6 5.9 4.2-16.4 2-7.1-4.2 15.6 -0.8 2.8-1.6 5.9-2.4 9.1 -0.2 0.8-0.4 1.6-0.7 2.5 -0.1 0.4-0.2 0.8-0.3 1.3l-0.1 0.3 -0.1 0.4 -0.2 0.7c-0.4 1.8-0.7 3.7-0.9 5.7 -0.3 3.9-0.4 8.1 0.7 12.5l0.2 0.8 0.2 0.7 0.1 0.4c0 0.1 0.2 0.2 0.2 0.3l0.5 0.5 0.2 0.3 0.4 0.5c0.6 0.7 1.1 1.5 1.6 2.3 1 1.6 1.8 3.4 2.4 5.2 0.6 1.8 1.1 3.8 1.2 5.8 0.1 0.5 0 1 0.1 1.5l0 0.4 0 0.4 0 0.2 0.1 0.8c0.1 1.1 0.2 2.2 0.3 3.4 0.2 2.2 0.5 4.5 0.7 6.8 0.3 2.3 0.5 4.6 0.8 7 0.4 2.4 0.9 4.7 1.3 7 0.2 1.2 0.4 2.3 0.6 3.4 0.1 0.6 0.2 1.1 0.2 1.6l0 0.3c0 0.1 0 0 0 0 0 0 0 0 0 0l0 0c0 0 0 0 0 0l-0.4-0.4c-0.6-0.7-1.3-1.7-1.8-2.7 -0.6-1-1.2-2-1.7-3 0.9 1.5 0.4 0.8-0.7-1.3 -0.3-0.5-0.6-1.1-0.9-1.7 -0.3-0.6-0.6-1.3-1-2 -0.2-0.5-0.4-0.9-0.6-1.4 -0.4-0.7-0.9-1.6-1.4-2.2 -1.1-1.3-2.5-2.1-4.1-1.7l0 0c0.6-0.2 1.2 0 1.6 0 0.4 0.1 0.8 0.3 1.1 0.5 0.3 0.2 0.5 0.3 0.7 0.5 0.2 0.1 0.2 0.2 0.3 0.2 0.1 0.1-0.1-0.1-0.5-0.4 -0.4-0.3-1-0.8-2-0.9 -0.2 0-0.5 0-0.8 0 -0.3 0.1-0.6 0.1-0.9 0.2 -0.1 0.1-0.3 0.1-0.4 0.2 -0.1 0.1-0.3 0.2-0.4 0.3 -0.1 0.1-0.3 0.2-0.4 0.3 -0.1 0.1-0.3 0.3-0.4 0.5 -0.1 0.2-0.3 0.3-0.4 0.5 -0.1 0.2-0.2 0.4-0.3 0.6 -0.2 0.4-0.5 0.9-0.6 1.4 -0.4 1.1-0.5 1.8-0.6 2.6 -0.3 2.9 0.1 6.3 1.2 10.1 0.5 1.9 1.2 3.9 2.2 5.9 0.5 1 1 2 1.5 3 0.5 1 1 2.1 1.6 3.2 0.3 0.5 0.6 1.1 0.9 1.6 0.3 0.5 0.7 1.1 1 1.6 0.3 0.6 0.7 1.1 1 1.7l0.5 0.8c0.1 0.2 0.2 0.2 0.4 0.3l0.4 0.2c0.3 0.2 0.7 0.4 1 0.6 1 0.6 2.1 1.3 3 2.1 0.9 0.7 1.9 1.6 2.3 2.3 0 0.1 0.1 0.3 0.1 0.3 0 0 0 0 0.1 0l0.1 0c0.1-0.1-0.3 0.7-0.1 0.4l0 0.2c0 0.1 0.1 0.3 0.1 0.4l0 0.2c0 0 0 0 0 0l0 0 0 0c0 0 0 0-0.1 0l-0.1 0 -0.4-0.2c-1.3-0.5-2.7-1.1-4.1-1.8 -0.7-0.3-1.4-0.7-2.1-1l-1.1-0.5 -0.4-0.2 0 0c-2.2-2.2-4.5-4.7-6.6-7.4 -0.5-0.7-1-1.4-1.5-2.1 -0.5-0.7-1-1.4-1.5-2.1 -0.5-0.7-1-1.5-1.4-2.2 -0.4-0.8-0.9-1.5-1.3-2.3 -0.4-0.7-0.9-1.6-1.3-2.4 -0.4-0.8-0.9-1.7-1.3-2.5 -0.9-1.7-1.8-3.4-2.5-5.1 -0.8-1.7-1.4-3.2-1.5-4.9 -0.1-0.4-0.1-0.8-0.1-1.3 0-0.4 0-0.9 0-1.4 0-1 0-2 0-3.1 0-8.2-0.3-16.7-0.7-25.6 0-1.1-0.1-2.2-0.2-3.4 -0.1-1.1-0.2-2.3-0.3-3.4 -0.1-1.1-0.2-2.3-0.3-3.4 -0.1-0.5 0-1.9 0-3 0.1-4.6 0.1-9.2 0-13.9 0-4.7 0-9.5-0.1-14.3 0-1.2 0-2.4 0-3.6 0-1.2 0-2.4-0.1-3.6 -0.2-2.4-0.3-4.9-0.5-7.3 -0.2-2.5-0.3-4.9-0.5-7.4 -0.1-2.5-0.3-4.9-0.4-7.4 -0.2-5-0.5-10-0.8-15.1L10 346c0-0.6 0-1.2 0-1.8l0.1-1.8 0-0.9 0.1-0.9c0.1-1.2 0.2-2.5 0.4-3.7 0.1-1.2 0.3-2.5 0.5-3.8 0.2-1.3 0.3-2.5 0.6-3.8 0.2-1.3 0.4-2.5 0.7-3.8 0.4-2.5 1-5 1.5-7.6 0.5-2.5 1.2-5 1.8-7.5 0.3-1.3 0.7-2.5 1.1-3.7 0.4-1.2 0.7-2.5 1.2-3.7l1.4-3.8c0-0.2 0.1-0.3 0.1-0.5l0-0.4 0-0.6 0.1-1.1c0-0.7 0-1.4 0.1-2 0.1-2.7 0.2-5.4 0.2-8 0.1-5.6-0.5-10.9-0.8-16.2 -0.4-5.3-0.6-10.6-0.6-16 0-0.1 0-1.4 0-3.8 0-1.2 0.1-2.6 0.2-4.3 0.1-1.7 0.2-3.6 0.5-5.7 0.4-4.2 1.2-9.3 2.8-14.8l0.3-0.9 0.2-0.5c0-0.1 0.1-0.2 0.1-0.3l-0.1-0.3 -0.4-1.1 -0.2-0.5c-0.2-0.7-0.4-1.4-0.6-2.2 -0.4-1.5-0.7-3-1-4.6 -0.6-3.2-1-6.6-1.2-10.2 -0.4-7.1-0.1-14.9 1.7-22.8 1.7-7.9 4.8-16.1 9.4-23.6 0.6-1 1.2-1.9 1.8-2.9l0.5-0.7c0.1-0.2 0.3-0.4 0.4-0.6 0.3-0.4 0.6-0.8 1-1.2 1.4-1.6 3-3 4.7-4.2 1.8-1.2 3.7-2.1 5.7-2.9 2-0.7 4.2-1 6.3-1.2l1.6 0 1.4 0c0.2 0 0.3-0.1 0.4-0.1l0.4-0.2 0.6-0.2c1.1-0.5 2.2-1 3.3-1.5 2.2-1 4.4-2 6.6-3 4.4-2.1 8.8-4.2 13.2-6.3l0 0c0.6-0.3 5.3-2.5 11.8-6.1 1.6-0.9 3.4-1.9 5.2-3 0.9-0.6 1.8-1.1 2.8-1.9l0.7-0.5 0.4-0.3 0.2-0.1 0.1-0.1 0 0 0 0c-1.9 1-0.5 0.3-0.9 0.5l0.1 0 0.2-0.1 0.1 0 0.2-0.1c0.2-0.1 0.2-0.1 0.4-0.2 0.2-0.1 0.4-0.3 0.6-0.4 0.4-0.3 0.7-0.6 1-0.9 1.1-1.2 1.7-2.6 2.2-3.9 0.5-1.3 0.7-2.6 0.8-3.9 0.3-2.6 0.2-5.1 0-7.6 -0.2-1.5-0.3-3-0.6-4.4l-0.4-2.3c0-0.2 0-0.4-0.1-0.5l-0.3-0.5 -0.2-0.5c-0.1-0.3-0.3-0.6-0.4-0.9 -1.1-2.4-2-5.1-2.6-7.7 -0.1-0.7-0.3-1.3-0.4-2l-0.4-2.2 -0.2-1.1c0-0.2-0.2-0.3-0.3-0.4l-0.4-0.4c-0.1-0.1-0.3-0.3-0.3-0.4l-0.1-0.2 -0.3-0.4c-0.4-0.5-0.8-1-1.1-1.5 -1.4-2.2-2.6-4.6-3.3-7.1 -0.8-2.5-1.3-5.2-1.4-7.8 -0.1-0.7 0-1.3 0-2l0-0.5c0-0.2 0-0.1 0-0.1 0-0.1 0.1-0.5 0.2-0.7 0.2-0.5 0.4-0.9 0.6-1.1 0.1-0.1 0.1-0.2 0.2-0.2l2.3 0.1 0.7 0c0.1-0.1 0-0.3 0-0.5l-0.1-1.1L94.7 56.5l-0.1-1.7 -0.1-1.1c-0.1-1.4-0.1-2.8-0.1-4.2 0-2.8 0-5.6 0.2-8.4 0.2-2.8 0.4-5.6 0.9-8.3 0.5-2.7 1.1-5.3 2.1-7.7 0.5-1.2 1.1-2.3 1.8-3.3l0.3-0.4 0.3-0.4c0.1-0.1 0.2-0.3 0.2-0.4 0.1-0.3 0.3-0.5 0.5-0.8 0.3-0.5 0.7-1.1 1.1-1.6 1.6-2.1 3.4-4 5.5-5.6 1-0.8 2.2-1.5 3.3-2.2 1.2-0.6 2.3-1.3 3.6-1.8 2.4-1.1 5-1.8 7.6-2.3 1.3-0.2 2.7-0.4 4-0.5l4.1-0.1 4.1 0.1c1.3 0.1 2.7 0.3 4 0.5 2.6 0.6 5.2 1.2 7.6 2.3 1.2 0.5 2.4 1.1 3.5 1.8 1.1 0.7 2.2 1.4 3.3 2.2 2.1 1.6 4 3.5 5.5 5.5 0.4 0.5 0.8 1 1.1 1.6 0.2 0.3 0.3 0.5 0.5 0.8l0.1 0.2c0.1 0.1 0.1 0.3 0.2 0.4l0.4 0.6c0.7 0.9 1.3 2 1.8 3.2 1 2.3 1.7 5 2.2 7.6 0.5 2.7 0.8 5.4 1 8.1 0.2 2.7 0.2 5.5 0.2 8.3 0 1.4-0.1 2.8-0.1 4.1l-0.1 2.1 -0.2 2 -0.2 2.1 0 0.5c0 0.1-0.1 0.4 0.1 0.4l1.5-0.1 1.4-0.1 0.1 0c0 0 0 0 0 0 0.1 0.1 0.3 0.3 0.5 0.8 0.1 0.2 0.2 0.4 0.3 0.7l0.1 0.4 0 0.2c0 0 0 0 0 0l0 1.8c-0.1 2.6-0.4 5.2-1.1 7.7 -0.7 2.5-1.7 4.9-3 7.1 -0.6 1.1-1.4 2.1-2.2 3l-0.3 0.3 -0.4 0.4c-0.1 0.1-0.3 0.2-0.3 0.4l-0.1 0.5 -0.3 1.5c-0.1 0.7-0.2 1.3-0.3 2 -0.5 2.6-1.3 5.1-2.3 7.6 -0.2 0.6-0.5 1.2-0.8 1.8 -0.1 0.3-0.3 0.6-0.4 0.9l-0.2 0.3c-0.1 0.2-0.2 0.3-0.2 0.5l-0.1 0.9c-0.2 1.4-0.5 2.8-0.7 4.3 -0.4 2.9-0.5 5.8-0.3 8.9 0 0.8 0.2 1.5 0.3 2.3 0.1 0.4 0.2 0.8 0.3 1.2 0.1 0.4 0.2 0.8 0.3 1.2 0.5 1.6 1.3 3.2 3 4.7 4.8 3.5 9.7 6.2 14.7 8.7 4.9 2.6 9.9 5 14.9 7.4 5 2.4 10 4.7 15 6.9l0.9 0.4 0.9 0.4c0.3 0 0.7 0 1.1 0l1.9 0c0.6 0 1.2 0.1 1.8 0.2 0.3 0 0.6 0.1 0.9 0.1l0.9 0.2c2.4 0.5 4.7 1.3 6.9 2.5 2.1 1.2 4.1 2.8 5.8 4.5 0.8 0.9 1.6 1.8 2.2 2.8 0.7 1.1 1.5 2.2 2.2 3.4 2.7 4.5 4.9 9.2 6.7 14.1 3.5 9.8 4.9 20.2 4.4 30.5 -0.2 5.1-0.9 10.2-2 15.2 -0.3 1.2-0.6 2.5-0.9 3.7l-0.1 0.5 -0.3 0.9c0 0.2-0.1 0.3-0.1 0.5l0.1 0.5 0.3 1 0.5 1.8c0.2 0.6 0.4 1.2 0.5 1.8l0.4 1.9 0.4 1.8c0.1 0.6 0.2 1.2 0.3 1.9 1.7 10 1.6 20.2 1.1 30.3 -0.3 5.1-0.7 10.1-1 15.2 -0.1 1.3-0.1 2.6-0.1 3.9 0 1.4 0 2.6 0.1 3.9 0.1 2.5 0.1 5.1 0.2 7.6 0 0.6 0.1 1.4 0.1 2.1 0.1 0.3 0 0.7 0.3 1.5l0.3 0.9 1.2 3.4c0.4 1.1 0.7 2.3 1.1 3.5 0.3 1.2 0.7 2.3 1 3.5 0.6 2.4 1.2 4.7 1.7 7.1 0.2 0.8 0.3 1.6 0.5 2.4 0.7 3.3 1.2 6 1.5 7.5 0.4 1.9 0.7 3.6 1 5.1 0.3 1.5-0.3 30 0 31.4 0.3 1.4 2.8 2.9 3.2 4.3C252.1 369.9 251.2 353 251.7 354.7z" class="a"/></svg>